<?xml version="1.0" encoding="UTF-8"?>
<svg width="149px" height="50px" viewBox="0 0 149 50" version="1.1" xmlns="http://www.w3.org/2000/svg" xmlns:xlink="http://www.w3.org/1999/xlink">
    <!-- Generator: Sketch 57.1 (83088) - https://sketch.com -->
    <title>Apple_appstore_badge</title>
    <desc>Created with Sketch.</desc>
    <g id="Home-logged-in-" stroke="none" stroke-width="1" fill="none" fill-rule="evenodd">
        <g id="Web_Home-logged-in" transform="translate(-353.000000, -1686.000000)" fill-rule="nonzero">
            <g id="3rd" transform="translate(0.000000, 1334.000000)">
                <g id="text" transform="translate(161.000000, 95.000000)">
                    <g id="download" transform="translate(0.000000, 208.000000)">
                        <g id="GP" transform="translate(0.000000, 49.000000)">
                            <g id="Download_on_the_App_Store_Badge_US-UK_RGB_blk_092917" transform="translate(192.000000, 0.000000)">
                                <g id="Group">
                                    <g id="Path">
                                        <path d="M136.575856,-0.000161210317 L11.8237599,-0.000161210317 C11.3690228,-0.000161210317 10.9197421,-0.000161210317 10.4662078,0.00248015873 C10.0865575,0.00496031746 9.70993304,0.0121651786 9.3266369,0.0182291667 C8.49394058,0.0280280303 7.66320247,0.101285045 6.84164187,0.237363591 C6.02123522,0.376404548 5.22652842,0.638536384 4.4843998,1.01489335 C3.74317883,1.39443417 3.06590404,1.88760854 2.47714534,2.4765253 C1.88529576,3.06378596 1.39194343,3.74257983 1.01605903,4.48680556 C0.639137204,5.22955 0.377778396,6.02546912 0.241009425,6.84707341 C0.102940155,7.66764001 0.0286438252,8.49766932 0.0187872024,9.3297123 C0.00727926587,9.70992063 0.0060639881,10.0913938 0,10.4716518 L0,39.1351687 C0.0060639881,39.5202133 0.00727926587,39.8932292 0.0187872024,40.2783978 C0.0286468478,41.1103995 0.102943179,41.9403874 0.241009425,42.7609127 C0.377400735,43.5829973 0.638774997,44.3793733 1.01605903,45.1223958 C1.39177276,45.8642149 1.88519446,46.5402607 2.47714534,47.124256 C3.06367165,47.7157912 3.74138422,48.2093011 4.4843998,48.5859375 C5.22652278,48.9633018 6.0211439,49.2269938 6.84164187,49.3681796 C7.66334213,49.5031681 8.4939948,49.5764549 9.3266369,49.5874256 C9.70993304,49.5958581 10.0865575,49.6006944 10.4662078,49.6006944 C10.9197297,49.6031746 11.3690476,49.6031746 11.8237599,49.6031746 L136.575856,49.6031746 C137.02154,49.6031746 137.474417,49.6031746 137.920102,49.6006944 C138.297954,49.6006944 138.685479,49.5958581 139.063331,49.5874256 C139.894399,49.5770383 140.723488,49.5037469 141.54349,49.3681796 C142.366635,49.226 143.164104,48.9623777 143.909809,48.5859375 C144.652154,48.2090831 145.329241,47.7155866 145.915265,47.124256 C146.505689,46.5379735 147.000164,45.8624222 147.380543,45.1223958 C147.754996,44.3788328 148.013882,43.5825205 148.148276,42.7609127 C148.286564,41.9402748 148.363496,41.1104716 148.378435,40.2783978 C148.383271,39.8932292 148.383271,39.5202133 148.383271,39.1351687 C148.392944,38.6846478 148.392944,38.2366071 148.392944,37.7787698 L148.392944,11.825558 C148.392944,11.3714286 148.392944,10.9209325 148.383271,10.4716518 C148.383271,10.0913938 148.383271,9.70992063 148.378435,9.3296627 C148.363499,8.49754767 148.286567,7.66770296 148.148276,6.84702381 C148.013508,6.02589484 147.754637,5.23003879 147.380543,4.48675595 C146.615072,2.99503482 145.401257,1.78078546 143.909809,1.01478175 C143.164102,0.63934447 142.366547,0.377282254 141.54349,0.237251984 C140.72363,0.100573888 139.894454,0.0272913751 139.063331,0.0180555556 C138.685479,0.0120039683 138.297954,0.00473710317 137.920102,0.00231894841 C137.474417,-0.000161210317 137.02154,-0.000161210317 136.575856,-0.000161210317 L136.575856,-0.000161210317 Z" fill="#A6A6A6"></path>
                                        <path d="M10.4722594,48.5181052 C10.094432,48.5181052 9.72573165,48.5132688 9.35086806,48.5048363 C8.57430775,48.4947182 7.79956247,48.4271144 7.03298611,48.3025794 C6.31819234,48.1794744 5.62574931,47.9504768 4.97849702,47.6231399 C4.33717969,47.2985152 3.75224673,46.8728582 3.24610615,46.3624752 C2.7326393,45.8581042 2.30515468,45.27312 1.98059276,44.6307044 C1.65245444,43.9841135 1.4253632,43.2910461 1.30722966,42.5756448 C1.1796557,41.8069381 1.1106329,41.0296543 1.10075645,40.250496 C1.09289435,39.9889633 1.08260169,39.1181796 1.08260169,39.1181796 L1.08260169,10.4716518 C1.08260169,10.4716518 1.09356399,9.61424851 1.10081845,9.36235119 C1.11027508,8.58442714 1.17889651,7.80834957 1.30608879,7.04083581 C1.42444038,6.3234748 1.65170743,5.62840881 1.98002232,4.9796999 C2.3033914,4.33772799 2.72850271,3.75230691 3.23887649,3.24613095 C3.74867662,2.73514561 4.33548067,2.30729677 4.97788938,1.978187 C5.6236541,1.65190179 6.3147885,1.42451953 7.0281374,1.30365823 C7.79723132,1.1778722 8.57466622,1.10986618 9.35391865,1.10021081 L10.4728671,1.08506944 L137.914025,1.08506944 L139.046342,1.10081845 C139.818506,1.10999404 140.588879,1.17739336 141.350905,1.30244296 C142.071476,1.42482027 142.769813,1.6537891 143.422954,1.98182044 C144.709931,2.64507198 145.75712,3.6943985 146.417746,4.98272569 C146.74082,5.6269563 146.964582,6.31635262 147.081436,7.02751736 C147.210143,7.8013286 147.282176,8.58350488 147.296962,9.36780754 C147.300558,9.71899802 147.300558,10.0962302 147.300558,10.4716518 C147.310355,10.9366815 147.310355,11.3793031 147.310355,11.825558 L147.310355,37.7787698 C147.310355,38.2292907 147.310355,38.6688988 147.300558,39.1121032 C147.300558,39.515377 147.300558,39.8847966 147.295722,40.265005 C147.281256,41.0353121 147.210424,41.8035271 147.083792,42.5634921 C146.96808,43.284054 146.742225,43.9825312 146.414149,44.6344246 C146.087293,45.2698675 145.662263,45.8497845 145.154725,46.3528026 C144.648129,46.8659284 144.062164,47.2940758 143.419358,47.6207837 C142.768026,47.950637 142.070717,48.1804815 141.350905,48.3025794 C140.584387,48.427779 139.809567,48.4953871 139.032949,48.5048363 C138.66973,48.5132688 138.289397,48.5181052 137.920102,48.5181052 L136.575856,48.5205853 L10.4722594,48.5181052 Z" fill="#000000"></path>
                                    </g>
                                    <g id="_Group_" transform="translate(12.160714, 9.920635)" fill="#FFFFFF">
                                        <g id="_Group_2">
                                            <g id="_Group_3">
                                                <path d="M18.5546627,15.2538194 C18.5817671,13.1500609 19.6846762,11.206828 21.4769841,10.1049355 C20.3411615,8.48277873 18.5069346,7.49116859 16.527629,7.42924107 C14.4452381,7.21066468 12.4264509,8.67531002 11.3653026,8.67531002 C10.2836186,8.67531002 8.64981399,7.45094246 6.89047619,7.48714038 C4.57564641,7.5619276 2.46991217,8.84613775 1.3437004,10.8699157 C-1.0546131,15.0222222 0.734312996,21.1247148 3.03169643,24.481126 C4.18112599,26.1246652 5.52447917,27.9605407 7.28222966,27.8954365 C9.00229415,27.8240947 9.64470486,26.7986111 11.7209697,26.7986111 C13.7779638,26.7986111 14.3806796,27.8954365 16.1740947,27.8540427 C18.0198041,27.8240823 19.1826885,26.2031994 20.2917907,24.5440972 C21.1176539,23.3730155 21.7531544,22.0787152 22.174752,20.7091394 C19.9826098,19.7819708 18.5572213,17.6339712 18.5546627,15.2538194 L18.5546627,15.2538194 Z" id="_Path_"></path>
                                                <path d="M15.1672247,5.2218378 C16.1735821,4.01374244 16.6693762,2.46094054 16.549318,0.893191964 C15.0118277,1.0546757 13.5916173,1.78949612 12.5716642,2.95124008 C11.5645073,4.09745663 11.054284,5.59701473 11.153373,7.11963046 C12.7114792,7.13567307 14.1908682,6.43620191 15.1672247,5.2218378 L15.1672247,5.2218378 Z" id="_Path_2"></path>
                                            </g>
                                        </g>
                                        <g id="Group" transform="translate(30.001984, 12.160714)">
                                            <path d="M10.2954737,11.5739707 L4.42568204,11.5739707 L3.01605903,15.7362351 L0.52984871,15.7362351 L6.08962054,0.336929563 L8.67270585,0.336929563 L14.2324777,15.7362351 L11.703869,15.7362351 L10.2954737,11.5739707 Z M5.03360615,9.65329861 L9.68638393,9.65329861 L7.39272073,2.89825149 L7.32853423,2.89825149 L5.03360615,9.65329861 Z" id="Shape"></path>
                                            <path d="M26.2396949,10.1231771 C26.2396949,13.6121156 24.372309,15.8536954 21.5542783,15.8536954 C20.0976628,15.9298916 18.7256106,15.1669527 18.021751,13.8894097 L17.9684276,13.8894097 L17.9684276,19.4503968 L15.6638641,19.4503968 L15.6638641,4.50890377 L17.8945933,4.50890377 L17.8945933,6.37628968 L17.9369792,6.37628968 C18.6721085,5.10675585 20.0456402,4.34414538 21.5118924,4.39143105 C24.3613591,4.39144345 26.2396949,6.64392361 26.2396949,10.1231771 Z M23.8709449,10.1231771 C23.8709449,7.85011161 22.696255,6.35570437 20.9039559,6.35570437 C19.1431424,6.35570437 17.9587674,7.88158482 17.9587674,10.1231771 C17.9587674,12.3853547 19.1431424,13.9003348 20.9039559,13.9003348 C22.6962674,13.9003348 23.8709449,12.4168403 23.8709449,10.1231771 Z" id="Shape"></path>
                                            <path d="M38.5968874,10.1231771 C38.5968874,13.6121156 36.7295015,15.8536954 33.9114707,15.8536954 C32.4548552,15.9298916 31.0828031,15.1669527 30.3789435,13.8894097 L30.32562,13.8894097 L30.32562,19.4503968 L28.0210565,19.4503968 L28.0210565,4.50890377 L30.2517361,4.50890377 L30.2517361,6.37628968 L30.294122,6.37628968 C31.0292567,5.10675662 32.4027937,4.34415064 33.8690476,4.39144345 C36.7186012,4.39144345 38.5968874,6.64392361 38.5968874,10.1231771 Z M36.2281498,10.1231771 C36.2281498,7.85011161 35.0534474,6.35570437 33.2611483,6.35570437 C31.5003348,6.35570437 30.3159598,7.88158482 30.3159598,10.1231771 C30.3159598,12.3853547 31.5003348,13.9003348 33.2611483,13.9003348 C35.0534598,13.9003348 36.2281498,12.4168403 36.2281498,10.1231771 L36.2281498,10.1231771 Z" id="Shape"></path>
                                            <path d="M46.7639757,11.4455977 C46.9347346,12.9726935 48.4182416,13.9753596 50.4454613,13.9753596 C52.387934,13.9753596 53.7854415,12.9726438 53.7854415,11.5957093 C53.7854415,10.400434 52.9425719,9.68474702 50.9468254,9.19427083 L48.9510789,8.71349206 C46.1233631,8.03048115 44.8106151,6.70804812 44.8106151,4.56212798 C44.8106151,1.90515873 47.1260789,0.0801587302 50.4139757,0.0801587302 C53.6679439,0.0801587302 55.8986607,1.90515873 55.9737475,4.56212798 L53.6473586,4.56212798 C53.5080977,3.02534722 52.2377356,2.09771825 50.38125,2.09771825 C48.5247644,2.09771825 47.2544147,3.03625992 47.2544147,4.40228175 C47.2544147,5.49098462 48.0657986,6.13160962 50.0506448,6.62202381 L51.7472718,7.03861607 C54.906808,7.78581349 56.2195561,9.05498512 56.2195561,11.3074405 C56.2195561,14.1884425 53.9246776,15.9928571 50.2746776,15.9928571 C46.8596106,15.9928571 44.5538442,14.2308284 44.4048859,11.4454861 L46.7639757,11.4455977 Z" id="Path"></path>
                                            <path d="M61.1932168,1.85193452 L61.1932168,4.50890377 L63.3282366,4.50890377 L63.3282366,6.33390377 L61.1932168,6.33390377 L61.1932168,12.5234003 C61.1932168,13.4849454 61.6207093,13.9330233 62.5592386,13.9330233 C62.8127002,13.9286036 63.0657517,13.9108044 63.3173363,13.8796999 L63.3173363,15.6937996 C62.8953724,15.7726433 62.4664817,15.8083513 62.0372892,15.800372 C59.7642237,15.800372 58.877753,14.9466022 58.877753,12.7691964 L58.877753,6.33390377 L57.2453125,6.33390377 L57.2453125,4.50890377 L58.8777282,4.50890377 L58.8777282,1.85193452 L61.1932168,1.85193452 Z" id="Path"></path>
                                            <path d="M64.5647321,10.1231771 C64.5647321,6.5906498 66.6452505,4.37085813 69.8895709,4.37085813 C73.1447793,4.37085813 75.2156126,6.5906002 75.2156126,10.1231771 C75.2156126,13.6654018 73.1556796,15.875496 69.8895709,15.875496 C66.6246156,15.875496 64.5647321,13.6653894 64.5647321,10.1231771 Z M72.8674479,10.1231771 C72.8674479,7.699938 71.7569444,6.26972966 69.8895585,6.26972966 C68.0221726,6.26972966 66.9128844,7.71083829 66.9128844,10.1231771 C66.9128844,12.5561012 68.0221726,13.9754216 69.8895585,13.9754216 C71.7569444,13.9754216 72.8674479,12.5561012 72.8674479,10.1231771 L72.8674479,10.1231771 Z" id="Shape"></path>
                                            <path d="M77.1156374,4.50890377 L79.3136409,4.50890377 L79.3136409,6.41986607 L79.3669643,6.41986607 C79.6734822,5.18969296 80.8006604,4.34304509 82.0675223,4.39141865 C82.3331027,4.39049136 82.5979504,4.41933376 82.8571057,4.47740575 L82.8571057,6.63301091 C82.5218266,6.53055967 82.1720729,6.48352095 81.8216394,6.49375 C81.1441198,6.46626419 80.4884312,6.73627819 80.0267379,7.23289431 C79.5650447,7.72951044 79.3434729,8.40311352 79.4202009,9.07683532 L79.4202009,15.7362103 L77.1156374,15.7362103 L77.1156374,4.50890377 Z" id="Path"></path>
                                            <path d="M93.4825149,12.4386285 C93.172495,14.4767609 91.1876364,15.8754836 88.6481399,15.8754836 C85.3820313,15.8754836 83.3547991,13.6871776 83.3547991,10.1764509 C83.3547991,6.65482391 85.3929315,4.37084573 88.5512649,4.37084573 C91.6575149,4.37084573 93.6108879,6.5046503 93.6108879,9.90881696 L93.6108879,10.6984003 L85.6811632,10.6984003 L85.6811632,10.8376612 C85.6071273,11.6735139 85.8957485,12.5008922 86.473611,13.1093377 C87.0514735,13.7177833 87.8628813,14.0486524 88.7014385,14.0177827 C89.8197945,14.122569 90.8741853,13.4803791 91.2942212,12.4386161 L93.4825149,12.4386285 Z M85.6920417,9.08776042 L91.3051091,9.08776042 C91.3469314,8.33667844 91.0735324,7.60221117 90.5507813,7.06129904 C90.0280302,6.52038692 89.3033244,6.22207392 88.5512649,6.23823165 C87.7932562,6.23370812 87.0648447,6.532161 86.5279334,7.06725353 C85.9910222,7.60234606 85.6900995,8.32974072 85.6920417,9.08776042 L85.6920417,9.08776042 Z" id="Shape"></path>
                                        </g>
                                    </g>
                                </g>
                                <g id="_Group_4" transform="translate(43.402778, 9.920635)" fill="#FFFFFF">
                                    <g id="Group">
                                        <path d="M3.5046999,0.906498016 C4.48305625,0.836289907 5.44133465,1.20851616 6.11577541,1.92072398 C6.79021617,2.6329318 7.10972951,3.61005058 6.98637153,4.58313492 C6.98637153,6.94703621 5.70875496,8.30585317 3.5046999,8.30585317 L0.831994048,8.30585317 L0.831994048,0.906498016 L3.5046999,0.906498016 Z M1.9812376,7.2594246 L3.37632688,7.2594246 C4.07551084,7.30121777 4.75630769,7.02574282 5.22968566,6.50948883 C5.70306362,5.99323484 5.91862551,5.29116371 5.81651786,4.59821429 C5.91119669,3.90814054 5.69253048,3.21186287 5.22032623,2.69981893 C4.74812198,2.18777498 4.07179522,1.91354948 3.37632688,1.95214534 L1.9812376,1.95214534 L1.9812376,7.2594246 Z" id="Shape"></path>
                                        <path d="M8.28457341,5.51133433 C8.18882332,4.51044773 8.66875454,3.54180547 9.52308523,3.01165348 C10.3774159,2.48150149 11.4584348,2.48150149 12.3127655,3.01165348 C13.1670962,3.54180547 13.6470274,4.51044773 13.5512773,5.51133433 C13.6488491,6.51329646 13.169356,7.48381744 12.3142678,8.01511074 C11.4591796,8.54640404 10.3766711,8.54640404 9.52158291,8.01511074 C8.66649472,7.48381744 8.18700156,6.51329646 8.28457341,5.51133433 Z M12.4177703,5.51133433 C12.4177703,4.30093006 11.8740079,3.59309276 10.9197421,3.59309276 C9.96183036,3.59309276 9.42296627,4.30093006 9.42296627,5.51134673 C9.42296627,6.73144841 9.96186756,7.43382937 10.9197421,7.43382937 C11.8740327,7.43382937 12.4177703,6.7265873 12.4177703,5.51133433 L12.4177703,5.51133433 Z" id="Shape"></path>
                                        <polygon id="Path" points="20.5521577 8.30574157 19.4089658 8.30574157 18.2548735 4.19312996 18.1676835 4.19312996 17.0184276 8.30574157 15.8861235 8.30574157 14.3469246 2.72175099 15.4646949 2.72175099 16.4649926 6.98266369 16.5473462 6.98266369 17.6953869 2.72175099 18.7526042 2.72175099 19.9006448 6.98266369 19.9878348 6.98266369 20.9832837 2.72175099 22.0853051 2.72175099"></polygon>
                                        <path d="M23.3798735,2.72175099 L24.4407242,2.72175099 L24.4407242,3.60881696 L24.5230779,3.60881696 C24.8094554,2.95570181 25.478637,2.55618486 26.1894345,2.61396329 C26.7398026,2.57258404 27.2791243,2.78371764 27.6551225,3.18775058 C28.0311206,3.59178353 28.2029924,4.14487073 28.1222098,4.69084821 L28.1222098,8.30567956 L27.0201885,8.30567956 L27.0201885,4.96758433 C27.0201885,4.07022569 26.6302455,3.62395833 25.8152282,3.62395833 C25.4419219,3.60657133 25.0796381,3.75307858 24.8233564,4.02507042 C24.5670747,4.29706225 24.442355,4.66741197 24.4818948,5.0390253 L24.4818948,8.30574157 L23.3798735,8.30574157 L23.3798735,2.72175099 Z" id="Path"></path>
                                        <polygon id="Path" points="29.878187 0.541914683 30.9802083 0.541914683 30.9802083 8.30572917 29.878187 8.30572917"></polygon>
                                        <path d="M32.5121404,5.51133433 C32.4164638,4.51038225 32.8964707,3.54171548 33.7508648,3.01155531 C34.6052589,2.48139514 35.6863334,2.48139514 36.5407274,3.01155531 C37.3951215,3.54171548 37.8751284,4.51038225 37.7794519,5.51133433 C37.8768998,6.51333233 37.3973188,7.48382588 36.5421882,8.01509578 C35.6870575,8.54636569 34.6045347,8.54636569 33.7494041,8.01509578 C32.8942735,7.48382588 32.4146925,6.51333233 32.5121404,5.51133433 L32.5121404,5.51133433 Z M36.6453373,5.51133433 C36.6453373,4.30093006 36.1015749,3.59309276 35.147309,3.59309276 C34.1893973,3.59309276 33.6505332,4.30093006 33.6505332,5.51134673 C33.6505332,6.73144841 34.1894345,7.43382937 35.147309,7.43382937 C36.1015873,7.43382937 36.6453373,6.7265873 36.6453373,5.51133433 L36.6453373,5.51133433 Z" id="Shape"></path>
                                        <path d="M38.9396081,6.7265873 C38.9396081,5.72144097 39.6880208,5.14197669 41.0164931,5.05962302 L42.5290551,4.97243304 L42.5290551,4.49045139 C42.5290551,3.90068204 42.1391121,3.56765873 41.3858631,3.56765873 C40.7706721,3.56765873 40.3443948,3.79351438 40.2220734,4.18830605 L39.1551711,4.18830605 C39.2677951,3.22917907 40.1700025,2.6139881 41.4367188,2.6139881 C42.8366567,2.6139881 43.6262401,3.3109127 43.6262401,4.49045139 L43.6262401,8.30575397 L42.5653894,8.30575397 L42.5653894,7.52101935 L42.4781994,7.52101935 C42.1178926,8.09409268 41.4771499,8.42902187 40.8009425,8.39775546 C40.3269049,8.44706326 39.8541309,8.29354001 39.4994988,7.97513944 C39.1448667,7.65673888 38.9414758,7.20317871 38.9396081,6.7265873 L38.9396081,6.7265873 Z M42.5290551,6.24944196 L42.5290551,5.78260169 L41.1654514,5.86979167 C40.3964534,5.92125496 40.0476811,6.1828373 40.0476811,6.67511161 C40.0476811,7.17767857 40.4836434,7.47013889 41.0831473,7.47013889 C41.4380408,7.50606382 41.7923194,7.39642244 42.0648814,7.16631397 C42.3374434,6.93620551 42.5049499,6.60533365 42.5290551,6.24944196 Z" id="Shape"></path>
                                        <path d="M45.0746032,5.51133433 C45.0746032,3.7468874 45.9816592,2.62911706 47.3924851,2.62911706 C48.1048819,2.59629233 48.7721076,2.97801695 49.1048611,3.60877976 L49.1872148,3.60877976 L49.1872148,0.541914683 L50.2892361,0.541914683 L50.2892361,8.30572917 L49.2332341,8.30572917 L49.2332341,7.4234995 L49.1460441,7.4234995 C48.7881376,8.049029 48.1126916,8.42430119 47.3924975,8.39775546 C45.9719742,8.39781746 45.0746032,7.28002232 45.0746032,5.51133433 Z M46.212996,5.51133433 C46.212996,6.69570933 46.7712798,7.40839534 47.7049727,7.40839534 C48.6337922,7.40839534 49.2078373,6.68542907 49.2078373,5.51618304 C49.2078373,4.35239335 48.6277654,3.61912202 47.7049727,3.61912202 C46.7772941,3.61912202 46.2129588,4.33664435 46.2129588,5.51133433 L46.212996,5.51133433 Z" id="Shape"></path>
                                        <path d="M54.8487103,5.51133433 C54.7529602,4.51044773 55.2328914,3.54180547 56.0872221,3.01165348 C56.9415528,2.48150149 58.0225717,2.48150149 58.8769024,3.01165348 C59.7312331,3.54180547 60.2111643,4.51044773 60.1154142,5.51133433 C60.212986,6.51329646 59.7334929,7.48381744 58.8784047,8.01511074 C58.0233165,8.54640404 56.940808,8.54640404 56.0857198,8.01511074 C55.2306316,7.48381744 54.7511385,6.51329646 54.8487103,5.51133433 L54.8487103,5.51133433 Z M58.9818948,5.51133433 C58.9818948,4.30093006 58.4381448,3.59309276 57.483879,3.59309276 C56.5259673,3.59309276 55.9871032,4.30093006 55.9871032,5.51134673 C55.9871032,6.73144841 56.5260045,7.43382937 57.483879,7.43382937 C58.4381572,7.43382937 58.9818948,6.7265873 58.9818948,5.51133433 Z" id="Shape"></path>
                                        <path d="M61.59406,2.72175099 L62.6549107,2.72175099 L62.6549107,3.60881696 L62.7372644,3.60881696 C63.0236419,2.95570181 63.6928235,2.55618486 64.403621,2.61396329 C64.9539891,2.57258404 65.4933108,2.78371764 65.869309,3.18775058 C66.2453072,3.59178353 66.4171789,4.14487073 66.3363963,4.69084821 L66.3363963,8.30567956 L65.234375,8.30567956 L65.234375,4.96758433 C65.234375,4.07022569 64.844432,3.62395833 64.0294147,3.62395833 C63.6561084,3.60657133 63.2938246,3.75307858 63.0375429,4.02507042 C62.7812612,4.29706225 62.6565415,4.66741197 62.6960813,5.0390253 L62.6960813,8.30574157 L61.59406,8.30574157 L61.59406,2.72175099 Z" id="Path"></path>
                                        <path d="M72.5634425,1.33151042 L72.5634425,2.74718502 L73.7732515,2.74718502 L73.7732515,3.67543403 L72.5634425,3.67543403 L72.5634425,6.54675099 C72.5634425,7.13167163 72.8044395,7.38779762 73.3530258,7.38779762 C73.4934717,7.38734814 73.6337766,7.37885623 73.7732515,7.36236359 L73.7732515,8.28030754 C73.5753466,8.3157127 73.3748334,8.33454866 73.1737971,8.33661954 C71.9482515,8.33661954 71.4602059,7.90549355 71.4602059,6.82890625 L71.4602059,3.67538442 L70.5737475,3.67538442 L70.5737475,2.74713542 L71.4602059,2.74713542 L71.4602059,1.33151042 L72.5634425,1.33151042 Z" id="Path"></path>
                                        <path d="M75.2785342,0.541914683 L76.3708705,0.541914683 L76.3708705,3.61910962 L76.4580605,3.61910962 C76.7581942,2.96027847 77.4390875,2.56025241 78.1606895,2.618812 C78.7079323,2.58903433 79.2399533,2.80481611 79.6118418,3.20738325 C79.9837304,3.60995039 80.1567521,4.15737306 80.0837798,4.70054563 L80.0837798,8.30574157 L78.9806548,8.30574157 L78.9806548,4.97240823 C78.9806548,4.08049355 78.5652282,3.62878224 77.7865947,3.62878224 C77.4031981,3.59733838 77.0254701,3.73671994 76.7543928,4.00966456 C76.4833154,4.28260918 76.3465301,4.66128511 76.3806052,5.04445685 L76.3806052,8.30574157 L75.2785838,8.30574157 L75.2785342,0.541914683 Z" id="Path"></path>
                                        <path d="M86.5094866,6.79802827 C86.2004676,7.85132624 85.1811742,8.53187381 84.089881,8.41351687 C83.3452926,8.43317237 82.6297017,8.12454204 82.1329715,7.56951285 C81.6362414,7.01448366 81.4085893,6.26916659 81.5104167,5.531312 C81.4112939,4.79140684 81.638093,4.0448955 82.1320571,3.48517728 C82.6260211,2.92545905 83.3385442,2.60761006 84.0850322,2.61397569 C85.6387649,2.61397569 86.5760913,3.67548363 86.5760913,5.42895585 L86.5760913,5.81349206 L82.6330233,5.81349206 L82.6330233,5.87524802 C82.59813,6.28960831 82.7396462,6.69946398 83.0227688,7.00401872 C83.3058914,7.30857347 83.70435,7.47956836 84.1201513,7.4749504 C84.6593029,7.53967595 85.1841301,7.2722384 85.4486359,6.79799107 L86.5094866,6.79802827 Z M82.6329985,4.9984623 L85.4534474,4.9984623 C85.4815388,4.61949459 85.3482868,4.24628605 85.0865289,3.97080741 C84.8247711,3.69532876 84.4588511,3.54319968 84.0789435,3.55190972 C83.6938889,3.54707206 83.3231994,3.697943 83.0509627,3.97029871 C82.7787261,4.24265443 82.6280173,4.61340989 82.6330233,4.9984623 L82.6329985,4.9984623 Z" id="Shape"></path>
                                    </g>
                                </g>
                            </g>
                        </g>
                    </g>
                </g>
            </g>
        </g>
    </g>
</svg>