<svg xmlns="http://www.w3.org/2000/svg" xmlns:xlink="http://www.w3.org/1999/xlink" width="226" height="197" viewBox="0 0 226 197">
    <defs>
        <path id="kbaz2mjjsa" d="M3.512 0.212L10.674 3.512 7.374 10.674 0.212 7.374z"/>
        <path id="x5bvzup71b" d="M112.42 10.5c21.26 14.59 12.447 43.45 49.858 58.308 49.386 19.59 69.519 45.867 61.134 78.987-1.736 6.873-7.581 21.555-31.233 22.577-.005 0-170.522-.314-169.5.628 0 0-29.14-12.204-21.358-42.804 7.78-30.6 28.74-33.82 32.031-51.94 3.292-18.12-2.15-42.952 12.166-59.403C61.622-1.695 88.256-6.118 112.421 10.5z"/>
        <path id="80ktobgdmc" d="M97.164.934c53.43 0 96.742 2.24 96.742 5.004 0 2.763-43.313 5.003-96.742 5.003h-1.6C42.874 10.895.422 8.672.422 5.937.422 3.174 43.735.934 97.164.934z"/>
        <path id="r32ws3w05e" d="M75.328.024c4.628.016 8.378 3.761 8.399 8.39v140.749c-.013 4.634-3.765 8.388-8.4 8.404H4.83c-2.296-.077-4.122-1.951-4.138-4.248V8.414C.712 3.785 4.462.04 9.09.024h66.237z"/>
        <path id="cy0vf3e9ig" d="M75.576.024c4.553.013 8.243 3.698 8.261 8.252v141.03c-.01 4.558-3.703 8.25-8.261 8.26H9.063c-4.556-.01-8.248-3.7-8.261-8.256V8.276C.822 3.723 4.511.04 9.063.024h66.513z"/>
        <path id="esnse5ungi" d="M23.239.804c.46 0 .834.372.837.833l-.011.135c-.065.398-.41.702-.826.702H1.65c-.46 0-.834-.368-.842-.828l.012-.136c.065-.4.412-.706.83-.706H23.24z"/>
        <path id="ht755lsj2k" d="M1.572.804l.135.011c.397.065.7.407.702.822l-.01.135c-.066.398-.41.702-.827.702l-.135-.011c-.396-.064-.7-.403-.707-.817l.011-.136c.066-.4.413-.706.831-.706z"/>
        <path id="8bskz19aam" d="M2.09 1.711C4.453.041 6.927.171 8.696 1.297 11.13 2.843 12.244 6.282 9.97 9.55c-.13.184-.29.345-.475.476-2.82 1.988-5.798 1.407-7.548-.348s-2.292-4.699-.323-7.5c.128-.18.286-.337.466-.466z"/>
        <path id="6u56v7whzo" d="M0.73 0.217L74.362 0.217 74.362 131.283 0.73 131.283z"/>
        <path id="jnz8ft2g1q" d="M7.196.312C9.63 1.857 10.744 5.296 8.47 8.563c-.13.185-.29.346-.475.476-2.82 1.988-5.793 1.427-7.548-.347 3.432-1.59 5.927-4.689 6.749-8.38z"/>
        <path id="8tmweyzoms" d="M15.438.306c2.879 0 5.213 2.334 5.213 5.213v10.116c0 2.879-2.334 5.212-5.213 5.212H5.322c-2.879 0-5.212-2.333-5.212-5.212V5.52C.11 2.639 2.443.306 5.322.306h10.116z"/>
        <path id="74tpby07tu" d="M15.438.207c2.879 0 5.213 2.334 5.213 5.213v10.116c0 2.879-2.334 5.213-5.213 5.213H5.322c-2.879 0-5.212-2.334-5.212-5.213V5.42C.11 2.54 2.443.207 5.322.207h10.116z"/>
        <path id="qkx47nhtsw" d="M34.275.207c2.879 0 5.212 2.334 5.212 5.213v10.116c0 2.879-2.333 5.213-5.212 5.213H5.876c-2.878 0-5.212-2.334-5.212-5.213V5.42C.664 2.54 2.998.207 5.876.207h28.399z"/>
        <path id="et27p4me5y" d="M15.438.609c2.879 0 5.213 2.333 5.213 5.212v10.116c0 2.88-2.334 5.213-5.213 5.213H5.322C2.443 21.15.11 18.816.11 15.937V5.821C.11 2.942 2.443.609 5.322.609h10.116z"/>
        <path id="g6yrvt437A" d="M34.275.609c2.879 0 5.212 2.333 5.212 5.212v10.116c0 2.88-2.333 5.213-5.212 5.213H5.876c-2.878 0-5.212-2.334-5.212-5.213V5.821C.664 2.942 2.998.609 5.876.609h28.399z"/>
        <path id="8glnwdaqmC" d="M.377.887l17.968 7.652c.565 2.734.798 5.525.695 8.314-.167 4.666.884 7.324.884 7.324S.363 24.101 1.6 15.474C2.836 6.846.377.887.377.887z"/>
        <path id="3dh10utwgE" d="M4.836 0.406L8.092 4.836 3.662 8.092 0.406 3.662z"/>
        <path id="so19326zaF" d="M3.839 0.075L5.912 3.59 2.397 5.662 0.324 2.147z"/>
        <path id="ixz950g0aG" d="M3.927 0.993L11.132 4.555 9.044 10.224 0.426 7.784z"/>
        <path id="brjrglmh3I" d="M3.927 0.993L11.132 4.555 9.044 10.224 0.426 7.784z"/>
        <path id="8buww65ikK" d="M15.025.736l.18.002c1.327.133 1.123 2.036 1.123 2.036 1.57 2.43.542 9.126.542 9.126.742.148.99 1.646.376 2.274-.57.583-3.432 4.184-3.838 4.695l-.048.06c-6.54 8.795-11.105 7.482-11.105 7.482L.728 19.496s.366-7.596 1.503-7.244c.837.262 2.906-.423 3.919-.794.376-.14.705-.382.951-.699 1.646-2.078 5.77-7.871 6.877-9.431.274-.403.742-.628 1.227-.59l-.18-.002z"/>
        <path id="xen4anpseM" d="M15.025.736l.18.002c1.327.133 1.123 2.036 1.123 2.036 1.57 2.43.542 9.126.542 9.126.742.148.99 1.646.376 2.274-.57.583-3.432 4.184-3.838 4.695l-.048.06c-6.54 8.795-11.105 7.482-11.105 7.482L.728 19.496s.366-7.596 1.503-7.244c.837.262 2.906-.423 3.919-.794.376-.14.705-.382.951-.699 1.646-2.078 5.77-7.871 6.877-9.431.274-.403.742-.628 1.227-.59l-.18-.002z"/>
        <path id="ermeufe9bO" d="M15.837.381s1.426.329.542 2.145c-.728 1.508-1.627 2.107-2.083 2.792-.457.685-3.272 3.943-3.272 3.943s-2.735 3.905-5.736 4.97c-1.625.622-3.36.903-5.099.827l-.157-4.185s.324.357 3.92-.166c5.312-.766 9.34-5.051 11.105-7.948 0 0 1.008-1.736.78-2.378z"/>
        <path id="nho9ki85oQ" d="M3.005.111C7.315.335 5.17 5.058 5.96 8.306c.937 3.805 2.587 5.232 2.758 8.56.276 5.323-1.522 6.34-4.375 6.688-1.299.157-2.726-1.17-3.244-2.031-2.411-3.995-.195-11.424.951-14.891.48-1.45.243-4.119.243-5.18.014-.841.456-1.34.713-1.34z"/>
        <path id="6p2v552a4S" d="M2.765 0.141L13.076 4.06 11.274 8.65 0.535 3.846z"/>
        <path id="fxnl6nr9gU" d="M.049.278s15.495 5.755 21.083 10.94C26.72 16.4 30.168 30.24 31.724 33.87c1.845 4.328 5.131 13.417 6.943 13.479 1.812.061 8.927-11.833 14.882-22.558l11.576 4.632S57.24 52.01 48.807 65.226c-3.29 5.151-6.615 8.77-9.512 8.89-14.116.575-15.076-8.181-18.548-13.912-1.58-2.601-4.16-11.161-6.498-19.706l-.332-1.22C11.254 29.47 8.99 20.054 8.99 20.054L.049.278z"/>
        <path id="dr8ug8we6W" d="M7.456.377s2.882 38.324 11.771 47.085c2.183 2.14 3.61 2.306 5.512 2.378 4.385-.143 9.37-3.667 10.568-4.618-3.29 5.15-6.615 8.77-9.512 8.889-14.11.575-15.072-8.2-18.543-13.907C5.672 37.603 3.09 29.043.754 20.498l-.332-1.22L7.456.378z"/>
        <path id="p425ryd2qY" d="M10.43 7.347C16.4-3.33 23.885 1.35 23.885 1.35l7.03.837 15.913-.619 15.081 11.415s2.326 37.163 2.107 43.346c-.09 2.606.366 9.055.923 15.619H3.914C.751 53.638.28 29.747.262 28.779v-.03C3.22 21.418 6.616 14.27 10.43 7.347z"/>
        <path id="wxucs4srlaa" d="M3.481.133c2.364 1.46 2.392 7.172 2.036 10.92-.367 3.866-1.96 7.79-3.748 8.979C.818 19.185.219 4.746.727 3.19 1.107 2.035 2.335-.581 3.481.133z"/>
        <path id="yncn19vbtac" d="M33.452 1.333c4.96 1.208 6.65 4.361 7.287 6.739 1.322 4.951-.29 10.311-1.07 15.31-.743 4.722 1.507 9.692-.914 15.775-2.245 5.64-10.315 9.241-13.792 8.775-8.637-1.156-17.792-8.908-17.027-15.22-2.634 2.712-7.39-1.245-7.657-5.33-.404-6.126 2.174-9.004 5.707-5.375C2.04 15.277 2.814 8.215 9.74 3.677c6.25-4.075 16.613-4.056 23.713-2.344z"/>
        <path id="dtdcji2eqae" d="M2.34.462c1.126.1 1.968 1.076 1.904 2.204C4.179 3.794 3.23 4.667 2.1 4.638.971 4.61.07 3.69.061 2.56.117 1.353 1.134.416 2.34.462z"/>
        <path id="6ud00opn7ag" d="M2.231.134C3.303.08 4.217.904 4.274 1.977c.058 1.072-.762 1.989-1.834 2.051C1.368 4.09.448 3.274.381 2.203c-.057-1.081.77-2.005 1.85-2.07z"/>
        <path id="5r8eqw9j3ai" d="M3.692 1.808c.183.33.245.714.176 1.085-.143.951-1.06 1.336-.038 2.402.866.898.851 1.288-.2 2.092-.161.124-.361.162-.237 0 .366-.475.865-.999.332-1.607-.28-.26-.53-.55-.746-.866-.24-.309-.267-.734-.067-1.07.618-.851.847-1.531.12-2.416C2.645.952.714-.527.452.876H.42c.086-1.907 2.877.252 3.272.932z"/>
        <path id="bcwognbrxak" d="M.548.112l.528.148.456.123c2.96.769 7.245 1.257 10.782.557.205-.038.41-.08.604-.128-1.141 1.997-1.935 3.276-2.663 4.756-.294.587-.67 1.13-1.118 1.612-.78.804-1.973.799-2.682.694-1.126-.163-2.171-.677-2.987-1.47-.587-.584-1.07-1.264-1.427-2.011C1.246 3.088.737 1.629.548.113z"/>
        <path id="jmetpqm7kam" d="M.057.279C3.02 1.092 7.57 1.672 11.3.959 10.64 2.467 9.28 3.18 7.02 3.052 1.227 2.723.46.82.057.279z"/>
        <path id="bi586kix0ao" d="M1.155.55C3.783-.165 6.591.29 8.86 1.796c-.833 1.717-1.746 2.806-3.563 2.63C3.034 4.212 1.521 2.971.49.798.701.689.924.606 1.155.55z"/>
        <path id="do6k3ihv7aq" d="M9.915.92s-3.353 11.566 1.322 21.625c-.179.998-.307 2.004-.385 3.015-.027.418-.006.838.062 1.251.528 3.234 3.876 17.388 21.749 15.352 0 0-8.746 4.561-17.455-1.598 0 0-8.085-5.412-7.253-11.338 0 0-1.678 1.836-4.223.266C1.823 28.321.56 26.336.303 24.11.184 22.81.07 19.354 1.411 17.88c1.341-1.475 2.15-2.303 4.19-.395.73.725 1.37 1.536 1.903 2.416.475.989.39 1.298 1.555 1.664 1.165.366.475-.623.285-1.203-.19-.58-1.198-2.578-1.198-2.578L6.657 3.992l1.075-2.46L9.915.92z"/>
        <path id="csrc2n4vyas" d="M23.954 1.271c7.61 1.042 16.57 5.664 21.198 12.575 2.035 3.044 2.478 5.736-.067 6.772-7.61 3.11-26.03.985-31.784-3.605-1.094 5.87-1.146 11.847 1.47 20.27.313 1.018-1.261.657-2.098.248-1.021-.51-1.854-1.331-2.378-2.345-.551-1.159-1.44-2.123-2.55-2.768 0 0-1.66-1.398-2.834.47-2.211-2.915-9.45-18.072.271-23.974C10.081-1.526 20.107.748 23.954 1.27z"/>
        <path id="snnnfdg9yau" d="M35.434 6.645c5.37 1.308 6.834-1.95 7.324-2.93.49-.98 6.658 15.624-5.37 17.598-12.027 1.973-25.549-8.946-25.549-8.946l-10.753-.88S-.717 3.51 10.346.938c11.062-2.573 19.718 4.4 25.088 5.707z"/>
        <path id="kjra5etfraw" d="M6.709.168l2.497 1.765.632.775-.756 5.517 11.571 37.867c.852 11.99.205 20.48-1.669 24.356h-5.745C10.575 66.61 7.617 58.572 5.6 49.488 4.963 35.891 3.926 22.674 3.284 9.062L.103 3.83 3.608.501l3.1-.333z"/>
        <path id="01f5r47qvay" d="M10.601.37s5.413 3.687 1.099 29.773c-1.293 7.746-1.008 15.672.837 23.305H3.73c-.597-3.355-.974-6.746-1.127-10.15C1.917 27.955.262 10.287.262 10.287L10.602.371z"/>
        <path id="q1323qjvuaA" d="M40.46.858s-11.22 13.678-9.484 26.995c1.432 10.967-5.488 22.92-6.915 29.71-1.217 5.713-2.554 14.321-2.948 16.908H.51c.59-3.353 6.292-35.422 11.604-51.507C17.731 5.96 40.46.858 40.46.858z"/>
        <path id="ffdnwirbmaC" d="M41.785.3c3.07 0 5.56 2.49 5.56 5.56v.476c0 3.07-2.49 5.56-5.56 5.56H6.039C2.97 11.896.484 9.409.484 6.34v-.476C.484 2.797 2.97.31 6.039.31V.3h35.746z"/>
        <path id="t36km5olnaE" d="M42.19.943c2.844 0 5.15 2.306 5.15 5.15 0 2.845-2.306 5.151-5.15 5.151H5.63c-2.845 0-5.15-2.306-5.15-5.15C.48 3.248 2.784.942 5.63.942h36.56z"/>
        <path id="zcrh210dhaG" d="M1.376.151c.441 0 .8.358.8.8v7.295c0 .212-.085.415-.235.565-.15.15-.353.234-.565.234-.44-.003-.796-.359-.799-.799V.95c0-.44.358-.799.8-.799z"/>
        <path id="q5527g3qgaI" d="M1.583.207c.256.157.402.444.38.743v7.296c0 .44-.356.796-.795.8-.441 0-.8-.359-.8-.8V.95C.347.651.493.364.749.207c.256-.156.579-.156.835 0z"/>
        <path id="qdqml28nbaK" d="M.955.151c.441 0 .799.358.799.8v7.295c-.003.44-.359.796-.8.8-.44 0-.798-.359-.798-.8V.95c0-.44.358-.799.799-.799z"/>
        <path id="ff9jkjyd6aM" d="M1.242.151c.441 0 .799.358.799.8v7.295c-.003.44-.359.796-.8.8-.44-.004-.795-.36-.798-.8V.95c0-.44.358-.799.799-.799z"/>
        <path id="sw3tqke3qaO" d="M1.029.151c.441 0 .799.358.799.8v7.295c0 .441-.358.8-.8.8-.44-.004-.795-.36-.798-.8V.95c0-.44.358-.799.799-.799z"/>
        <path id="85ac6p8u2aQ" d="M.816.151c.441 0 .799.358.799.8v7.295c0 .441-.358.8-.8.8-.44-.004-.795-.36-.798-.8V.95c0-.44.358-.799.799-.799z"/>
        <path id="uuodjg1dxaS" d="M2.022.207c.22.135.359.365.38.616v7.423c0 .44-.355.796-.794.8-.442 0-.8-.359-.8-.8V.95C.787.651.933.364 1.189.207c.256-.156.579-.156.834 0z"/>
        <path id="g9w3e0kpjaU" d="M1.395.151c.441 0 .799.358.799.8v7.295c-.003.44-.359.796-.8.8-.44 0-.798-.359-.798-.8V.95c0-.44.357-.799.799-.799z"/>
        <path id="ukewwrg5paW" d="M1.182.151c.441 0 .799.358.799.8v7.295c-.003.44-.36.796-.8.8-.44-.004-.796-.36-.798-.8V.95c0-.44.357-.799.799-.799z"/>
        <path id="zlh2mc9z7aY" d="M.969.151c.441 0 .799.358.799.8v7.295c-.003.44-.36.796-.8.8-.44-.004-.796-.36-.798-.8V.95C.17.51.528.151.969.151z"/>
        <path id="9h66ekvquba" d="M1.256.151c.441 0 .799.358.799.8v7.295c0 .212-.084.415-.234.565-.15.15-.353.234-.565.234-.44-.003-.797-.359-.8-.799V.95c0-.44.359-.799.8-.799z"/>
        <path id="ce8qyg556bc" d="M1.462.207c.22.135.359.365.38.616v7.423c0 .441-.358.8-.8.8-.439-.004-.793-.36-.793-.8V.95C.225.651.372.364.628.207c.256-.156.578-.156.834 0z"/>
        <path id="aryujqcf4be" d="M.835.151c.44 0 .799.358.799.8v7.295c-.003.44-.36.796-.8.8-.44 0-.798-.359-.798-.8V.95c0-.44.357-.799.799-.799z"/>
        <path id="590s0ibwmbg" d="M1.622.151c.44 0 .799.358.799.8v7.295c-.003.44-.36.796-.8.8-.44 0-.798-.359-.798-.8V.95c0-.44.357-.799.799-.799z"/>
        <path id="42kj6sgfpbi" d="M1.423.151c.441 0 .799.358.799.8v7.295c-.003.44-.359.796-.8.8-.44-.004-.796-.36-.798-.8V.95c0-.44.358-.799.799-.799z"/>
        <path id="l2g10tog0bk" d="M1.196.151c.44 0 .799.358.799.8v7.295c0 .441-.358.8-.8.8-.44-.004-.796-.36-.798-.8V.95c0-.44.357-.799.799-.799z"/>
        <path id="0wwodk7owbm" d="M41.37.038c3.201 0 5.796 2.595 5.796 5.796 0 3.2-2.595 5.795-5.795 5.795H6.1C2.9 11.629.304 9.034.304 5.834.305 2.633 2.9.038 6.1.038h35.27z"/>
        <path id="wx0r8r4x3bo" d="M42.015.185c2.845 0 5.151 2.306 5.151 5.151 0 2.845-2.306 5.15-5.15 5.15H5.455c-2.845 0-5.15-2.305-5.15-5.15S2.61.186 5.455.186h36.56z"/>
        <path id="zsqhbaua6bq" d="M1.617.945c.256.157.403.444.38.743v7.296c0 .212-.085.415-.235.565-.15.15-.353.234-.565.234-.439-.003-.794-.36-.794-.8V1.689c-.023-.3.124-.586.38-.743.256-.157.578-.157.834 0z"/>
        <path id="hfolu1t4pbs" d="M.984.89c.442 0 .8.357.8.798v7.296c-.003.44-.36.796-.8.799-.44 0-.799-.358-.799-.8V1.689c0-.441.358-.799.8-.799z"/>
        <path id="3wi1xvpm9bu" d="M1.276.89c.442 0 .8.357.8.798v7.296c-.003.44-.36.796-.8.799-.441 0-.799-.358-.799-.8V1.689c0-.441.358-.799.8-.799z"/>
        <path id="w1h6u1ln8bw" d="M1.063.89c.442 0 .8.357.8.798v7.296c-.003.44-.36.796-.8.799-.44-.003-.796-.359-.799-.8V1.689c0-.441.358-.799.8-.799z"/>
        <path id="kjt7dqirbby" d="M.85.89c.442 0 .8.357.8.798v7.296c0 .212-.085.415-.235.565-.15.15-.353.234-.565.234-.44-.003-.796-.359-.799-.8V1.689c0-.441.358-.799.8-.799z"/>
        <path id="elsey7gx0bA" d="M1.637.89c.442 0 .8.357.8.798v7.296c0 .212-.085.415-.235.565-.15.15-.353.234-.565.234-.44-.003-.796-.359-.799-.8V1.689c0-.441.358-.799.8-.799z"/>
        <path id="oiib36bhvbC" d="M1.429.89c.441 0 .8.357.8.798v7.296c-.004.44-.36.796-.8.799-.441 0-.799-.358-.799-.8V1.689c0-.441.358-.799.799-.799z"/>
        <path id="z4et58xkkbE" d="M1.216.89c.441 0 .8.357.8.798v7.296c-.003.44-.36.796-.8.799-.441 0-.799-.358-.799-.8V1.689c0-.441.358-.799.799-.799z"/>
        <path id="nlm46d9elbG" d="M.984.89c.441 0 .799.357.799.798v7.296c-.002.44-.359.796-.799.799-.44-.003-.796-.359-.799-.8V1.689c0-.441.358-.799.799-.799z"/>
        <path id="q3r4z3fuebI" d="M1.29.89c.441 0 .8.357.8.798v7.296c0 .212-.085.415-.235.565-.15.15-.353.234-.565.234-.44-.003-.796-.359-.799-.8V1.689c0-.441.358-.799.799-.799z"/>
        <path id="2xwkx7nh9bK" d="M1.077.89c.441 0 .8.357.8.798v7.296c0 .212-.085.415-.235.565-.15.15-.353.234-.565.234-.44-.003-.796-.359-.799-.8V1.689c0-.441.358-.799.8-.799z"/>
        <path id="wucrj4ylwbM" d="M.869.89c.441 0 .799.357.799.798v7.296c-.003.44-.359.796-.8.799-.44 0-.798-.358-.798-.8V1.689C.07 1.247.428.89.869.89z"/>
        <path id="emh1v65uubO" d="M1.656.89c.441 0 .799.357.799.798v7.296c-.003.44-.359.796-.8.799-.44 0-.798-.358-.798-.8V1.689c0-.441.358-.799.799-.799z"/>
        <path id="849l6e7u7bQ" d="M1.443.89c.441 0 .799.357.799.798v7.296c-.003.44-.359.796-.799.799-.44-.003-.797-.359-.799-.8V1.689c0-.441.358-.799.799-.799z"/>
        <path id="wxm3urezxbS" d="M1.23.89c.441 0 .799.357.799.798v7.296c0 .441-.358.799-.799.799-.44-.003-.796-.359-.799-.8V1.689c0-.441.358-.799.799-.799z"/>
        <path id="u6btk3mngbU" d="M1.017.89c.441 0 .799.357.799.798v7.296c0 .212-.084.415-.234.565-.15.15-.353.234-.565.234-.44-.003-.796-.359-.799-.8V1.689c0-.441.358-.799.799-.799z"/>
        <path id="z0ix3xy3jbW" d="M5.703.585v.01h35.746c1.478-.006 2.897.576 3.945 1.618 1.048 1.042 1.637 2.459 1.639 3.937v.475c0 3.068-2.488 5.555-5.556 5.555H5.703c-3.07 0-5.56-2.489-5.56-5.56v-.475c0-3.07 2.49-5.56 5.56-5.56z"/>
        <path id="773bn6d8sbY" d="M41.858.237c2.845 0 5.15 2.306 5.15 5.15 0 2.845-2.305 5.151-5.15 5.151H5.298c-2.844 0-5.15-2.306-5.15-5.15 0-2.845 2.306-5.151 5.15-5.151h36.56z"/>
        <path id="su1ypvlg6ca" d="M1.045.44c.441 0 .799.359.799.8V8.52c.004.215-.079.422-.229.574-.15.153-.356.24-.57.24C.833 9.335.63 9.25.48 9.1c-.15-.15-.234-.354-.234-.565V1.24c0-.441.358-.8.799-.8z"/>
        <path id="6u4pvpi4ucc" d="M.832.44c.441 0 .799.359.799.8V8.52c.004.215-.079.422-.229.574-.15.153-.356.24-.57.24-.212 0-.415-.085-.565-.234-.15-.15-.234-.354-.234-.565V1.24c0-.441.358-.8.799-.8z"/>
        <path id="03k2nhdcyce" d="M1.619.44c.441 0 .799.359.799.8V8.52c.004.215-.079.422-.229.574-.15.153-.356.24-.57.24-.215 0-.42-.087-.57-.24-.15-.152-.233-.36-.23-.574V1.24c0-.441.359-.8.8-.8z"/>
        <path id="pem1cymk2cg" d="M1.387.44c.441 0 .799.359.799.8V8.52c.004.215-.079.422-.23.574-.15.153-.355.24-.57.24-.211 0-.414-.085-.564-.234-.15-.15-.234-.354-.234-.565V1.24c0-.441.358-.8.799-.8z"/>
        <path id="ybieyvp6kci" d="M1.193.44c.441 0 .799.359.799.8V8.52c.004.215-.079.422-.229.574-.15.153-.356.24-.57.24-.212 0-.415-.085-.565-.234-.15-.15-.234-.354-.234-.565V1.24c0-.441.358-.8.799-.8z"/>
        <path id="3amsew3kjck" d="M.985.44c.44 0 .799.359.799.8V8.52c.004.215-.079.422-.23.574-.15.153-.355.24-.57.24C.774 9.335.57 9.25.42 9.1c-.15-.15-.234-.354-.234-.565V1.24c0-.441.357-.8.799-.8z"/>
        <path id="rmixgtcodcm" d="M.795.44c.442 0 .8.359.8.8V8.52c.004.219-.082.43-.238.583-.155.154-.367.237-.585.23-.438-.012-.784-.375-.776-.813V1.24c0-.441.358-.8.8-.8z"/>
        <path id="h6ckhs0mlco" d="M1.059.44c.441 0 .799.359.799.8V8.52c.004.215-.079.422-.23.574-.15.153-.355.24-.57.24-.211 0-.414-.085-.564-.234-.15-.15-.234-.354-.234-.565V1.24c0-.441.357-.8.799-.8z"/>
        <path id="m8e3ym5hqcq" d="M.846.44c.441 0 .799.359.799.8V8.52c.004.215-.079.422-.23.574-.15.153-.355.24-.57.24-.211 0-.414-.085-.564-.234-.15-.15-.234-.354-.234-.565V1.24c0-.441.357-.8.799-.8z"/>
        <path id="qfrxxm4j5cs" d="M1.633.44c.441 0 .799.359.799.8V8.52c.004.215-.079.422-.23.574-.15.153-.355.24-.57.24-.211 0-.414-.085-.564-.234-.15-.15-.234-.354-.234-.565V1.24c0-.441.357-.8.799-.8z"/>
        <path id="twujmzdd3cu" d="M1.84.497c.255.157.402.444.379.743V8.52c.004.214-.078.42-.227.573-.15.153-.354.24-.567.24-.215 0-.42-.086-.57-.239-.15-.152-.233-.36-.23-.574V1.24C.602.94.75.654 1.006.497c.256-.157.578-.157.834 0z"/>
        <path id="rguehgulacw" d="M1.212.44c.44 0 .799.359.799.8V8.52c.003.215-.08.422-.23.574-.15.153-.355.24-.57.24C1 9.335.797 9.25.647 9.1c-.15-.15-.234-.354-.234-.565V1.24c0-.441.358-.8.8-.8z"/>
        <path id="ea9e7eyn0cy" d="M.999.44c.44 0 .799.359.799.8V8.52c.003.215-.08.422-.23.574-.15.153-.355.24-.57.24-.211 0-.415-.085-.565-.234C.283 8.95.2 8.747.2 8.536V1.24c0-.441.357-.8.799-.8z"/>
        <path id="amipvrp39cA" d="M.795.44c.441 0 .799.359.799.8V8.52c.004.216-.08.425-.232.578-.153.153-.36.238-.576.236-.213-.003-.416-.09-.564-.243-.148-.153-.23-.358-.226-.57V1.24c0-.441.358-.8.8-.8z"/>
        <path id="0p3h7eis7cC" d="M1.073.44c.44 0 .799.359.799.8V8.52c.003.215-.079.422-.23.574-.15.153-.355.24-.57.24-.211 0-.415-.085-.564-.234-.15-.15-.234-.354-.234-.565V1.24c0-.441.357-.8.799-.8z"/>
        <path id="o7evuunq2cE" d="M1.28.497c.219.134.358.364.378.616V8.52c.005.214-.077.42-.227.573-.149.153-.353.24-.567.24-.212 0-.415-.084-.565-.233-.15-.15-.234-.354-.234-.565V1.24C.042.94.19.654.445.497c.256-.157.578-.157.834 0z"/>
        <path id="15zdtpyqzcG" d="M42.035.066c3.2 0 5.795 2.595 5.795 5.796 0 3.2-2.595 5.795-5.795 5.795H6.765c-3.201 0-5.796-2.595-5.796-5.795C.969 2.66 3.564.066 6.764.066h35.27z"/>
        <path id="k0tdit4m1cI" d="M42.679.208c2.845 0 5.15 2.306 5.15 5.151 0 2.845-2.305 5.15-5.15 5.15H6.119C3.276 10.51.97 8.205.97 5.36S3.275.21 6.119.21h36.56z"/>
        <path id="i48f0rrg7cK" d="M.866.917c.441 0 .799.358.799.799v7.296c-.003.44-.359.796-.799.799-.441 0-.799-.358-.799-.8V1.717c0-.441.358-.799.799-.799z"/>
        <path id="q7pyv7j6qcM" d="M1.653.917c.441 0 .799.358.799.799v7.296c-.003.44-.359.796-.799.799-.44-.003-.796-.36-.799-.8V1.717c0-.441.358-.799.799-.799z"/>
        <path id="qzbsudm13cO" d="M1.454.917c.442 0 .8.358.8.799v7.296c0 .214-.087.42-.24.57-.153.15-.36.233-.574.229-.435-.01-.782-.365-.785-.8V1.717c0-.441.358-.799.8-.799z"/>
        <path id="8to94apvkcQ" d="M1.227.917c.441 0 .799.358.799.799v7.296c0 .212-.084.415-.234.565-.15.15-.353.234-.565.234-.44-.003-.796-.36-.799-.8V1.717c0-.441.358-.799.799-.799z"/>
        <path id="7h1hq5o8dcS" d="M1.434.973c.219.134.358.364.379.616v7.423c0 .44-.355.796-.794.799-.441 0-.8-.358-.8-.8V1.717c-.022-.3.124-.586.38-.743.256-.157.579-.157.835 0z"/>
        <path id="q6aa5gtghcU" d="M.806.917c.441 0 .799.358.799.799v7.296c-.003.44-.359.796-.8.799-.44 0-.798-.358-.798-.8V1.717c0-.441.358-.799.799-.799z"/>
        <path id="js9grgy6vcW" d="M1.093.917c.441 0 .799.358.799.799v7.296c-.003.44-.359.796-.8.799-.44-.003-.796-.36-.798-.8V1.717c0-.441.357-.799.799-.799z"/>
        <path id="ajn0donlncY" d="M.899.917c.441 0 .799.358.799.799v7.296c0 .441-.358.799-.8.799-.44-.003-.795-.36-.798-.8V1.717c0-.441.358-.799.799-.799z"/>
        <path id="rvkfnwiynda" d="M1.667.917c.441 0 .799.358.799.799v7.296c0 .441-.358.799-.8.799-.44-.003-.796-.36-.798-.8V1.717c0-.441.358-.799.799-.799z"/>
        <path id="s36wjux8zdc" d="M1.869.973c.22.134.358.364.379.616v7.423c0 .437-.352.794-.79.799-.212.001-.417-.083-.567-.233-.151-.15-.236-.354-.236-.566V1.716c-.023-.3.123-.586.38-.743.255-.157.578-.157.834 0z"/>
        <path id="fkz2jyn9rde" d="M1.246.917c.44 0 .799.358.799.799v7.296c-.003.44-.36.796-.8.799-.44 0-.798-.358-.798-.8V1.717c0-.441.357-.799.799-.799z"/>
        <path id="2wxopriqudg" d="M1.033.917c.44 0 .799.358.799.799v7.296c-.003.44-.36.796-.8.799-.44-.003-.796-.36-.798-.8V1.717c0-.441.357-.799.799-.799z"/>
        <path id="ipek1yqhvdi" d="M.82.917c.44 0 .799.358.799.799v7.296c-.003.44-.36.796-.8.799-.44-.003-.796-.36-.798-.8V1.717c0-.441.357-.799.799-.799z"/>
        <path id="boah9jc0hdk" d="M1.107.917c.441 0 .799.358.799.799v7.296c0 .212-.085.415-.234.565-.15.15-.353.234-.565.234-.44-.003-.797-.36-.8-.8V1.717c0-.441.358-.799.8-.799z"/>
        <path id="txpa8oswvdm" d="M1.318.973c.22.134.359.364.38.616v7.423c0 .441-.358.799-.8.799-.439-.003-.794-.36-.794-.8V1.717c-.023-.3.124-.586.38-.743.256-.157.578-.157.834 0z"/>
        <path id="egmqrg5e7do" d="M1.686.917c.44 0 .798.358.798.799v7.296c-.002.44-.358.796-.798.799-.442 0-.8-.358-.8-.8V1.717c0-.441.358-.799.8-.799z"/>
        <path id="g7ovvjzsddq" d="M1.146 16.588C3.756 5.526 14.841-1.325 25.902 1.286c11.062 2.61 17.913 13.695 15.302 24.756-2.611 11.062-13.695 17.913-24.756 15.302C5.386 38.734-1.465 27.649 1.146 16.588z"/>
        <path id="j630o9nbpds" d="M19.682.177c10.816 0 19.585 8.796 19.585 19.647 0 10.85-8.769 19.647-19.585 19.647C8.865 39.47.097 30.674.097 19.824.097 8.973 8.865.177 19.682.177z"/>
        <path id="1su8xjcxodu" d="M15.606.252c8.573 0 15.523 6.95 15.523 15.524 0 8.573-6.95 15.524-15.523 15.524C7.032 31.3.082 24.35.082 15.776.082 7.203 7.032.252 15.606.252z"/>
        <path id="zv4r4d6ipdw" d="M11.784-.005l-.01 1.346H7.334c.851.674 1.393 1.664 1.503 2.744h2.939v1.351h-2.91c-.267 2.744-2.45 4.495-5.898 4.604 2.102 2.183 4.39 4.927 6.658 7.705H7.057C4.959 15.215 2.99 12.87.46 10.173V8.508h1.48c2.91 0 4.47-1.212 4.66-3.072H.437v-1.35h6.059c-.376-1.56-1.808-2.34-4.148-2.34H.446v-1.75h11.338z"/>
        <path id="zkcjy7yvbdy" d="M5.804.114c.284 1.197.798 2.328 1.512 3.33 1.898 2.824 5.408 5.859 9.96 6.42 1.19.218 2.42-.007 3.457-.633 2.221-1.508 2.37-5.192 2.378-5.982v-.467c.547.319 2.335 1.09 2.81 1.48 2.631 2.154 3.111 5.73 3.668 8.337.666 3.134.085 6.116-1.85 5.593-1.936-.524-3.486-4.894-5.707-6.335-2.222-1.441-3.491-.804-3.491-.804-2.954 2.373-3.624 6.592-5.16 8.39-.714.836-1.599 1.15-3.025.508C6.803 18.32 2.57 12.256 1.039 9.935.676 9.38.663 8.667 1.005 8.1L5.804.114z"/>
        <path id="ll96db89bdA" d="M5.776.114c.284 1.197.797 2.328 1.512 3.33L4.487 7.647s-1.128 2.192.832 4.57 6.116 6.235 8.033 7.167v.057c-.714.837-1.598 1.151-3.025.51C6.774 18.32 2.541 12.255 1.01 9.934.647 9.38.634 8.667.977 8.1L5.776.114z"/>
        <path id="v7835033ddC" d="M5.004 0.825L9.165 7.06 8.138 7.065 8.243 25.49 2.103 25.523 1.998 7.098 0.914 7.103z"/>
        <path id="ieq28m9ovdE" d="M5.004 0.825L9.165 7.06 8.138 7.065 8.243 25.49 2.103 25.523 1.998 7.098 0.914 7.103z"/>
        <path id="3va8rwxqddG" d="M2.502 0.327L4.737 3.68 4.186 3.68 4.243 13.582 0.942 13.601 0.89 3.699 0.305 3.704z"/>
        <path id="mwtlvjarfdI" d="M2.502 0.327L4.737 3.68 4.186 3.68 4.243 13.582 0.942 13.601 0.89 3.699 0.305 3.704z"/>
        <path id="6er7v9lkydK" d="M4.327 0.362L8.094 6.008 7.167 6.012 7.262 22.706 1.697 22.734 1.607 6.045 0.622 6.05z"/>
        <path id="5e8brbab2dM" d="M4.327 0.362L8.094 6.008 7.167 6.012 7.262 22.706 1.697 22.734 1.607 6.045 0.622 6.05z"/>
        <path id="rglodkqe2dO" d="M4.319 0.065L8.271 5.987 7.301 5.996 7.396 23.493 1.565 23.527 1.465 6.025 0.438 6.034z"/>
        <path id="j1yo1ga7pdQ" d="M4.319 0.065L8.271 5.987 7.301 5.996 7.396 23.493 1.565 23.527 1.465 6.025 0.438 6.034z"/>
    </defs>
    <g fill="none" fill-rule="evenodd">
        <g>
            <g>
                <g>
                    <g>
                        <g>
                            <g transform="translate(-977 -1317) translate(162 1260) translate(752) translate(0 34) translate(63 23) translate(198 30)"/>
                            <g transform="translate(-977 -1317) translate(162 1260) translate(752) translate(0 34) translate(63 23) translate(0 8.5)"/>
                            <g transform="translate(-977 -1317) translate(162 1260) translate(752) translate(0 34) translate(63 23) translate(0 174)">
                                <mask id="lqf9jpzzmd" fill="#fff">
                                    <use xlink:href="#80ktobgdmc"/>
                                </mask>
                                <path fill="#ACE3FB" fill-opacity=".5" d="M-7.078 -6.566L201.406 -6.566 201.406 18.441 -7.078 18.441z" mask="url(#lqf9jpzzmd)"/>
                            </g>
                            <g transform="translate(-977 -1317) translate(162 1260) translate(752) translate(0 34) translate(63 23) translate(105 22)">
                                <mask id="jjsc3x7m0f" fill="#fff">
                                    <use xlink:href="#r32ws3w05e"/>
                                </mask>
                                <path fill="#0089ED" d="M-6.808 -7.476L91.227 -7.476 91.227 165.067 -6.808 165.067z" mask="url(#jjsc3x7m0f)"/>
                            </g>
                            <g transform="translate(-977 -1317) translate(162 1260) translate(752) translate(0 34) translate(63 23) translate(100.5 22)">
                                <mask id="rsdoaqexxh" fill="#fff">
                                    <use xlink:href="#cy0vf3e9ig"/>
                                </mask>
                                <path fill="#94D3FF" d="M-6.698 -7.476L91.337 -7.476 91.337 165.067 -6.698 165.067z" mask="url(#rsdoaqexxh)"/>
                            </g>
                            <g transform="translate(-977 -1317) translate(162 1260) translate(752) translate(0 34) translate(63 23) translate(129 25.5)">
                                <mask id="f0ddtxngrj" fill="#fff">
                                    <use xlink:href="#esnse5ungi"/>
                                </mask>
                                <path fill="#0089ED" fill-opacity=".4" d="M-6.691 -6.696L31.576 -6.696 31.576 9.974 -6.691 9.974z" mask="url(#f0ddtxngrj)"/>
                            </g>
                            <g transform="translate(-977 -1317) translate(162 1260) translate(752) translate(0 34) translate(63 23) translate(154.5 25.5)">
                                <mask id="iemlas2o7l" fill="#fff">
                                    <use xlink:href="#ht755lsj2k"/>
                                </mask>
                                <path fill="#0089ED" fill-opacity=".4" d="M-6.77 -6.696L9.909 -6.696 9.909 9.974 -6.77 9.974z" mask="url(#iemlas2o7l)"/>
                            </g>
                            <g transform="translate(-977 -1317) translate(162 1260) translate(752) translate(0 34) translate(63 23) translate(136 165)">
                                <mask id="bc5mzvc50n" fill="#fff">
                                    <use xlink:href="#8bskz19aam"/>
                                </mask>
                                <path fill="#0089ED" fill-opacity=".4" d="M-7.128 -7.047L18.708 -7.047 18.708 18.776 -7.128 18.776z" mask="url(#bc5mzvc50n)"/>
                            </g>
                            <g transform="translate(-977 -1317) translate(162 1260) translate(752) translate(0 34) translate(63 23) translate(105 31.5)">
                                <mask id="fihgrj6bqp" fill="#fff">
                                    <use xlink:href="#6u56v7whzo"/>
                                </mask>
                                <path fill="#FFF" d="M81.862 138.783L-6.77 138.783 -6.77 -7.283 81.862 -7.283z" mask="url(#fihgrj6bqp)"/>
                            </g>
                            <g transform="translate(-977 -1317) translate(162 1260) translate(752) translate(0 34) translate(63 23) translate(137.5 166)">
                                <mask id="4ty20n8lnr" fill="#fff">
                                    <use xlink:href="#jnz8ft2g1q"/>
                                </mask>
                                <path fill="#0089ED" fill-opacity=".37" d="M-7.053 -7.188L17.208 -7.188 17.208 17.796 -7.053 17.796z" mask="url(#4ty20n8lnr)"/>
                            </g>
                            <g transform="translate(-977 -1317) translate(162 1260) translate(752) translate(0 34) translate(63 23) translate(110.5 47.5)">
                                <mask id="0b8gg2nlht" fill="#fff">
                                    <use xlink:href="#8tmweyzoms"/>
                                </mask>
                                <path fill="#D3EDFF" fill-opacity=".86" d="M-7.39 -7.194L28.151 -7.194 28.151 28.347 -7.39 28.347z" mask="url(#0b8gg2nlht)"/>
                            </g>
                            <g transform="translate(-977 -1317) translate(162 1260) translate(752) translate(0 34) translate(63 23) translate(110.5 73.5)">
                                <mask id="s7qfm20fqv" fill="#fff">
                                    <use xlink:href="#74tpby07tu"/>
                                </mask>
                                <path fill="#D3EDFF" fill-opacity=".86" d="M-7.39 -7.293L28.151 -7.293 28.151 28.249 -7.39 28.249z" mask="url(#s7qfm20fqv)"/>
                            </g>
                            <g transform="translate(-977 -1317) translate(162 1260) translate(752) translate(0 34) translate(63 23) translate(135 73.5)">
                                <mask id="d0vsm18y5x" fill="#fff">
                                    <use xlink:href="#qkx47nhtsw"/>
                                </mask>
                                <path fill="#D3EDFF" fill-opacity=".47" d="M-6.836 -7.293L46.987 -7.293 46.987 28.249 -6.836 28.249z" mask="url(#d0vsm18y5x)"/>
                            </g>
                            <g transform="translate(-977 -1317) translate(162 1260) translate(752) translate(0 34) translate(63 23) translate(110.5 99)">
                                <mask id="miexiu51tz" fill="#fff">
                                    <use xlink:href="#et27p4me5y"/>
                                </mask>
                                <path fill="#D3EDFF" fill-opacity=".86" d="M-7.39 -6.891L28.151 -6.891 28.151 28.65 -7.39 28.65z" mask="url(#miexiu51tz)"/>
                            </g>
                            <g transform="translate(-977 -1317) translate(162 1260) translate(752) translate(0 34) translate(63 23) translate(135 99)">
                                <mask id="1fpnyjwr3B" fill="#fff">
                                    <use xlink:href="#g6yrvt437A"/>
                                </mask>
                                <path fill="#D3EDFF" fill-opacity=".47" d="M-6.836 -6.891L46.987 -6.891 46.987 28.65 -6.836 28.65z" mask="url(#1fpnyjwr3B)"/>
                            </g>
                            <g transform="translate(-977 -1317) translate(162 1260) translate(752) translate(0 34) translate(63 23) translate(59.5 85.5)">
                                <mask id="hbemie78uD" fill="#fff">
                                    <use xlink:href="#8glnwdaqmC"/>
                                </mask>
                                <path fill="#FFB797" d="M-7.123 -6.613L27.424 -6.613 27.424 31.677 -7.123 31.677z" mask="url(#hbemie78uD)"/>
                            </g>
                            <g transform="translate(-977 -1317) translate(162 1260) translate(752) translate(0 34) translate(63 23) translate(166.5 4.5)"/>
                            <g transform="translate(-977 -1317) translate(162 1260) translate(752) translate(0 34) translate(63 23) translate(193.5)"/>
                            <g transform="translate(-977 -1317) translate(162 1260) translate(752) translate(0 34) translate(63 23) translate(135 123)">
                                <mask id="ewhyn71xzH" fill="#fff">
                                    <use xlink:href="#ixz950g0aG"/>
                                </mask>
                                <path fill="#FFB797" d="M-7.074 -6.507L18.632 -6.507 18.632 17.724 -7.074 17.724z" mask="url(#ewhyn71xzH)"/>
                            </g>
                            <g transform="translate(-977 -1317) translate(162 1260) translate(752) translate(0 34) translate(63 23) translate(135 123)">
                                <mask id="i4oqli320J" fill="#fff">
                                    <use xlink:href="#brjrglmh3I"/>
                                </mask>
                                <path fill="#E28152" fill-opacity=".34" d="M-7.074 -6.507L18.632 -6.507 18.632 17.724 -7.074 17.724z" mask="url(#i4oqli320J)"/>
                            </g>
                            <g transform="translate(-977 -1317) translate(162 1260) translate(752) translate(0 34) translate(63 23) translate(141 102)">
                                <mask id="3odd0makbL" fill="#fff">
                                    <use xlink:href="#8buww65ikK"/>
                                </mask>
                                <path fill="#FFB797" d="M-6.772 -6.766L25.092 -6.766 25.092 33.98 -6.772 33.98z" mask="url(#3odd0makbL)"/>
                            </g>
                            <g transform="translate(-977 -1317) translate(162 1260) translate(752) translate(0 34) translate(63 23) translate(141 102)">
                                <mask id="ayl3x9387N" fill="#fff">
                                    <use xlink:href="#xen4anpseM"/>
                                </mask>
                                <path fill="#E28152" fill-opacity=".34" d="M-6.772 -6.766L25.092 -6.766 25.092 33.98 -6.772 33.98z" mask="url(#ayl3x9387N)"/>
                            </g>
                            <g transform="translate(-977 -1317) translate(162 1260) translate(752) translate(0 34) translate(63 23) translate(142 113.5)">
                                <mask id="tbtjwx3inP" fill="#fff">
                                    <use xlink:href="#ermeufe9bO"/>
                                </mask>
                                <path fill="#FFB797" d="M-7.468 -7.119L24.168 -7.119 24.168 22.571 -7.468 22.571z" mask="url(#tbtjwx3inP)"/>
                            </g>
                            <g transform="translate(-977 -1317) translate(162 1260) translate(752) translate(0 34) translate(63 23) translate(138 105)">
                                <mask id="7snuwiutoR" fill="#fff">
                                    <use xlink:href="#nho9ki85oQ"/>
                                </mask>
                                <path fill="#FFB797" d="M-7.482 -7.389L16.245 -7.389 16.245 31.066 -7.482 31.066z" mask="url(#7snuwiutoR)"/>
                            </g>
                            <g transform="translate(-977 -1317) translate(162 1260) translate(752) translate(0 34) translate(63 23) translate(132 127)">
                                <mask id="33lljgfm8T" fill="#fff">
                                    <use xlink:href="#6p2v552a4S"/>
                                </mask>
                                <path fill="#FFF" d="M-6.965 -7.359L20.576 -7.359 20.576 16.15 -6.965 16.15z" mask="url(#33lljgfm8T)"/>
                            </g>
                            <g transform="translate(-977 -1317) translate(162 1260) translate(752) translate(0 34) translate(63 23) translate(79 104.5)">
                                <mask id="qrgphq6cuV" fill="#fff">
                                    <use xlink:href="#fxnl6nr9gU"/>
                                </mask>
                                <path fill="#00BCF1" d="M-7.451 -7.222L72.625 -7.222 72.625 81.642 -7.451 81.642z" mask="url(#qrgphq6cuV)"/>
                            </g>
                            <path fill="#00BCF1" d="M120.531 161.984L135.574 161.984 135.574 177.031 120.531 177.031z" transform="translate(-977 -1317) translate(162 1260) translate(752) translate(0 34) translate(63 23)"/>
                            <g transform="translate(-977 -1317) translate(162 1260) translate(752) translate(0 34) translate(63 23) translate(92.5 124.5)">
                                <mask id="qlyj5ippkX" fill="#fff">
                                    <use xlink:href="#dr8ug8we6W"/>
                                </mask>
                                <path fill="#2461AB" fill-opacity=".4" d="M-7.078 -7.123L42.807 -7.123 42.807 61.638 -7.078 61.638z" mask="url(#qlyj5ippkX)"/>
                            </g>
                            <g transform="translate(-977 -1317) translate(162 1260) translate(752) translate(0 34) translate(63 23) translate(37.5 107.5)">
                                <mask id="clqqwzg6jZ" fill="#fff">
                                    <use xlink:href="#p425ryd2qY"/>
                                </mask>
                                <path fill="#00BCF1" d="M-7.238 -7.172L72.439 -7.172 72.439 79.448 -7.238 79.448z" mask="url(#clqqwzg6jZ)"/>
                            </g>
                            <g transform="translate(-977 -1317) translate(162 1260) translate(752) translate(0 34) translate(63 23) translate(84 57)">
                                <mask id="nkpbl862nab" fill="#fff">
                                    <use xlink:href="#wxucs4srlaa"/>
                                </mask>
                                <path fill="#223368" d="M-6.958 -7.489L13.183 -7.489 13.183 27.532 -6.958 27.532z" mask="url(#nkpbl862nab)"/>
                            </g>
                            <g transform="translate(-977 -1317) translate(162 1260) translate(752) translate(0 34) translate(63 23) translate(46.5 52)">
                                <mask id="23a8ipcwfad" fill="#fff">
                                    <use xlink:href="#yncn19vbtac"/>
                                </mask>
                                <path fill="#FFB797" d="M-7.263 -7.256L48.742 -7.256 48.742 55.473 -7.263 55.473z" mask="url(#23a8ipcwfad)"/>
                            </g>
                            <g transform="translate(-977 -1317) translate(162 1260) translate(752) translate(0 34) translate(63 23) translate(64.5 71.5)">
                                <mask id="tz14snpzvaf" fill="#fff">
                                    <use xlink:href="#dtdcji2eqae"/>
                                </mask>
                                <path fill="#223368" d="M-7.438 -7.04L11.747 -7.04 11.747 12.139 -7.438 12.139z" mask="url(#tz14snpzvaf)"/>
                            </g>
                            <g transform="translate(-977 -1317) translate(162 1260) translate(752) translate(0 34) translate(63 23) translate(79.5 71.5)">
                                <mask id="8fbajam6wah" fill="#fff">
                                    <use xlink:href="#6ud00opn7ag"/>
                                </mask>
                                <path fill="#223368" d="M-7.122 -7.369L11.777 -7.369 11.777 11.531 -7.122 11.531z" mask="url(#8fbajam6wah)"/>
                            </g>
                            <g transform="translate(-977 -1317) translate(162 1260) translate(752) translate(0 34) translate(63 23) translate(48 75)">
                                <mask id="px9piqtjiaj" fill="#fff">
                                    <use xlink:href="#5r8eqw9j3ai"/>
                                </mask>
                                <path fill="#E28152" d="M-7.08 -7.392L11.951 -7.392 11.951 14.995 -7.08 14.995z" mask="url(#px9piqtjiaj)"/>
                            </g>
                            <g transform="translate(-977 -1317) translate(162 1260) translate(752) translate(0 34) translate(63 23) translate(67.5 85)">
                                <mask id="g4w3fc6k0al" fill="#fff">
                                    <use xlink:href="#bcwognbrxak"/>
                                </mask>
                                <path fill="#223368" d="M-6.952 -7.388L20.418 -7.388 20.418 15.423 -6.952 15.423z" mask="url(#g4w3fc6k0al)"/>
                            </g>
                            <g transform="translate(-977 -1317) translate(162 1260) translate(752) translate(0 34) translate(63 23) translate(68.5 85)">
                                <mask id="s7gv6ekxyan" fill="#fff">
                                    <use xlink:href="#jmetpqm7kam"/>
                                </mask>
                                <path fill="#FFF" d="M-7.443 -7.221L18.8 -7.221 18.8 10.566 -7.443 10.566z" mask="url(#s7gv6ekxyan)"/>
                            </g>
                            <g transform="translate(-977 -1317) translate(162 1260) translate(752) translate(0 34) translate(63 23) translate(69 88.5)">
                                <mask id="hupf1jba4ap" fill="#fff">
                                    <use xlink:href="#bi586kix0ao"/>
                                </mask>
                                <path fill="#BD4E4C" d="M-7.011 -7.281L16.36 -7.281 16.36 11.945 -7.011 11.945z" mask="url(#hupf1jba4ap)"/>
                            </g>
                            <g stroke="#223368" stroke-width=".911">
                                <path d="M7.305 1.626C9.055.632 13.212-.243 17.768.827c.636.156 1.098.707 1.141 1.36.138 1.86.248 5.708-.894 7.924-1.194 2.297-7.81 3.805-10.044 0-.845-1.63-1.37-3.405-1.546-5.232-.057-.518-.129-1.189-.124-1.564.02-.7.4-1.338 1.004-1.689zM23.504 1.013c1.522-.666 5.883-1.57 9.645.333.392.194.635.599.623 1.036-.048 1.57-.286 5.846-1.793 7.658-1.508 1.812-7.096 2.24-8.746-1.575-.756-1.839-1.104-3.82-1.018-5.807.092-.744.588-1.377 1.289-1.645zM.018 7.429L6.61 4.594M19.11 3.01s1.901-.842 3.276.086" transform="translate(-977 -1317) translate(162 1260) translate(752) translate(0 34) translate(63 23) translate(53.5 68.5)"/>
                            </g>
                            <g transform="translate(-977 -1317) translate(162 1260) translate(752) translate(0 34) translate(63 23) translate(46.5 55.5)">
                                <mask id="xf87zd92rar" fill="#fff">
                                    <use xlink:href="#do6k3ihv7aq"/>
                                </mask>
                                <path fill="#E28152" fill-opacity=".34" d="M-7.264 -6.581L40.163 -6.581 40.163 51.289 -7.264 51.289z" mask="url(#xf87zd92rar)"/>
                            </g>
                            <g transform="translate(-977 -1317) translate(162 1260) translate(752) translate(0 34) translate(63 23) translate(43 40.5)">
                                <mask id="k6b8il21xat" fill="#fff">
                                    <use xlink:href="#csrc2n4vyas"/>
                                </mask>
                                <path fill="#223368" d="M-7.259 -6.802L54.339 -6.802 54.339 45.443 -7.259 45.443z" mask="url(#k6b8il21xat)"/>
                            </g>
                            <g transform="translate(-977 -1317) translate(162 1260) translate(752) translate(0 34) translate(63 23) translate(48 40.5)">
                                <mask id="h39ispgm0av" fill="#fff">
                                    <use xlink:href="#snnnfdg9yau"/>
                                </mask>
                                <path fill="#223368" d="M-6.523 -7.127L52.272 -7.127 52.272 29.051 -6.523 29.051z" mask="url(#h39ispgm0av)"/>
                            </g>
                            <g transform="translate(-977 -1317) translate(162 1260) translate(752) translate(0 34) translate(63 23) translate(70 109)">
                                <mask id="y6y0bqhuzax" fill="#fff">
                                    <use xlink:href="#kjra5etfraw"/>
                                </mask>
                                <path fill="#203468" d="M-7.397 -7.332L28.523 -7.332 28.523 77.948 -7.397 77.948z" mask="url(#y6y0bqhuzax)"/>
                            </g>
                            <g transform="translate(-977 -1317) translate(162 1260) translate(752) translate(0 34) translate(63 23) translate(37.5 126)">
                                <mask id="1epcidjjgaz" fill="#fff">
                                    <use xlink:href="#01f5r47qvay"/>
                                </mask>
                                <path fill="#2461AB" fill-opacity=".4" d="M-7.238 -7.129L20.869 -7.129 20.869 60.948 -7.238 60.948z" mask="url(#1epcidjjgaz)"/>
                            </g>
                            <g transform="translate(-977 -1317) translate(162 1260) translate(752) translate(0 34) translate(63 23) translate(18 105)">
                                <mask id="ngv5dpeppaB" fill="#fff">
                                    <use xlink:href="#q1323qjvuaA"/>
                                </mask>
                                <path fill="#00BCF1" d="M-6.99 -6.642L47.96 -6.642 47.96 81.971 -6.99 81.971z" mask="url(#ngv5dpeppaB)"/>
                            </g>
                            <g transform="translate(-977 -1317) translate(162 1260) translate(752) translate(0 34) translate(63 23) translate(150 171)">
                                <mask id="8bd6do2tmaD" fill="#fff">
                                    <use xlink:href="#ffdnwirbmaC"/>
                                </mask>
                                <path fill="#FAA635" d="M-7.016 -7.199L54.845 -7.199 54.845 19.396 -7.016 19.396z" mask="url(#8bd6do2tmaD)"/>
                            </g>
                            <g transform="translate(-977 -1317) translate(162 1260) translate(752) translate(0 34) translate(63 23) translate(150 171)">
                                <mask id="yzenx6orcaF" fill="#fff">
                                    <use xlink:href="#t36km5olnaE"/>
                                </mask>
                                <path fill="#FFC600" d="M-7.021 -6.557L54.84 -6.557 54.84 18.744 -7.021 18.744z" mask="url(#yzenx6orcaF)"/>
                            </g>
                            <g>
                                <g transform="translate(-977 -1317) translate(162 1260) translate(752) translate(0 34) translate(63 23) translate(151.5 172.5)">
                                    <mask id="thjf39elpaH" fill="#fff">
                                        <use xlink:href="#zcrh210dhaG"/>
                                    </mask>
                                    <path fill="#FFDD50" fill-opacity=".66" d="M-6.923 -7.349L9.675 -7.349 9.675 16.545 -6.923 16.545z" mask="url(#thjf39elpaH)"/>
                                </g>
                                <g transform="translate(-977 -1317) translate(162 1260) translate(752) translate(0 34) translate(63 23) translate(151.5 172.5) translate(3)">
                                    <mask id="lyv9tqqykaJ" fill="#fff">
                                        <use xlink:href="#q5527g3qgaI"/>
                                    </mask>
                                    <path fill="#FFDD50" fill-opacity=".66" d="M-7.134 -7.41L9.465 -7.41 9.465 16.545 -7.134 16.545z" mask="url(#lyv9tqqykaJ)"/>
                                </g>
                                <g transform="translate(-977 -1317) translate(162 1260) translate(752) translate(0 34) translate(63 23) translate(151.5 172.5) translate(6)">
                                    <mask id="a8bqa21exaL" fill="#fff">
                                        <use xlink:href="#qdqml28nbaK"/>
                                    </mask>
                                    <path fill="#FFDD50" fill-opacity=".66" d="M-7.344 -7.349L9.254 -7.349 9.254 16.545 -7.344 16.545z" mask="url(#a8bqa21exaL)"/>
                                </g>
                                <g transform="translate(-977 -1317) translate(162 1260) translate(752) translate(0 34) translate(63 23) translate(151.5 172.5) translate(8.5)">
                                    <mask id="apv4pmfodaN" fill="#fff">
                                        <use xlink:href="#ff9jkjyd6aM"/>
                                    </mask>
                                    <path fill="#FFDD50" fill-opacity=".66" d="M-7.057 -7.349L9.541 -7.349 9.541 16.545 -7.057 16.545z" mask="url(#apv4pmfodaN)"/>
                                </g>
                                <g transform="translate(-977 -1317) translate(162 1260) translate(752) translate(0 34) translate(63 23) translate(151.5 172.5) translate(11.5)">
                                    <mask id="kn49nhy7uaP" fill="#fff">
                                        <use xlink:href="#sw3tqke3qaO"/>
                                    </mask>
                                    <path fill="#FFDD50" fill-opacity=".66" d="M-7.27 -7.349L9.328 -7.349 9.328 16.545 -7.27 16.545z" mask="url(#kn49nhy7uaP)"/>
                                </g>
                                <g transform="translate(-977 -1317) translate(162 1260) translate(752) translate(0 34) translate(63 23) translate(151.5 172.5) translate(14.5)">
                                    <mask id="sg1gqu3f8aR" fill="#fff">
                                        <use xlink:href="#85ac6p8u2aQ"/>
                                    </mask>
                                    <path fill="#FFDD50" fill-opacity=".66" d="M-7.483 -7.349L9.115 -7.349 9.115 16.545 -7.483 16.545z" mask="url(#sg1gqu3f8aR)"/>
                                </g>
                                <g transform="translate(-977 -1317) translate(162 1260) translate(752) translate(0 34) translate(63 23) translate(151.5 172.5) translate(16.5)">
                                    <mask id="a8dsqvjasaT" fill="#fff">
                                        <use xlink:href="#uuodjg1dxaS"/>
                                    </mask>
                                    <path fill="#FFDD50" fill-opacity=".66" d="M-6.694 -7.41L9.904 -7.41 9.904 16.545 -6.694 16.545z" mask="url(#a8dsqvjasaT)"/>
                                </g>
                                <g transform="translate(-977 -1317) translate(162 1260) translate(752) translate(0 34) translate(63 23) translate(151.5 172.5) translate(19.5)">
                                    <mask id="oku9ihrewaV" fill="#fff">
                                        <use xlink:href="#g9w3e0kpjaU"/>
                                    </mask>
                                    <path fill="#FFDD50" fill-opacity=".66" d="M-6.904 -7.349L9.694 -7.349 9.694 16.545 -6.904 16.545z" mask="url(#oku9ihrewaV)"/>
                                </g>
                                <g transform="translate(-977 -1317) translate(162 1260) translate(752) translate(0 34) translate(63 23) translate(151.5 172.5) translate(22.5)">
                                    <mask id="dji07m2staX" fill="#fff">
                                        <use xlink:href="#ukewwrg5paW"/>
                                    </mask>
                                    <path fill="#FFDD50" fill-opacity=".66" d="M-7.117 -7.349L9.481 -7.349 9.481 16.545 -7.117 16.545z" mask="url(#dji07m2staX)"/>
                                </g>
                                <g transform="translate(-977 -1317) translate(162 1260) translate(752) translate(0 34) translate(63 23) translate(151.5 172.5) translate(25.5)">
                                    <mask id="7x9lwtp2baZ" fill="#fff">
                                        <use xlink:href="#zlh2mc9z7aY"/>
                                    </mask>
                                    <path fill="#FFDD50" fill-opacity=".66" d="M-7.33 -7.349L9.268 -7.349 9.268 16.545 -7.33 16.545z" mask="url(#7x9lwtp2baZ)"/>
                                </g>
                                <g transform="translate(-977 -1317) translate(162 1260) translate(752) translate(0 34) translate(63 23) translate(151.5 172.5) translate(28)">
                                    <mask id="99ijydkb8bb" fill="#fff">
                                        <use xlink:href="#9h66ekvquba"/>
                                    </mask>
                                    <path fill="#FFDD50" fill-opacity=".66" d="M-7.043 -7.349L9.555 -7.349 9.555 16.545 -7.043 16.545z" mask="url(#99ijydkb8bb)"/>
                                </g>
                                <g transform="translate(-977 -1317) translate(162 1260) translate(752) translate(0 34) translate(63 23) translate(151.5 172.5) translate(31)">
                                    <mask id="67jglin7xbd" fill="#fff">
                                        <use xlink:href="#ce8qyg556bc"/>
                                    </mask>
                                    <path fill="#FFDD50" fill-opacity=".66" d="M-7.254 -7.41L9.344 -7.41 9.344 16.545 -7.254 16.545z" mask="url(#67jglin7xbd)"/>
                                </g>
                                <g transform="translate(-977 -1317) translate(162 1260) translate(752) translate(0 34) translate(63 23) translate(151.5 172.5) translate(34)">
                                    <mask id="zo4dk5enkbf" fill="#fff">
                                        <use xlink:href="#aryujqcf4be"/>
                                    </mask>
                                    <path fill="#FFDD50" fill-opacity=".66" d="M-7.464 -7.349L9.134 -7.349 9.134 16.545 -7.464 16.545z" mask="url(#zo4dk5enkbf)"/>
                                </g>
                                <g transform="translate(-977 -1317) translate(162 1260) translate(752) translate(0 34) translate(63 23) translate(151.5 172.5) translate(36)">
                                    <mask id="k8c5asaccbh" fill="#fff">
                                        <use xlink:href="#590s0ibwmbg"/>
                                    </mask>
                                    <path fill="#FFDD50" fill-opacity=".66" d="M-6.677 -7.349L9.921 -7.349 9.921 16.545 -6.677 16.545z" mask="url(#k8c5asaccbh)"/>
                                </g>
                                <g transform="translate(-977 -1317) translate(162 1260) translate(752) translate(0 34) translate(63 23) translate(151.5 172.5) translate(39)">
                                    <mask id="dr1utjlnhbj" fill="#fff">
                                        <use xlink:href="#42kj6sgfpbi"/>
                                    </mask>
                                    <path fill="#FFDD50" fill-opacity=".66" d="M-6.876 -7.349L9.722 -7.349 9.722 16.545 -6.876 16.545z" mask="url(#dr1utjlnhbj)"/>
                                </g>
                                <g transform="translate(-977 -1317) translate(162 1260) translate(752) translate(0 34) translate(63 23) translate(151.5 172.5) translate(42)">
                                    <mask id="splihdsefbl" fill="#fff">
                                        <use xlink:href="#l2g10tog0bk"/>
                                    </mask>
                                    <path fill="#FFDD50" fill-opacity=".66" d="M-7.103 -7.349L9.495 -7.349 9.495 16.545 -7.103 16.545z" mask="url(#splihdsefbl)"/>
                                </g>
                            </g>
                            <g transform="translate(-977 -1317) translate(162 1260) translate(752) translate(0 34) translate(63 23) translate(156 160)">
                                <mask id="qu96hreyjbn" fill="#fff">
                                    <use xlink:href="#0wwodk7owbm"/>
                                </mask>
                                <path fill="#FAA635" d="M-7.195 -7.462L54.666 -7.462 54.666 19.129 -7.195 19.129z" mask="url(#qu96hreyjbn)"/>
                            </g>
                            <g transform="translate(-977 -1317) translate(162 1260) translate(752) translate(0 34) translate(63 23) translate(156 160.5)">
                                <mask id="qlkzpj3o3bp" fill="#fff">
                                    <use xlink:href="#wx0r8r4x3bo"/>
                                </mask>
                                <path fill="#FFC600" d="M-7.195 -7.315L54.666 -7.315 54.666 17.987 -7.195 17.987z" mask="url(#qlkzpj3o3bp)"/>
                            </g>
                            <g>
                                <g transform="translate(-977 -1317) translate(162 1260) translate(752) translate(0 34) translate(63 23) translate(157.5 160.5)">
                                    <mask id="6fe7q06qsbr" fill="#fff">
                                        <use xlink:href="#zsqhbaua6bq"/>
                                    </mask>
                                    <path fill="#FFDD50" fill-opacity=".66" d="M-7.099 -6.672L9.499 -6.672 9.499 17.283 -7.099 17.283z" mask="url(#6fe7q06qsbr)"/>
                                </g>
                                <g transform="translate(-977 -1317) translate(162 1260) translate(752) translate(0 34) translate(63 23) translate(157.5 160.5) translate(3)">
                                    <mask id="peg6njtqwbt" fill="#fff">
                                        <use xlink:href="#hfolu1t4pbs"/>
                                    </mask>
                                    <path fill="#FFDD50" fill-opacity=".66" d="M-7.315 -6.611L9.284 -6.611 9.284 17.283 -7.315 17.283z" mask="url(#peg6njtqwbt)"/>
                                </g>
                                <g transform="translate(-977 -1317) translate(162 1260) translate(752) translate(0 34) translate(63 23) translate(157.5 160.5) translate(5.5)">
                                    <mask id="5u6ty1osxbv" fill="#fff">
                                        <use xlink:href="#3wi1xvpm9bu"/>
                                    </mask>
                                    <path fill="#FFDD50" fill-opacity=".66" d="M-7.023 -6.611L9.575 -6.611 9.575 17.283 -7.023 17.283z" mask="url(#5u6ty1osxbv)"/>
                                </g>
                                <g transform="translate(-977 -1317) translate(162 1260) translate(752) translate(0 34) translate(63 23) translate(157.5 160.5) translate(8.5)">
                                    <mask id="l18mycb5vbx" fill="#fff">
                                        <use xlink:href="#w1h6u1ln8bw"/>
                                    </mask>
                                    <path fill="#FFDD50" fill-opacity=".66" d="M-7.236 -6.611L9.362 -6.611 9.362 17.283 -7.236 17.283z" mask="url(#l18mycb5vbx)"/>
                                </g>
                                <g transform="translate(-977 -1317) translate(162 1260) translate(752) translate(0 34) translate(63 23) translate(157.5 160.5) translate(11.5)">
                                    <mask id="0kdseaxjhbz" fill="#fff">
                                        <use xlink:href="#kjt7dqirbby"/>
                                    </mask>
                                    <path fill="#FFDD50" fill-opacity=".66" d="M-7.449 -6.611L9.149 -6.611 9.149 17.283 -7.449 17.283z" mask="url(#0kdseaxjhbz)"/>
                                </g>
                                <g transform="translate(-977 -1317) translate(162 1260) translate(752) translate(0 34) translate(63 23) translate(157.5 160.5) translate(13.5)">
                                    <mask id="a9vi393mgbB" fill="#fff">
                                        <use xlink:href="#elsey7gx0bA"/>
                                    </mask>
                                    <path fill="#FFDD50" fill-opacity=".66" d="M-6.662 -6.611L9.936 -6.611 9.936 17.283 -6.662 17.283z" mask="url(#a9vi393mgbB)"/>
                                </g>
                                <g transform="translate(-977 -1317) translate(162 1260) translate(752) translate(0 34) translate(63 23) translate(157.5 160.5) translate(16.5)">
                                    <mask id="t391114ghbD" fill="#fff">
                                        <use xlink:href="#oiib36bhvbC"/>
                                    </mask>
                                    <path fill="#FFDD50" fill-opacity=".66" d="M-6.87 -6.611L9.728 -6.611 9.728 17.283 -6.87 17.283z" mask="url(#t391114ghbD)"/>
                                </g>
                                <g transform="translate(-977 -1317) translate(162 1260) translate(752) translate(0 34) translate(63 23) translate(157.5 160.5) translate(19.5)">
                                    <mask id="0s8qx8b5nbF" fill="#fff">
                                        <use xlink:href="#z4et58xkkbE"/>
                                    </mask>
                                    <path fill="#FFDD50" fill-opacity=".66" d="M-7.083 -6.611L9.515 -6.611 9.515 17.283 -7.083 17.283z" mask="url(#0s8qx8b5nbF)"/>
                                </g>
                                <g transform="translate(-977 -1317) translate(162 1260) translate(752) translate(0 34) translate(63 23) translate(157.5 160.5) translate(22.5)">
                                    <mask id="kmuqw0d7sbH" fill="#fff">
                                        <use xlink:href="#nlm46d9elbG"/>
                                    </mask>
                                    <path fill="#FFDD50" fill-opacity=".66" d="M-7.315 -6.611L9.283 -6.611 9.283 17.283 -7.315 17.283z" mask="url(#kmuqw0d7sbH)"/>
                                </g>
                                <g transform="translate(-977 -1317) translate(162 1260) translate(752) translate(0 34) translate(63 23) translate(157.5 160.5) translate(25)">
                                    <mask id="85wkmejnlbJ" fill="#fff">
                                        <use xlink:href="#q3r4z3fuebI"/>
                                    </mask>
                                    <path fill="#FFDD50" fill-opacity=".66" d="M-7.009 -6.611L9.589 -6.611 9.589 17.283 -7.009 17.283z" mask="url(#85wkmejnlbJ)"/>
                                </g>
                                <g transform="translate(-977 -1317) translate(162 1260) translate(752) translate(0 34) translate(63 23) translate(157.5 160.5) translate(28)">
                                    <mask id="ql7i3e72kbL" fill="#fff">
                                        <use xlink:href="#2xwkx7nh9bK"/>
                                    </mask>
                                    <path fill="#FFDD50" fill-opacity=".66" d="M-7.222 -6.611L9.376 -6.611 9.376 17.283 -7.222 17.283z" mask="url(#ql7i3e72kbL)"/>
                                </g>
                                <g transform="translate(-977 -1317) translate(162 1260) translate(752) translate(0 34) translate(63 23) translate(157.5 160.5) translate(31)">
                                    <mask id="1o87b7jmdbN" fill="#fff">
                                        <use xlink:href="#wucrj4ylwbM"/>
                                    </mask>
                                    <path fill="#FFDD50" fill-opacity=".66" d="M-7.43 -6.611L9.168 -6.611 9.168 17.283 -7.43 17.283z" mask="url(#1o87b7jmdbN)"/>
                                </g>
                                <g transform="translate(-977 -1317) translate(162 1260) translate(752) translate(0 34) translate(63 23) translate(157.5 160.5) translate(33)">
                                    <mask id="k4yt2yhm4bP" fill="#fff">
                                        <use xlink:href="#emh1v65uubO"/>
                                    </mask>
                                    <path fill="#FFDD50" fill-opacity=".66" d="M-6.643 -6.611L9.955 -6.611 9.955 17.283 -6.643 17.283z" mask="url(#k4yt2yhm4bP)"/>
                                </g>
                                <g transform="translate(-977 -1317) translate(162 1260) translate(752) translate(0 34) translate(63 23) translate(157.5 160.5) translate(36)">
                                    <mask id="l789uyhy9bR" fill="#fff">
                                        <use xlink:href="#849l6e7u7bQ"/>
                                    </mask>
                                    <path fill="#FFDD50" fill-opacity=".66" d="M-6.856 -6.611L9.742 -6.611 9.742 17.283 -6.856 17.283z" mask="url(#l789uyhy9bR)"/>
                                </g>
                                <g transform="translate(-977 -1317) translate(162 1260) translate(752) translate(0 34) translate(63 23) translate(157.5 160.5) translate(39)">
                                    <mask id="161he2hkhbT" fill="#fff">
                                        <use xlink:href="#wxm3urezxbS"/>
                                    </mask>
                                    <path fill="#FFDD50" fill-opacity=".66" d="M-7.069 -6.611L9.529 -6.611 9.529 17.283 -7.069 17.283z" mask="url(#161he2hkhbT)"/>
                                </g>
                                <g transform="translate(-977 -1317) translate(162 1260) translate(752) translate(0 34) translate(63 23) translate(157.5 160.5) translate(42)">
                                    <mask id="zw61tpiz0bV" fill="#fff">
                                        <use xlink:href="#u6btk3mngbU"/>
                                    </mask>
                                    <path fill="#FFDD50" fill-opacity=".66" d="M-7.282 -6.611L9.316 -6.611 9.316 17.283 -7.282 17.283z" mask="url(#zw61tpiz0bV)"/>
                                </g>
                            </g>
                            <g transform="translate(-977 -1317) translate(162 1260) translate(752) translate(0 34) translate(63 23) translate(152.5 148.5)">
                                <mask id="bdwhfmi51bX" fill="#fff">
                                    <use xlink:href="#z0ix3xy3jbW"/>
                                </mask>
                                <path fill="#FAA635" d="M-7.357 -6.915L54.533 -6.915 54.533 19.68 -7.357 19.68z" mask="url(#bdwhfmi51bX)"/>
                            </g>
                            <g transform="translate(-977 -1317) translate(162 1260) translate(752) translate(0 34) translate(63 23) translate(152.5 149.5)">
                                <mask id="6c3tw2z4zbZ" fill="#fff">
                                    <use xlink:href="#773bn6d8sbY"/>
                                </mask>
                                <path fill="#FFC600" d="M-7.352 -7.263L54.509 -7.263 54.509 18.038 -7.352 18.038z" mask="url(#6c3tw2z4zbZ)"/>
                            </g>
                            <g>
                                <g transform="translate(-977 -1317) translate(162 1260) translate(752) translate(0 34) translate(63 23) translate(154 150)">
                                    <mask id="gyac6yib5cb" fill="#fff">
                                        <use xlink:href="#su1ypvlg6ca"/>
                                    </mask>
                                    <path fill="#FFDD50" fill-opacity=".66" d="M-7.254 -7.059L9.344 -7.059 9.344 16.835 -7.254 16.835z" mask="url(#gyac6yib5cb)"/>
                                </g>
                                <g transform="translate(-977 -1317) translate(162 1260) translate(752) translate(0 34) translate(63 23) translate(154 150) translate(3)">
                                    <mask id="g4m2y0k9dcd" fill="#fff">
                                        <use xlink:href="#6u4pvpi4ucc"/>
                                    </mask>
                                    <path fill="#FFDD50" fill-opacity=".66" d="M-7.467 -7.059L9.131 -7.059 9.131 16.835 -7.467 16.835z" mask="url(#g4m2y0k9dcd)"/>
                                </g>
                                <g transform="translate(-977 -1317) translate(162 1260) translate(752) translate(0 34) translate(63 23) translate(154 150) translate(5)">
                                    <mask id="jzjak9r0dcf" fill="#fff">
                                        <use xlink:href="#03k2nhdcyce"/>
                                    </mask>
                                    <path fill="#FFDD50" fill-opacity=".66" d="M-6.68 -7.059L9.918 -7.059 9.918 16.835 -6.68 16.835z" mask="url(#jzjak9r0dcf)"/>
                                </g>
                                <g transform="translate(-977 -1317) translate(162 1260) translate(752) translate(0 34) translate(63 23) translate(154 150) translate(8)">
                                    <mask id="oj4wf6bd8ch" fill="#fff">
                                        <use xlink:href="#pem1cymk2cg"/>
                                    </mask>
                                    <path fill="#FFDD50" fill-opacity=".66" d="M-6.912 -7.059L9.686 -7.059 9.686 16.835 -6.912 16.835z" mask="url(#oj4wf6bd8ch)"/>
                                </g>
                                <g transform="translate(-977 -1317) translate(162 1260) translate(752) translate(0 34) translate(63 23) translate(154 150) translate(11)">
                                    <mask id="whb0r6tu4cj" fill="#fff">
                                        <use xlink:href="#ybieyvp6kci"/>
                                    </mask>
                                    <path fill="#FFDD50" fill-opacity=".66" d="M-7.106 -7.059L9.492 -7.059 9.492 16.835 -7.106 16.835z" mask="url(#whb0r6tu4cj)"/>
                                </g>
                                <g transform="translate(-977 -1317) translate(162 1260) translate(752) translate(0 34) translate(63 23) translate(154 150) translate(14)">
                                    <mask id="dm7jo06hwcl" fill="#fff">
                                        <use xlink:href="#3amsew3kjck"/>
                                    </mask>
                                    <path fill="#FFDD50" fill-opacity=".66" d="M-7.314 -7.059L9.284 -7.059 9.284 16.835 -7.314 16.835z" mask="url(#dm7jo06hwcl)"/>
                                </g>
                                <g transform="translate(-977 -1317) translate(162 1260) translate(752) translate(0 34) translate(63 23) translate(154 150) translate(17)">
                                    <mask id="kqcisumz5cn" fill="#fff">
                                        <use xlink:href="#rmixgtcodcm"/>
                                    </mask>
                                    <path fill="#FFDD50" fill-opacity=".66" d="M-7.504 -7.059L9.095 -7.059 9.095 16.835 -7.504 16.835z" mask="url(#kqcisumz5cn)"/>
                                </g>
                                <g transform="translate(-977 -1317) translate(162 1260) translate(752) translate(0 34) translate(63 23) translate(154 150) translate(19.5)">
                                    <mask id="w0ohbajvncp" fill="#fff">
                                        <use xlink:href="#h6ckhs0mlco"/>
                                    </mask>
                                    <path fill="#FFDD50" fill-opacity=".66" d="M-7.24 -7.059L9.358 -7.059 9.358 16.835 -7.24 16.835z" mask="url(#w0ohbajvncp)"/>
                                </g>
                                <g transform="translate(-977 -1317) translate(162 1260) translate(752) translate(0 34) translate(63 23) translate(154 150) translate(22.5)">
                                    <mask id="cebftorcqcr" fill="#fff">
                                        <use xlink:href="#m8e3ym5hqcq"/>
                                    </mask>
                                    <path fill="#FFDD50" fill-opacity=".66" d="M-7.453 -7.059L9.145 -7.059 9.145 16.835 -7.453 16.835z" mask="url(#cebftorcqcr)"/>
                                </g>
                                <g transform="translate(-977 -1317) translate(162 1260) translate(752) translate(0 34) translate(63 23) translate(154 150) translate(24.5)">
                                    <mask id="jtfgpzus5ct" fill="#fff">
                                        <use xlink:href="#qfrxxm4j5cs"/>
                                    </mask>
                                    <path fill="#FFDD50" fill-opacity=".66" d="M-6.666 -7.059L9.932 -7.059 9.932 16.835 -6.666 16.835z" mask="url(#jtfgpzus5ct)"/>
                                </g>
                                <g transform="translate(-977 -1317) translate(162 1260) translate(752) translate(0 34) translate(63 23) translate(154 150) translate(27.5)">
                                    <mask id="a0a6nrswqcv" fill="#fff">
                                        <use xlink:href="#twujmzdd3cu"/>
                                    </mask>
                                    <path fill="#FFDD50" fill-opacity=".66" d="M-6.877 -7.121L9.721 -7.121 9.721 16.835 -6.877 16.835z" mask="url(#a0a6nrswqcv)"/>
                                </g>
                                <g transform="translate(-977 -1317) translate(162 1260) translate(752) translate(0 34) translate(63 23) translate(154 150) translate(30.5)">
                                    <mask id="v6sy3ronkcx" fill="#fff">
                                        <use xlink:href="#rguehgulacw"/>
                                    </mask>
                                    <path fill="#FFDD50" fill-opacity=".66" d="M-7.088 -7.059L9.511 -7.059 9.511 16.835 -7.088 16.835z" mask="url(#v6sy3ronkcx)"/>
                                </g>
                                <g transform="translate(-977 -1317) translate(162 1260) translate(752) translate(0 34) translate(63 23) translate(154 150) translate(33.5)">
                                    <mask id="lx9j49q64cz" fill="#fff">
                                        <use xlink:href="#ea9e7eyn0cy"/>
                                    </mask>
                                    <path fill="#FFDD50" fill-opacity=".66" d="M-7.301 -7.059L9.298 -7.059 9.298 16.835 -7.301 16.835z" mask="url(#lx9j49q64cz)"/>
                                </g>
                                <g transform="translate(-977 -1317) translate(162 1260) translate(752) translate(0 34) translate(63 23) translate(154 150) translate(36.5)">
                                    <mask id="tutybd9yucB" fill="#fff">
                                        <use xlink:href="#amipvrp39cA"/>
                                    </mask>
                                    <path fill="#FFDD50" fill-opacity=".66" d="M-7.504 -7.059L9.094 -7.059 9.094 16.835 -7.504 16.835z" mask="url(#tutybd9yucB)"/>
                                </g>
                                <g transform="translate(-977 -1317) translate(162 1260) translate(752) translate(0 34) translate(63 23) translate(154 150) translate(39)">
                                    <mask id="s0r9qxnimcD" fill="#fff">
                                        <use xlink:href="#0p3h7eis7cC"/>
                                    </mask>
                                    <path fill="#FFDD50" fill-opacity=".66" d="M-7.226 -7.059L9.372 -7.059 9.372 16.835 -7.226 16.835z" mask="url(#s0r9qxnimcD)"/>
                                </g>
                                <g transform="translate(-977 -1317) translate(162 1260) translate(752) translate(0 34) translate(63 23) translate(154 150) translate(42)">
                                    <mask id="xhqcr8z0wcF" fill="#fff">
                                        <use xlink:href="#o7evuunq2cE"/>
                                    </mask>
                                    <path fill="#FFDD50" fill-opacity=".66" d="M-7.437 -7.121L9.161 -7.121 9.161 16.835 -7.437 16.835z" mask="url(#xhqcr8z0wcF)"/>
                                </g>
                            </g>
                            <g transform="translate(-977 -1317) translate(162 1260) translate(752) translate(0 34) translate(63 23) translate(150 137.5)">
                                <mask id="x1zsnq2gpcH" fill="#fff">
                                    <use xlink:href="#15zdtpyqzcG"/>
                                </mask>
                                <path fill="#FAA635" d="M-6.531 -7.434L55.33 -7.434 55.33 19.157 -6.531 19.157z" mask="url(#x1zsnq2gpcH)"/>
                            </g>
                            <g transform="translate(-977 -1317) translate(162 1260) translate(752) translate(0 34) translate(63 23) translate(150 138)">
                                <mask id="5j2z98ni3cJ" fill="#fff">
                                    <use xlink:href="#k0tdit4m1cI"/>
                                </mask>
                                <path fill="#FFC600" d="M-6.531 -7.292L55.33 -7.292 55.33 18.01 -6.531 18.01z" mask="url(#5j2z98ni3cJ)"/>
                            </g>
                            <g>
                                <g transform="translate(-977 -1317) translate(162 1260) translate(752) translate(0 34) translate(63 23) translate(152.5 138)">
                                    <mask id="851pogxzncL" fill="#fff">
                                        <use xlink:href="#i48f0rrg7cK"/>
                                    </mask>
                                    <path fill="#FFDD50" fill-opacity=".66" d="M-7.433 -6.583L9.165 -6.583 9.165 17.311 -7.433 17.311z" mask="url(#851pogxzncL)"/>
                                </g>
                                <g transform="translate(-977 -1317) translate(162 1260) translate(752) translate(0 34) translate(63 23) translate(152.5 138) translate(2)">
                                    <mask id="54ptqka08cN" fill="#fff">
                                        <use xlink:href="#q7pyv7j6qcM"/>
                                    </mask>
                                    <path fill="#FFDD50" fill-opacity=".66" d="M-6.646 -6.583L9.952 -6.583 9.952 17.311 -6.646 17.311z" mask="url(#54ptqka08cN)"/>
                                </g>
                                <g transform="translate(-977 -1317) translate(162 1260) translate(752) translate(0 34) translate(63 23) translate(152.5 138) translate(5)">
                                    <mask id="bvq56jtoycP" fill="#fff">
                                        <use xlink:href="#qzbsudm13cO"/>
                                    </mask>
                                    <path fill="#FFDD50" fill-opacity=".66" d="M-6.845 -6.583L9.753 -6.583 9.753 17.311 -6.845 17.311z" mask="url(#bvq56jtoycP)"/>
                                </g>
                                <g transform="translate(-977 -1317) translate(162 1260) translate(752) translate(0 34) translate(63 23) translate(152.5 138) translate(8)">
                                    <mask id="9tdgz2j6fcR" fill="#fff">
                                        <use xlink:href="#8to94apvkcQ"/>
                                    </mask>
                                    <path fill="#FFDD50" fill-opacity=".66" d="M-7.072 -6.583L9.526 -6.583 9.526 17.311 -7.072 17.311z" mask="url(#9tdgz2j6fcR)"/>
                                </g>
                                <g transform="translate(-977 -1317) translate(162 1260) translate(752) translate(0 34) translate(63 23) translate(152.5 138) translate(11)">
                                    <mask id="dp27qhiqmcT" fill="#fff">
                                        <use xlink:href="#7h1hq5o8dcS"/>
                                    </mask>
                                    <path fill="#FFDD50" fill-opacity=".66" d="M-7.283 -6.645L9.315 -6.645 9.315 17.311 -7.283 17.311z" mask="url(#dp27qhiqmcT)"/>
                                </g>
                                <g transform="translate(-977 -1317) translate(162 1260) translate(752) translate(0 34) translate(63 23) translate(152.5 138) translate(14)">
                                    <mask id="30issh8d2cV" fill="#fff">
                                        <use xlink:href="#q6aa5gtghcU"/>
                                    </mask>
                                    <path fill="#FFDD50" fill-opacity=".66" d="M-7.493 -6.583L9.105 -6.583 9.105 17.311 -7.493 17.311z" mask="url(#30issh8d2cV)"/>
                                </g>
                                <g transform="translate(-977 -1317) translate(162 1260) translate(752) translate(0 34) translate(63 23) translate(152.5 138) translate(16.5)">
                                    <mask id="ixz6w21tecX" fill="#fff">
                                        <use xlink:href="#js9grgy6vcW"/>
                                    </mask>
                                    <path fill="#FFDD50" fill-opacity=".66" d="M-7.206 -6.583L9.392 -6.583 9.392 17.311 -7.206 17.311z" mask="url(#ixz6w21tecX)"/>
                                </g>
                                <g transform="translate(-977 -1317) translate(162 1260) translate(752) translate(0 34) translate(63 23) translate(152.5 138) translate(19.5)">
                                    <mask id="36yntcwducZ" fill="#fff">
                                        <use xlink:href="#ajn0donlncY"/>
                                    </mask>
                                    <path fill="#FFDD50" fill-opacity=".66" d="M-7.4 -6.583L9.198 -6.583 9.198 17.311 -7.4 17.311z" mask="url(#36yntcwducZ)"/>
                                </g>
                                <g transform="translate(-977 -1317) translate(162 1260) translate(752) translate(0 34) translate(63 23) translate(152.5 138) translate(21.5)">
                                    <mask id="bafo75gzpdb" fill="#fff">
                                        <use xlink:href="#rvkfnwiynda"/>
                                    </mask>
                                    <path fill="#FFDD50" fill-opacity=".66" d="M-6.632 -6.583L9.966 -6.583 9.966 17.311 -6.632 17.311z" mask="url(#bafo75gzpdb)"/>
                                </g>
                                <g transform="translate(-977 -1317) translate(162 1260) translate(752) translate(0 34) translate(63 23) translate(152.5 138) translate(24.5)">
                                    <mask id="4jlmhe9wcdd" fill="#fff">
                                        <use xlink:href="#s36wjux8zdc"/>
                                    </mask>
                                    <path fill="#FFDD50" fill-opacity=".66" d="M-6.848 -6.645L9.75 -6.645 9.75 17.311 -6.848 17.311z" mask="url(#4jlmhe9wcdd)"/>
                                </g>
                                <g transform="translate(-977 -1317) translate(162 1260) translate(752) translate(0 34) translate(63 23) translate(152.5 138) translate(27.5)">
                                    <mask id="va88na95xdf" fill="#fff">
                                        <use xlink:href="#fkz2jyn9rde"/>
                                    </mask>
                                    <path fill="#FFDD50" fill-opacity=".66" d="M-7.053 -6.583L9.545 -6.583 9.545 17.311 -7.053 17.311z" mask="url(#va88na95xdf)"/>
                                </g>
                                <g transform="translate(-977 -1317) translate(162 1260) translate(752) translate(0 34) translate(63 23) translate(152.5 138) translate(30.5)">
                                    <mask id="15te9yb0bdh" fill="#fff">
                                        <use xlink:href="#2wxopriqudg"/>
                                    </mask>
                                    <path fill="#FFDD50" fill-opacity=".66" d="M-7.266 -6.583L9.332 -6.583 9.332 17.311 -7.266 17.311z" mask="url(#15te9yb0bdh)"/>
                                </g>
                                <g transform="translate(-977 -1317) translate(162 1260) translate(752) translate(0 34) translate(63 23) translate(152.5 138) translate(33.5)">
                                    <mask id="a0rxpptv0dj" fill="#fff">
                                        <use xlink:href="#ipek1yqhvdi"/>
                                    </mask>
                                    <path fill="#FFDD50" fill-opacity=".66" d="M-7.479 -6.583L9.119 -6.583 9.119 17.311 -7.479 17.311z" mask="url(#a0rxpptv0dj)"/>
                                </g>
                                <g transform="translate(-977 -1317) translate(162 1260) translate(752) translate(0 34) translate(63 23) translate(152.5 138) translate(36)">
                                    <mask id="6e0ovbttmdl" fill="#fff">
                                        <use xlink:href="#boah9jc0hdk"/>
                                    </mask>
                                    <path fill="#FFDD50" fill-opacity=".66" d="M-7.192 -6.583L9.406 -6.583 9.406 17.311 -7.192 17.311z" mask="url(#6e0ovbttmdl)"/>
                                </g>
                                <g transform="translate(-977 -1317) translate(162 1260) translate(752) translate(0 34) translate(63 23) translate(152.5 138) translate(39)">
                                    <mask id="06ihprdv3dn" fill="#fff">
                                        <use xlink:href="#txpa8oswvdm"/>
                                    </mask>
                                    <path fill="#FFDD50" fill-opacity=".66" d="M-7.398 -6.645L9.2 -6.645 9.2 17.311 -7.398 17.311z" mask="url(#06ihprdv3dn)"/>
                                </g>
                                <g transform="translate(-977 -1317) translate(162 1260) translate(752) translate(0 34) translate(63 23) translate(152.5 138) translate(41)">
                                    <mask id="g0uttoysjdp" fill="#fff">
                                        <use xlink:href="#egmqrg5e7do"/>
                                    </mask>
                                    <path fill="#FFDD50" fill-opacity=".66" d="M-6.614 -6.583L9.984 -6.583 9.984 17.311 -6.614 17.311z" mask="url(#g0uttoysjdp)"/>
                                </g>
                            </g>
                            <g transform="translate(-977 -1317) translate(162 1260) translate(752) translate(0 34) translate(63 23) translate(177 154.5)">
                                <mask id="6t7mo85gpdr" fill="#fff">
                                    <use xlink:href="#g7ovvjzsddq"/>
                                </mask>
                                <path fill="#FAA635" d="M-12.604 42.193L0.297 -12.463 54.953 0.437 42.053 55.093z" mask="url(#6t7mo85gpdr)"/>
                            </g>
                            <g transform="translate(-977 -1317) translate(162 1260) translate(752) translate(0 34) translate(63 23) translate(178.5 156)">
                                <mask id="9zmbv71dmdt" fill="#fff">
                                    <use xlink:href="#j630o9nbpds"/>
                                </mask>
                                <path fill="#F8D423" d="M-7.403 -7.323L46.767 -7.323 46.767 46.971 -7.403 46.971z" mask="url(#9zmbv71dmdt)"/>
                            </g>
                            <g transform="translate(-977 -1317) translate(162 1260) translate(752) translate(0 34) translate(63 23) translate(182.5 160)">
                                <mask id="v0erlu7kgdv" fill="#fff">
                                    <use xlink:href="#1su8xjcxodu"/>
                                </mask>
                                <path fill="#F7A232" d="M-7.418 -7.248L38.629 -7.248 38.629 38.8 -7.418 38.8z" mask="url(#v0erlu7kgdv)"/>
                            </g>
                            <g>
                                <g transform="translate(-977 -1317) translate(162 1260) translate(752) translate(0 34) translate(63 23) translate(192 168)">
                                    <mask id="5ki32zucadx" fill="#fff">
                                        <use xlink:href="#zv4r4d6ipdw"/>
                                    </mask>
                                    <path fill="#FFDD50" fill-opacity=".68" d="M-7.064 -7.505L19.284 -7.505 19.284 25.245 -7.064 25.245z" mask="url(#5ki32zucadx)"/>
                                </g>
                                <path stroke="#FFDD50" stroke-linecap="round" stroke-linejoin="round" stroke-width="1.215" d="M11.775 1.341H7.333c.851.674 1.393 1.664 1.503 2.744h2.939v1.351h-2.91c-.267 2.744-2.45 4.495-5.898 4.604 2.102 2.183 4.39 4.927 6.658 7.705H7.057C4.959 15.215 2.99 12.87.46 10.173V8.508h1.48c2.91 0 4.47-1.212 4.66-3.072H.437v-1.35h6.059c-.376-1.56-1.808-2.34-4.148-2.34H.446v-1.75h11.338l-.01 1.345z" transform="translate(-977 -1317) translate(162 1260) translate(752) translate(0 34) translate(63 23) translate(192 168)"/>
                            </g>
                            <g transform="translate(-977 -1317) translate(162 1260) translate(752) translate(0 34) translate(63 23) translate(55.5 99)">
                                <mask id="b25ci2p8ddz" fill="#fff">
                                    <use xlink:href="#zkcjy7yvbdy"/>
                                </mask>
                                <path fill="#FFF" d="M-6.743 -7.386L37.354 -7.386 37.354 27.793 -6.743 27.793z" mask="url(#b25ci2p8ddz)"/>
                            </g>
                            <g transform="translate(-977 -1317) translate(162 1260) translate(752) translate(0 34) translate(63 23) translate(55.5 99)">
                                <mask id="7qao64lvrdB" fill="#fff">
                                    <use xlink:href="#ll96db89bdA"/>
                                </mask>
                                <path fill="#203468" fill-opacity=".08" d="M-6.771 -7.386L20.852 -7.386 20.852 27.793 -6.771 27.793z" mask="url(#7qao64lvrdB)"/>
                            </g>
                            <g transform="translate(-977 -1317) translate(162 1260) translate(752) translate(0 34) translate(63 23) translate(148.5 43.5)">
                                <mask id="shbrdikchdD" fill="#fff">
                                    <use xlink:href="#v7835033ddC"/>
                                </mask>
                                <path fill="#33B971" d="M-6.586 -6.675L16.665 -6.675 16.665 33.023 -6.586 33.023z" mask="url(#shbrdikchdD)"/>
                            </g>
                            <g transform="translate(-977 -1317) translate(162 1260) translate(752) translate(0 34) translate(63 23) translate(148.5 43.5)">
                                <mask id="hfrlgqt4ydF" fill="#fff">
                                    <use xlink:href="#ieq28m9ovdE"/>
                                </mask>
                                <path fill="#FFF" fill-opacity=".18" d="M-6.586 -6.675L16.665 -6.675 16.665 33.023 -6.586 33.023z" mask="url(#hfrlgqt4ydF)"/>
                            </g>
                            <g transform="translate(-977 -1317) translate(162 1260) translate(752) translate(0 34) translate(63 23) translate(160 38.5)">
                                <mask id="phi73wkopdH" fill="#fff">
                                    <use xlink:href="#3va8rwxqddG"/>
                                </mask>
                                <path fill="#33B971" d="M-7.195 -7.173L12.238 -7.173 12.238 21.101 -7.195 21.101z" mask="url(#phi73wkopdH)"/>
                            </g>
                            <g transform="translate(-977 -1317) translate(162 1260) translate(752) translate(0 34) translate(63 23) translate(160 38.5)">
                                <mask id="cu3nxdl3sdJ" fill="#fff">
                                    <use xlink:href="#mwtlvjarfdI"/>
                                </mask>
                                <path fill="#FFF" fill-opacity=".66" d="M-7.195 -7.173L12.238 -7.173 12.238 21.101 -7.195 21.101z" mask="url(#cu3nxdl3sdJ)"/>
                            </g>
                            <g transform="translate(-977 -1317) translate(162 1260) translate(752) translate(0 34) translate(63 23) translate(138 37)">
                                <mask id="7288v8hsrdL" fill="#fff">
                                    <use xlink:href="#6er7v9lkydK"/>
                                </mask>
                                <path fill="#33B971" d="M-6.878 -7.138L15.594 -7.138 15.594 30.234 -6.878 30.234z" mask="url(#7288v8hsrdL)"/>
                            </g>
                            <g transform="translate(-977 -1317) translate(162 1260) translate(752) translate(0 34) translate(63 23) translate(138 37)">
                                <mask id="flsow1wsudN" fill="#fff">
                                    <use xlink:href="#5e8brbab2dM"/>
                                </mask>
                                <path fill="#FFF" fill-opacity=".51" d="M-6.878 -7.138L15.594 -7.138 15.594 30.234 -6.878 30.234z" mask="url(#flsow1wsudN)"/>
                            </g>
                            <g transform="translate(-977 -1317) translate(162 1260) translate(752) translate(0 34) translate(63 23) translate(168 38.5)">
                                <mask id="z77slf6r1dP" fill="#fff">
                                    <use xlink:href="#rglodkqe2dO"/>
                                </mask>
                                <path fill="#33B971" d="M-7.062 -7.435L15.771 -7.435 15.771 31.027 -7.062 31.027z" mask="url(#z77slf6r1dP)"/>
                            </g>
                            <g transform="translate(-977 -1317) translate(162 1260) translate(752) translate(0 34) translate(63 23) translate(168 38.5)">
                                <mask id="twukzs9x8dR" fill="#fff">
                                    <use xlink:href="#j1yo1ga7pdQ"/>
                                </mask>
                                <path fill="#FFF" fill-opacity=".42" d="M-7.062 -7.435L15.771 -7.435 15.771 31.027 -7.062 31.027z" mask="url(#twukzs9x8dR)"/>
                            </g>
                        </g>
                    </g>
                </g>
            </g>
        </g>
    </g>
</svg>
