<svg xmlns="http://www.w3.org/2000/svg" width="121" height="86" viewBox="0 0 121 86">
    <g fill="none" fill-rule="evenodd" opacity=".166">
        <g fill="#004393">
            <g>
                <g>
                    <path d="M368.73 96.803c1.806 0 3.27 1.387 3.27 3.098 0 1.712-1.464 3.099-3.27 3.099-1.805 0-3.268-1.387-3.268-3.099 0-1.71 1.463-3.098 3.269-3.098zm-13.076 0c1.805 0 3.27 1.387 3.27 3.098 0 1.712-1.465 3.099-3.27 3.099-1.806 0-3.27-1.387-3.27-3.099 0-1.71 1.464-3.098 3.27-3.098zm-13.077 0c1.805 0 3.27 1.387 3.27 3.098 0 1.712-1.465 3.099-3.27 3.099-1.806 0-3.27-1.387-3.27-3.099 0-1.71 1.464-3.098 3.27-3.098zm-13.077 0c1.806 0 3.27 1.387 3.27 3.098 0 1.712-1.464 3.099-3.27 3.099s-3.27-1.387-3.27-3.099c0-1.71 1.464-3.098 3.27-3.098zm-13.077 0c1.806 0 3.27 1.387 3.27 3.098 0 1.712-1.464 3.099-3.27 3.099-1.805 0-3.27-1.387-3.27-3.099 0-1.71 1.465-3.098 3.27-3.098zm-13.077 0c1.806 0 3.27 1.387 3.27 3.098 0 1.712-1.464 3.099-3.27 3.099-1.805 0-3.27-1.387-3.27-3.099 0-1.71 1.465-3.098 3.27-3.098zm-13.077 0c1.806 0 3.27 1.387 3.27 3.098 0 1.712-1.464 3.099-3.27 3.099-1.805 0-3.269-1.387-3.269-3.099 0-1.71 1.464-3.098 3.27-3.098zm78.462-16.338c1.805 0 3.269 1.387 3.269 3.098 0 1.712-1.464 3.099-3.27 3.099-1.805 0-3.268-1.387-3.268-3.099 0-1.71 1.463-3.098 3.269-3.098zm-13.077 0c1.805 0 3.27 1.387 3.27 3.098 0 1.712-1.465 3.099-3.27 3.099-1.806 0-3.27-1.387-3.27-3.099 0-1.71 1.464-3.098 3.27-3.098zm-13.077 0c1.805 0 3.27 1.387 3.27 3.098 0 1.712-1.465 3.099-3.27 3.099-1.806 0-3.27-1.387-3.27-3.099 0-1.71 1.464-3.098 3.27-3.098zm-13.077 0c1.806 0 3.27 1.387 3.27 3.098 0 1.712-1.464 3.099-3.27 3.099s-3.27-1.387-3.27-3.099c0-1.71 1.464-3.098 3.27-3.098zm-13.077 0c1.806 0 3.27 1.387 3.27 3.098 0 1.712-1.464 3.099-3.27 3.099-1.805 0-3.27-1.387-3.27-3.099 0-1.71 1.465-3.098 3.27-3.098zm-13.077 0c1.806 0 3.27 1.387 3.27 3.098 0 1.712-1.464 3.099-3.27 3.099-1.805 0-3.27-1.387-3.27-3.099 0-1.71 1.465-3.098 3.27-3.098zm-13.077 0c1.806 0 3.27 1.387 3.27 3.098 0 1.712-1.464 3.099-3.27 3.099-1.805 0-3.269-1.387-3.269-3.099 0-1.71 1.464-3.098 3.27-3.098zm65.385-16.338c1.805 0 3.27 1.387 3.27 3.098 0 1.712-1.465 3.099-3.27 3.099-1.806 0-3.27-1.387-3.27-3.099 0-1.711 1.464-3.098 3.27-3.098zm-13.077 0c1.805 0 3.27 1.387 3.27 3.098 0 1.712-1.465 3.099-3.27 3.099-1.806 0-3.27-1.387-3.27-3.099 0-1.711 1.464-3.098 3.27-3.098zm-13.077 0c1.806 0 3.27 1.387 3.27 3.098 0 1.712-1.464 3.099-3.27 3.099s-3.27-1.387-3.27-3.099c0-1.711 1.464-3.098 3.27-3.098zm-13.077 0c1.806 0 3.27 1.387 3.27 3.098 0 1.712-1.464 3.099-3.27 3.099-1.805 0-3.27-1.387-3.27-3.099 0-1.711 1.465-3.098 3.27-3.098zm-13.077 0c1.806 0 3.27 1.387 3.27 3.098 0 1.712-1.464 3.099-3.27 3.099-1.805 0-3.27-1.387-3.27-3.099 0-1.711 1.465-3.098 3.27-3.098zm-13.077 0c1.806 0 3.27 1.387 3.27 3.098 0 1.712-1.464 3.099-3.27 3.099-1.805 0-3.269-1.387-3.269-3.099 0-1.711 1.464-3.098 3.27-3.098zm78.462 0c1.805 0 3.269 1.387 3.269 3.098 0 1.712-1.464 3.099-3.27 3.099-1.805 0-3.268-1.387-3.268-3.099 0-1.711 1.463-3.098 3.269-3.098zm-13.077-16.338c1.805 0 3.27 1.387 3.27 3.098 0 1.712-1.465 3.099-3.27 3.099-1.806 0-3.27-1.387-3.27-3.099 0-1.711 1.464-3.098 3.27-3.098zm-13.077 0c1.805 0 3.27 1.387 3.27 3.098 0 1.712-1.465 3.099-3.27 3.099-1.806 0-3.27-1.387-3.27-3.099 0-1.711 1.464-3.098 3.27-3.098zm-13.077 0c1.806 0 3.27 1.387 3.27 3.098 0 1.712-1.464 3.099-3.27 3.099s-3.27-1.387-3.27-3.099c0-1.711 1.464-3.098 3.27-3.098zm-13.077 0c1.806 0 3.27 1.387 3.27 3.098 0 1.712-1.464 3.099-3.27 3.099-1.805 0-3.27-1.387-3.27-3.099 0-1.711 1.465-3.098 3.27-3.098zm-13.077 0c1.806 0 3.27 1.387 3.27 3.098 0 1.712-1.464 3.099-3.27 3.099-1.805 0-3.27-1.387-3.27-3.099 0-1.711 1.465-3.098 3.27-3.098zm-13.077 0c1.806 0 3.27 1.387 3.27 3.098 0 1.712-1.464 3.099-3.27 3.099-1.805 0-3.269-1.387-3.269-3.099 0-1.711 1.464-3.098 3.27-3.098zm78.462 0c1.805 0 3.269 1.387 3.269 3.098 0 1.712-1.464 3.099-3.27 3.099-1.805 0-3.268-1.387-3.268-3.099 0-1.711 1.463-3.098 3.269-3.098zm0-15.775c1.805 0 3.269 1.387 3.269 3.099 0 1.711-1.464 3.098-3.27 3.098-1.805 0-3.268-1.387-3.268-3.098 0-1.712 1.463-3.099 3.269-3.099zm-13.077 0c1.805 0 3.27 1.387 3.27 3.099 0 1.711-1.465 3.098-3.27 3.098-1.806 0-3.27-1.387-3.27-3.098 0-1.712 1.464-3.099 3.27-3.099zm-13.077 0c1.805 0 3.27 1.387 3.27 3.099 0 1.711-1.465 3.098-3.27 3.098-1.806 0-3.27-1.387-3.27-3.098 0-1.712 1.464-3.099 3.27-3.099zm-13.077 0c1.806 0 3.27 1.387 3.27 3.099 0 1.711-1.464 3.098-3.27 3.098s-3.27-1.387-3.27-3.098c0-1.712 1.464-3.099 3.27-3.099zm-13.077 0c1.806 0 3.27 1.387 3.27 3.099 0 1.711-1.464 3.098-3.27 3.098-1.805 0-3.27-1.387-3.27-3.098 0-1.712 1.465-3.099 3.27-3.099zm-13.077 0c1.806 0 3.27 1.387 3.27 3.099 0 1.711-1.464 3.098-3.27 3.098-1.805 0-3.27-1.387-3.27-3.098 0-1.712 1.465-3.099 3.27-3.099zm-13.077 0c1.806 0 3.27 1.387 3.27 3.099 0 1.711-1.464 3.098-3.27 3.098-1.805 0-3.269-1.387-3.269-3.098 0-1.712 1.464-3.099 3.27-3.099zM329.5 15.676c1.806 0 3.27 1.387 3.27 3.099 0 1.711-1.464 3.098-3.27 3.098s-3.27-1.387-3.27-3.098c0-1.712 1.464-3.099 3.27-3.099zm-26.154 0c1.806 0 3.27 1.387 3.27 3.099 0 1.711-1.464 3.098-3.27 3.098-1.805 0-3.27-1.387-3.27-3.098 0-1.712 1.465-3.099 3.27-3.099zm13.077 0c1.806 0 3.27 1.387 3.27 3.099 0 1.711-1.464 3.098-3.27 3.098-1.805 0-3.27-1.387-3.27-3.098 0-1.712 1.465-3.099 3.27-3.099zm39.23 0c1.806 0 3.27 1.387 3.27 3.099 0 1.711-1.464 3.098-3.27 3.098-1.805 0-3.268-1.387-3.268-3.098 0-1.712 1.463-3.099 3.269-3.099zm13.078 0c1.805 0 3.269 1.387 3.269 3.099 0 1.711-1.464 3.098-3.27 3.098-1.805 0-3.268-1.387-3.268-3.098 0-1.712 1.463-3.099 3.269-3.099zm-78.462 0c1.806 0 3.27 1.387 3.27 3.099 0 1.711-1.464 3.098-3.27 3.098-1.805 0-3.269-1.387-3.269-3.098 0-1.712 1.464-3.099 3.27-3.099zm52.308 0c1.805 0 3.27 1.387 3.27 3.099 0 1.711-1.465 3.098-3.27 3.098-1.806 0-3.27-1.387-3.27-3.098 0-1.712 1.464-3.099 3.27-3.099zM368.73-.662c1.805 0 3.269 1.387 3.269 3.099 0 1.71-1.464 3.098-3.27 3.098-1.805 0-3.268-1.387-3.268-3.098 0-1.712 1.463-3.099 3.269-3.099zm-26.154 0c1.805 0 3.27 1.387 3.27 3.099 0 1.71-1.465 3.098-3.27 3.098-1.806 0-3.27-1.387-3.27-3.098 0-1.712 1.464-3.099 3.27-3.099zm-26.154 0c1.806 0 3.27 1.387 3.27 3.099 0 1.71-1.464 3.098-3.27 3.098-1.805 0-3.27-1.387-3.27-3.098 0-1.712 1.465-3.099 3.27-3.099zm-13.077 0c1.806 0 3.27 1.387 3.27 3.099 0 1.71-1.464 3.098-3.27 3.098-1.805 0-3.27-1.387-3.27-3.098 0-1.712 1.465-3.099 3.27-3.099zm-13.077 0c1.806 0 3.27 1.387 3.27 3.099 0 1.71-1.464 3.098-3.27 3.098-1.805 0-3.269-1.387-3.269-3.098 0-1.712 1.464-3.099 3.27-3.099zm65.385 0c1.805 0 3.27 1.387 3.27 3.099 0 1.71-1.465 3.098-3.27 3.098-1.806 0-3.27-1.387-3.27-3.098 0-1.712 1.464-3.099 3.27-3.099zm-26.154 0c1.806 0 3.27 1.387 3.27 3.099 0 1.71-1.464 3.098-3.27 3.098s-3.27-1.387-3.27-3.098c0-1.712 1.464-3.099 3.27-3.099zM303.346-17c1.806 0 3.27 1.387 3.27 3.099 0 1.71-1.464 3.098-3.27 3.098-1.805 0-3.27-1.387-3.27-3.098 0-1.712 1.465-3.099 3.27-3.099zm13.077 0c1.806 0 3.27 1.387 3.27 3.099 0 1.71-1.464 3.098-3.27 3.098-1.805 0-3.27-1.387-3.27-3.098 0-1.712 1.465-3.099 3.27-3.099zm13.077 0c1.806 0 3.27 1.387 3.27 3.099 0 1.71-1.464 3.098-3.27 3.098s-3.27-1.387-3.27-3.098c0-1.712 1.464-3.099 3.27-3.099zm13.077 0c1.805 0 3.27 1.387 3.27 3.099 0 1.71-1.465 3.098-3.27 3.098-1.806 0-3.27-1.387-3.27-3.098 0-1.712 1.464-3.099 3.27-3.099zm13.077 0c1.805 0 3.27 1.387 3.27 3.099 0 1.71-1.465 3.098-3.27 3.098-1.806 0-3.27-1.387-3.27-3.098 0-1.712 1.464-3.099 3.27-3.099zm13.077 0c1.805 0 3.269 1.387 3.269 3.099 0 1.71-1.464 3.098-3.27 3.098-1.805 0-3.268-1.387-3.268-3.098 0-1.712 1.463-3.099 3.269-3.099zm-78.462 0c1.806 0 3.27 1.387 3.27 3.099 0 1.71-1.464 3.098-3.27 3.098-1.805 0-3.269-1.387-3.269-3.098 0-1.712 1.464-3.099 3.27-3.099z" transform="translate(-1183 -1917) translate(162 1917) translate(752) matrix(0 1 1 0 286.5 -286.5)"/>
                </g>
            </g>
        </g>
    </g>
</svg>
