<svg xmlns="http://www.w3.org/2000/svg" width="108" height="108" viewBox="0 0 108 108">
    <g fill="none" transform="translate(9 5)">
        <g fill="#007BDD" opacity=".1">
            <path d="M.225 18.408H4.688V27.275000000000002H.225zM8.057 14.061H12.52V27.276H8.057zM16.279 7.29H20.742V27.276H16.279zM24.726.195H29.189V27.275H24.726z" transform="translate(45.22 6.571)"/>
        </g>
        <circle cx="14.685" cy="19.462" r="1.964" fill="#49B2FF" opacity=".2"/>
        <circle cx="51.76" cy="1.265" r="1" fill="#49B2FF" opacity=".2"/>
        <ellipse cx="85.932" cy="65.182" fill="#49B2FF" opacity=".2" rx="2.222" ry="2.185"/>
        <path fill="#004393" d="M1.401 89.486c5.812-.179 11.623-.298 17.433-.357 5.812-.073 11.625-.09 17.433-.1l8.719.024c2.906.026 5.812.033 8.718.076 5.808.06 11.619.178 17.433.357-5.812.174-11.623.292-17.433.353-2.906.043-5.812.053-8.718.076l-8.719.027c-5.808 0-11.62-.03-17.433-.103-5.812-.072-11.634-.178-17.433-.353z" opacity=".3"/>
        <path fill="#2BA037" d="M71.177 69.239c-.042-1.555-1.322-2.789-2.877-2.774h-3.544v11.902l.36 1.13v6.752h.602c1.831-.011 3.652.266 5.396.823h.05V69.24h.013z"/>
        <path fill="#ED9B14" d="M58.746 87.376l.258.103v.258c-.014.088.004.178.05.254h-.05v3.032h-.36l-2.365-.102h-.148c.225-.699.346-1.426.36-2.16 0-.517-.05-1.033-.152-1.54h.205l2.202.155z"/>
        <path fill="#D17E1C" d="M54.276 83.624c1.429.352 2.896.525 4.367.516 3.637 0 6.781-.976 6.986-2.106v3.7c-3.494.049-6.37.872-6.731 1.9l-.255-.106-2.003-.102h-.205c-.313-1.456-1.089-2.771-2.212-3.75l.053-.052z"/>
        <path fill="#2BA037" d="M31.57 83.111h13.65l.156.721c-1.44 1.255-2.265 3.073-2.262 4.983.008.344.043.688.103 1.028h-8.824c-1.555-.015-2.811-1.272-2.824-2.827v-3.905z"/>
        <path fill="#3BB54A" d="M62.445 60.2H28.538c-1.573-.011-2.858 1.251-2.877 2.823V80.8c.042 1.555 1.322 2.79 2.877 2.774h16.646l.152.205c1.219-1.12 2.814-1.744 4.47-1.745.68.001 1.355.105 2.004.307l13.459-3.967v-15.35c-.013-1.555-1.27-2.811-2.824-2.824z"/>
        <path fill="#2BA037" d="M45.492 64.514c4.086 0 7.399 3.313 7.399 7.4 0 4.086-3.313 7.399-7.4 7.399-4.086 0-7.399-3.313-7.399-7.4-.008-1.964.768-3.852 2.158-5.241 1.39-1.39 3.276-2.166 5.242-2.158z"/>
        <circle cx="30.849" cy="65.182" r="2.056" fill="#2BA037"/>
        <path fill="#D17E1C" d="M72.661 91.28v3.39c0 1.183-3.081 2.109-6.883 2.109s-6.834-.926-6.834-2.11v-3.08c.565 1.028 3.392 1.798 6.781 1.798s6.936-.975 6.936-2.106z"/>
        <path fill="#ED9B14" d="M72.661 87.991v3.306c0 1.131-3.184 2.106-6.943 2.106-3.759 0-6.215-.77-6.78-1.798v-3.458c.41 1.028 3.29 1.848 6.78 1.848 3.492 0 6.692-.873 6.943-2.004z"/>
        <path fill="#FFC500" d="M72.661 87.991c-.258 1.131-3.286 2.004-6.943 2.004-3.656 0-6.37-.82-6.78-1.848-.04-.08-.058-.17-.05-.258v-.255c.357-1.028 3.233-1.851 6.728-1.9h.102c1.83-.013 3.652.263 5.396.82.975.36 1.54.822 1.54 1.322v.102l.007.013z"/>
        <path fill="#D17E1C" d="M58.95 91.588v2.725h-.36c-1.399-.002-2.793-.158-4.159-.463h-.102c.92-.8 1.58-1.855 1.897-3.032h.156l2.208.103h.36v.667z"/>
        <path fill="#ED9B14" d="M65.63 79.002v3.032c-.206 1.13-3.34 2.106-6.987 2.106-1.471.01-2.938-.164-4.367-.516h-.053c-.692-.584-1.495-1.02-2.36-1.283v-3.597c.204 1.081 3.183 1.954 6.83 1.954 3.647 0 6.321-.73 6.936-1.696z"/>
        <path fill="#FFC500" d="M65.63 79.052c-.616.991-3.638 1.696-6.987 1.696s-6.612-.873-6.833-1.951c-.039-.042-.057-.099-.05-.155 0-1.131 3.081-2.106 6.883-2.106 2.93 0 5.6.565 6.613 1.388.27.141.447.416.462.72.025.143-.007.289-.089.408zM56.69 87.426c.06.46.094.924.102 1.389-.01.675-.095 1.347-.255 2.003-.367 1.21-1.06 2.294-2.003 3.134-1.897 1.716-4.58 2.257-6.993 1.41-2.413-.847-4.17-2.945-4.579-5.47-.056-.34-.09-.683-.102-1.028 0-1.98.841-3.865 2.314-5.187 1.823-1.651 4.39-2.2 6.728-1.438.91.253 1.752.705 2.466 1.322 1.2.98 2.02 2.346 2.321 3.865z"/>
        <path fill="#ED9B14" d="M49.849 83.35c3.018.001 5.463 2.449 5.462 5.467-.002 3.018-2.449 5.463-5.466 5.463-3.018-.001-5.464-2.448-5.464-5.465.001-3.02 2.45-5.465 5.468-5.465z"/>
        <path fill="#FFF" d="M48.037 67.943c.101.035.164.135.152.241v.625c-.003.08-.06.147-.139.162-.04.003-.081.003-.122 0h-1.385l.033.063c.16.23.272.49.33.764 0 .066.044.08.106.08h.936c.182 0 .248.065.248.244v.549c0 .175-.066.244-.241.244h-.933c-.06 0-.082 0-.092.08-.08.465-.3.894-.628 1.233-.265.266-.582.474-.933.608-.274.106-.559.179-.85.218l-.102.017.033.046c.271.304.546.605.817.913.27.307.562.66.836.991.377.45.75.903 1.124 1.353v.023c.149.152.093.284-.056.373h-1.174c-.117.003-.23-.046-.31-.132-.222-.258-.437-.519-.662-.78l-.578-.661c-.33-.374-.661-.75-.976-1.121-.277-.31-.562-.618-.843-.926-.05-.05-.078-.12-.076-.192v-.724c0-.165.08-.241.245-.241h.661c.381.013.761-.046 1.121-.172.276-.092.516-.268.688-.502.08-.114.139-.242.172-.377h-2.596c-.038.003-.077.003-.115 0-.089-.014-.153-.09-.152-.179v-.681c0-.093.075-.169.168-.169h2.599c0-.026 0-.043-.02-.056-.135-.228-.348-.4-.599-.486-.304-.113-.627-.168-.952-.162h-.958c-.182 0-.258-.089-.245-.287.011-.23.011-.459 0-.688-.02-.112.043-.222.149-.261l5.32-.03z"/>
        <path fill="#FFF" d="M51.502 86.11c.06.023.098.084.093.149v.383c0 .05-.037.093-.086.1-.024.003-.049.003-.073 0h-.853l.02.036c.101.142.173.303.211.473 0 .04.027.046.063.046h.579c.109 0 .152.04.152.149v.33c0 .106-.043.15-.149.15h-.575c-.037 0-.05 0-.056.049-.05.287-.184.552-.387.76-.166.173-.368.306-.592.39-.168.067-.343.112-.522.136h-.063l.02.03.499.562c.175.198.33.4.516.601.231.275.462.556.69.834.04.028.06.076.053.125-.008.048-.042.088-.089.103h-.707c-.073.002-.144-.028-.192-.083l-.403-.48c-.116-.138-.235-.277-.354-.413-.202-.231-.4-.463-.602-.69-.202-.229-.33-.38-.519-.57-.03-.03-.046-.072-.046-.115v-.446c0-.103.05-.15.152-.15h.4c.234.007.467-.029.688-.105.17-.056.318-.165.423-.31.049-.07.085-.15.106-.232h-1.597c-.024.003-.049.003-.073 0-.054-.008-.093-.055-.093-.11v-.42c0-.027.012-.053.032-.073.02-.02.046-.03.074-.029h1.607v-.033c-.08-.142-.212-.25-.367-.3-.187-.07-.386-.103-.585-.1h-.589c-.115 0-.162-.053-.152-.175.01-.122 0-.284 0-.423-.01-.069.029-.136.093-.162l3.253.013z" opacity=".3"/>
        <g>
            <path fill="#49B2FF" d="M28.026 23.014c3.247 8.265 17.688 1.177 17.688 1.177s.661 4.444-3.687 5.885c-.6 1.508-.705 3.17-.297 4.741 0 0 6.824-1.481 7.604-7.082.78-5.6.565-8.209.565-8.209s-9.283.222-11.065-6.16" transform="translate(.968 20.315)"/>
            <path fill="#000" d="M28.026 23.014c3.247 8.265 17.688 1.177 17.688 1.177s.661 4.444-3.687 5.885c-.6 1.508-.705 3.17-.297 4.741 0 0 6.824-1.481 7.604-7.082.78-5.6.565-8.209.565-8.209s-9.283.222-11.065-6.16" opacity=".1" transform="translate(.968 20.315)"/>
            <path fill="#49B2FF" d="M25.755 16.703c-7.274 3.72-8.08 6.681-9.03 11.307-.948 4.625-5.263 7.273-5.92 7.366 0 0 .148 6.12-3.756 9.336.591 2.076 1.459 4.063 2.578 5.908 0 0 4.477-7.934 4.51-11.541 0 0 13.958-2.59 16.461-9.955" transform="translate(.968 20.315)"/>
            <path fill="#000" d="M25.755 16.703c-7.274 3.72-8.08 6.681-9.03 11.307-.948 4.625-5.263 7.273-5.92 7.366 0 0 .148 6.12-3.756 9.336.591 2.076 1.459 4.063 2.578 5.908 0 0 4.477-7.934 4.51-11.541 0 0 13.958-2.59 16.461-9.955" opacity=".1" transform="translate(.968 20.315)"/>
            <path fill="#49B2FF" d="M13.03 14.243c-.143-4.658-8.993-1.984-8.993-1.984s-3.449.83-3.789 4.216c-.106 1.06.132 1.878-.248 2.72 0 0 3.55-1.03 4.886-3.001.728-1.065.331-2.334.06-3.306 0 0 6.612-1.607 6.982 1.064.37 2.671-9.713 2.476-8.374 8.193 1.217 5.19 10.771 1.286 10.771 1.286l.387-3.065s-8.695 4.162-8.834.264c-.106-2.965 7.26-2.906 7.151-6.387z" transform="translate(.968 20.315)"/>
            <path fill="#49B2FF" d="M2.632 51.797s4.476-7.934 4.506-11.541c0 0 12.933-.579 15.433-7.935 0 0 3.458-2.668 12.084-3.34 8.625-.67 12.966-3.236 12.966-3.236s3.386-2.314 4.19-4.665c0 0 2.571 1.256 3.438 4.698 0 0 3.937 1.564 5.99.314l1.438-11.522s8.266-.062 9.258-4.608c0 0-4.675 3.517-12.696-.43C51.22 5.584 46.411-.357 40.097.017c-6.315.373-14.061 14.15-21.335 17.87-7.273 3.719-8.08 6.681-9.025 11.306-.946 4.626-5.267 7.274-5.925 7.366 0 0 .152 6.12-3.752 9.337.588 2.074 1.453 4.059 2.572 5.901z" transform="translate(.968 20.315)"/>
            <path fill="#000" d="M22.57 32.314s1.059-5.62-3.616-8.199c0 0 5.257.433 7.776 6.308-.91.28-1.799.623-2.661 1.025-.453.222-1.498.866-1.498.866z" opacity=".1" transform="translate(.968 20.315)"/>
            <path fill="#49B2FF" d="M29.934 24.561c3.246 8.266 17.687 1.177 17.687 1.177s.662 4.444-3.686 5.885c-.601 1.509-.705 3.17-.297 4.741 0 0 6.823-1.48 7.604-7.081.78-5.601.565-8.21.565-8.21s-9.303.222-11.066-6.165" transform="translate(.968 20.315)"/>
            <path fill="#000" d="M62.297 17.602l-4.589-5.36s10.66 2.408 14.217-2.287c0 0-.622 4.212-9.257 4.609l-.37 3.038zM61.24 26.086s-1.558 1.243-5.991-.315c0 0-.85-3.474-3.439-4.698l-.112-2.545s3.891 1.653 4.671 6.146M33.17 14.094S31.33 31.77 45.863 26.502c-2.897 1.156-5.936 1.914-9.036 2.255-3.76.35-5.515-5.852-3.657-14.663zM50.947 20.736s-8.225 1.743-10.202-5.828l10.202 5.828zM4.946 12.858l-.91-.612s-2.39.608-3.348 2.645c-.267.77-.425 1.573-.47 2.387 0 1.12 0 1.379-.218 1.904 0 0 3.838-1.064 5.068-3.322.559-1.022-.122-3.002-.122-3.002z" opacity=".1" transform="translate(.968 20.315)"/>
        </g>
    </g>
</svg>
