<svg xmlns="http://www.w3.org/2000/svg" width="303" height="117" viewBox="0 0 303 117">
    <g fill="none" fill-rule="evenodd">
        <path d="M152.165 20.08h-4.43v8.698h4.43c.439.002.86-.174 1.168-.488.309-.313.479-.738.472-1.179v-5.369a1.651 1.651 0 0 0-.475-1.174 1.636 1.636 0 0 0-1.165-.488z"/>
        <path fill="#00BDF2" fill-rule="nonzero" d="M293.85 16.564a10.448 10.448 0 0 0-9.85-7.03h-.095a10.383 10.383 0 0 0-7.53 3.229 10.383 10.383 0 0 0-7.535-3.23h-.095c-2.499-.003-4.915.9-6.805 2.542v-.799a1.548 1.548 0 0 0-1.535-1.436h-7c-.853 0-1.545.694-1.545 1.552V49.5c0 .858.69 1.554 1.545 1.557h7a1.547 1.547 0 0 0 1.525-1.346v-27.35a2.487 2.487 0 0 1 0-.277 2.55 2.55 0 0 1 2.41-2.35h1.285c.546.034 1.07.233 1.5.572.614.501.963 1.26.945 2.054l.03 27.22c0 .858.692 1.552 1.545 1.552h7a1.543 1.543 0 0 0 1.535-1.476V22.325a2.57 2.57 0 0 1 1.14-2.195 2.792 2.792 0 0 1 1.28-.432h1.29a2.562 2.562 0 0 1 2.42 2.627l.03 27.185c0 .412.163.807.453 1.098.29.29.682.454 1.092.454h7a1.553 1.553 0 0 0 1.545-1.552V20.27a9.843 9.843 0 0 0-.58-3.706zM246.555 9.94h-4V3.436a1.42 1.42 0 0 0-.404-1.012A1.407 1.407 0 0 0 241.15 2a1.528 1.528 0 0 0-.265.03c-4.43 1.22-3.54 7.383-11.63 7.91h-.785a1.545 1.545 0 0 0-1.545 1.547v7.031c-.001.413.16.809.45 1.1.29.293.684.457 1.095.457h4.215v29.737c0 .846.682 1.534 1.525 1.536h6.91c.833-.016 1.5-.7 1.5-1.536V20.08h3.91c.41 0 .804-.164 1.094-.456.29-.292.452-.688.451-1.1v-7.032c0-.847-.676-1.538-1.52-1.552z"/>
        <path fill="#203468" fill-rule="nonzero" d="M221.42 9.94h-7c-.41 0-.802.164-1.09.455a1.55 1.55 0 0 0-.45 1.097v14.51a1.639 1.639 0 0 1-1.62 1.611h-2.93a1.639 1.639 0 0 1-1.635-1.642l-.03-14.484c0-.857-.692-1.552-1.545-1.552h-7c-.41 0-.803.164-1.092.455-.29.29-.453.685-.453 1.097v15.905c0 6.027 4.29 10.346 10.305 10.346h4.655a1.635 1.635 0 0 1 1.429 1.625c0 .826-.613 1.522-1.429 1.625h-.12l-10.215.035c-.853 0-1.545.694-1.545 1.552v7.03c0 .858.692 1.553 1.545 1.553h11.42c6 0 10.305-4.305 10.305-10.346v-29.32c0-.842-.667-1.53-1.505-1.552zM154.415 9.94h-15.27c-.398 0-.78.159-1.06.441a1.51 1.51 0 0 0-.44 1.066v38.139c-.028.819.6 1.51 1.415 1.556h7.115c.853 0 1.545-.694 1.545-1.551l.03-10.668h6.68c5.595 0 9.5-3.892 9.5-9.542v-9.894c-.02-5.64-3.93-9.547-9.515-9.547zm-.61 12.857v4.314c0 .437-.173.855-.48 1.163-.308.308-.726.48-1.16.48h-4.43V20.08h4.43c.906 0 1.64.738 1.64 1.647v1.07zM181.675 9.98H172a1.496 1.496 0 0 0-1.079.404 1.51 1.51 0 0 0-.476 1.053v2.782a.177.177 0 0 1 0 .035v3.757c.022.884.75 1.584 1.63 1.567h9.23c.754.1 1.335.719 1.39 1.481v.904a1.549 1.549 0 0 1-1.35 1.442h-4.57c-6.08 0-10.41 4.058-10.41 9.753v8.146c0 5.66 3.72 9.688 9.76 9.688h12.67a4.007 4.007 0 0 0 4.115-3.857V20.517c0-6.464-3.315-10.537-11.235-10.537zm1.115 29.29v1.095a1.513 1.513 0 0 1-.095.487 1.63 1.63 0 0 1-1.555 1.055h-2.905a1.586 1.586 0 0 1-1.14-.429 1.6 1.6 0 0 1-.505-1.113v-6.027a1.598 1.598 0 0 1 1.645-1.537h2.905a1.603 1.603 0 0 1 1.65 1.547v4.922z"/>
        <path fill="#213368" fill-rule="nonzero" d="M156.525 101.405L143.33 66.787h-.21c.247 2.742.37 6.001.37 9.778v24.845h-4.175V62.347h6.81L158.44 94.57h.21l12.425-32.223h6.755v39.058h-4.5V76.238c0-2.882.123-6.016.37-9.401h-.21l-13.3 34.568h-3.665zM211.36 86.74c0 4.771-1.197 8.498-3.59 11.18-2.393 2.681-5.702 4.02-9.925 4.017a13.12 13.12 0 0 1-6.94-1.843 12.161 12.161 0 0 1-4.68-5.293 18.487 18.487 0 0 1-1.65-8.066c0-4.775 1.188-8.493 3.565-11.154 2.377-2.662 5.675-4.001 9.895-4.018 4.077 0 7.317 1.362 9.72 4.088 2.403 2.725 3.605 6.422 3.605 11.089zm-22.21 0c0 3.743.745 6.59 2.235 8.538 1.49 1.948 3.68 2.928 6.57 2.938 2.89 0 5.083-.975 6.58-2.923 1.497-1.949 2.247-4.803 2.25-8.563 0-3.72-.75-6.547-2.25-8.483-1.5-1.935-3.712-2.9-6.635-2.897-2.89 0-5.072.952-6.545 2.857-1.473 1.905-2.208 4.75-2.205 8.533zM237.415 101.405V82.466c0-2.384-.542-4.165-1.625-5.344-1.083-1.178-2.777-1.766-5.08-1.762-3.05 0-5.283.827-6.7 2.48-1.417 1.655-2.127 4.39-2.13 8.207v15.358h-4.415v-29.28h3.59l.72 4.018H222a9.063 9.063 0 0 1 3.805-3.355 12.369 12.369 0 0 1 5.455-1.185c3.51 0 6.152.85 7.925 2.551 1.773 1.701 2.66 4.421 2.66 8.161V101.4l-4.43.005zM261.58 101.942c-4.31 0-7.71-1.317-10.2-3.952-2.49-2.635-3.735-6.296-3.735-10.984 0-4.72 1.157-8.47 3.47-11.25 2.313-2.779 5.42-4.166 9.32-4.163 3.667 0 6.558 1.205 8.675 3.616 2.117 2.41 3.18 5.591 3.19 9.542v2.808h-20.08c.087 3.435.95 6.043 2.59 7.824 1.64 1.781 3.95 2.672 6.93 2.672a23.411 23.411 0 0 0 9.31-1.974v3.953a22.963 22.963 0 0 1-4.43 1.456c-1.66.324-3.349.475-5.04.452zm-1.195-26.618c-2.333 0-4.2.767-5.6 2.3-1.4 1.534-2.22 3.653-2.46 6.359h15.24c0-2.796-.62-4.939-1.86-6.429-1.24-1.49-3.013-2.233-5.32-2.23zM273.565 72.125h4.735l6.385 16.7a63.484 63.484 0 0 1 2.605 8.256h.21c.237-.911.72-2.466 1.45-4.666s3.138-8.963 7.225-20.29h4.735l-12.53 33.333c-1.24 3.294-2.69 5.638-4.35 7.03a9.209 9.209 0 0 1-6.105 2.075 17.526 17.526 0 0 1-4-.457v-3.55c1.077.222 2.175.33 3.275.32 3.03 0 5.197-1.71 6.5-5.132l1.62-4.168-11.755-29.45z"/>
        <path fill="#00BDF2" fill-rule="nonzero" d="M2.88 68.57L59.23 3.783a2.076 2.076 0 0 1 3.225 0l56.705 65.193c1.44 1.653.415 4.48-1.615 4.47L4.5 73.04c-2.045-.01-3.055-2.822-1.62-4.47z"/>
        <path fill="#223369" fill-rule="nonzero" d="M2.63 93.475L59.335 28.27a1.942 1.942 0 0 1 3 0l57.08 65.636c1.345 1.541.39 4.183-1.5 4.178l-113.79-.427c-1.89-.01-2.835-2.641-1.495-4.183z"/>
        <path fill="#FFF" fill-rule="nonzero" d="M52.5 57.837c-.503.042-1-.142-1.355-.502a1.742 1.742 0 0 1-.435-1.16 1.641 1.641 0 0 1 .435-1.13c.358-.357.852-.54 1.355-.503h17c.466-.049.93.106 1.274.425.344.32.534.773.521 1.243.005.419-.15.823-.435 1.13a1.73 1.73 0 0 1-1.36.502H67c-1.07 0-2 0-2.71-.045s-1.18-.065-1.335-.096v.186c.716.328 1.358.8 1.885 1.386a6.18 6.18 0 0 1 1.385 2.446h3.26a1.62 1.62 0 0 1 1.272.423c.344.319.534.77.523 1.24.004.42-.152.826-.435 1.135-.36.357-.856.54-1.36.502H66.5a8.565 8.565 0 0 1-1.15 3.63 8.62 8.62 0 0 1-2.23 2.472 9.984 9.984 0 0 1-2.895 1.481c-1.01.328-2.053.543-3.11.643L67.51 83.29c.464.43.732 1.033.74 1.667a2.12 2.12 0 0 1-.55 1.477 1.995 1.995 0 0 1-1.5.602c-.34 0-.677-.054-1-.16a2.614 2.614 0 0 1-1-.673L51.96 74.144a3.172 3.172 0 0 1-.735-.944 2.283 2.283 0 0 1-.23-1.004 2.014 2.014 0 0 1 .55-1.452c.372-.386.89-.596 1.425-.577h.6c.95 0 1.896-.086 2.83-.257a8.2 8.2 0 0 0 2.53-.873 6.507 6.507 0 0 0 1.91-1.597 5.034 5.034 0 0 0 1-2.451H52.5a1.615 1.615 0 0 1-1.27-.424 1.63 1.63 0 0 1-.52-1.239c-.005-.419.15-.823.435-1.13a1.75 1.75 0 0 1 1.355-.502h9.11c-.8-2.586-3.14-3.877-7.04-3.877l-2.07.02z"/>
    </g>
</svg>
