<svg xmlns="http://www.w3.org/2000/svg" width="109" height="108" viewBox="0 0 109 108">
    <g fill="none" transform="translate(10.194 16.51)">
        <path fill="#004393" d="M3.429 80.47c2.448-.337 9.796-.904 22.041-1.7 3.674-.27 7.347-.219 11.02-.32l11.022-.185 11.023.185c3.673.101 7.346 0 11.02.32l11.022.606c3.673.37 7.346.589 11.02 1.093-3.674.488-7.347.707-11.02 1.077l-11.023.606c-3.673.27-7.346.219-11.02.32l-11.022.201-11.022-.201c-3.673-.101-7.346 0-11.02-.32l-11.022-.606c-3.673-.286-7.352-.589-11.02-1.077z" opacity=".2"/>
        <circle cx="76.098" cy="31.92" r="1.61" fill="#49B2FF" opacity=".4"/>
        <circle cx="35.935" cy="1.854" r="1.005" fill="#49B2FF" opacity=".4"/>
        <ellipse cx="2.95" cy="32.37" fill="#49B2FF" opacity=".4" rx="2.413" ry="2.377"/>
        <path fill="#33BA71" d="M62.695 15.922L62.629 4.516 51.749 7.607 55.415 10.305 40.326 26.293 30.659 16.821 2.95 48.993 3.797 48.993 30.513 23.827 40.739 33.976 59.723 13.664z"/>
        <path fill="#249F5A" d="M56.414 9.204L53.524 7.101 51.749 7.607 55.415 10.282zM59.723 11.852L40.739 32.165 30.513 22.015 2.95 48.993 3.797 48.993 30.513 23.83 40.739 33.976 59.723 13.664 62.695 15.922 62.685 14.103z"/>
        <path fill="#33B871" d="M24.226 48.065L66.207 48.065 66.207 67.327 24.226 67.327z" transform="rotate(-59.5 45.217 57.696)"/>
        <path fill="#249D5A" d="M59.574 47.446L43.202 75.217c-1.145-.706-2.646-.349-3.352.797l-8.06-4.751c.654-1.169.24-2.647-.926-3.306l16.372-27.772c1.145.704 2.643.347 3.349-.796l8.06 4.747c-.65 1.172-.235 2.648.93 3.31z"/>
        <circle cx="45.219" cy="57.705" r="4.41" fill="#33B871"/>
        <circle cx="50.403" cy="48.9" r="1.934" fill="#33B871"/>
        <circle cx="40.032" cy="66.505" r="1.934" fill="#33B871"/>
        <path fill="#FFF" d="M44.032 55.522c.04-.033.099-.033.139 0l.258.156c.033.02.047.062.033.1-.008.017-.016.035-.026.052l-.315.536-.023.04h.033c.136-.015.273-.001.404.039.01.005.023.006.035.002.01-.005.02-.014.024-.025l.228-.39c.047-.076.09-.09.166-.043l.228.132c.072.043.082.09.04.162-.073.128-.15.257-.229.387v.06c.175.145.3.341.36.561.046.175.054.358.024.536-.02.14-.059.277-.116.407l-.02.046h.03l.579-.116c.201-.04.406-.076.611-.109l.837-.136c.099-.023.142.033.142.116l-.288.49c-.029.048-.077.083-.132.095l-.486.083-.42.076-.704.129-.592.126c-.033.008-.067.002-.096-.017l-.304-.178c-.03-.013-.052-.039-.06-.07-.007-.031 0-.064.02-.09l.16-.27c.098-.155.167-.326.204-.506.027-.138.012-.28-.043-.41-.028-.061-.066-.117-.112-.165l-.023.04-.615 1.04-.033.047c-.027.032-.073.04-.11.02-.095-.053-.191-.11-.284-.169-.038-.024-.05-.074-.026-.112.004-.013.01-.026.02-.037l.591-.991.023-.04h-.03c-.121.004-.238.05-.33.129-.122.099-.224.22-.3.357-.08.132-.16.264-.236.397-.046.076-.102.086-.181.033-.08-.053-.189-.116-.285-.169-.051-.018-.082-.071-.072-.125l1.302-2.226z"/>
        <path fill="#33B871" d="M35.312 52.274L77.293 52.274 77.293 71.536 35.312 71.536z" transform="rotate(-29.75 56.302 61.905)"/>
        <path fill="#249D5A" d="M73.86 60.115L45.857 76.12c-.31-.568-.832-.989-1.452-1.17-.62-.182-1.287-.11-1.854.2l-4.629-8.126c1.155-.69 1.532-2.186.844-3.342l28-16.005c.309.567.83.989 1.45 1.17.62.183 1.288.112 1.855-.198l4.629 8.123c-.555.332-.955.87-1.113 1.497-.157.627-.059 1.291.273 1.846z"/>
        <circle cx="56.304" cy="61.9" r="4.41" fill="#33B871"/>
        <circle cx="65.175" cy="56.832" r="1.934" fill="#33B871"/>
        <circle cx="47.434" cy="66.972" r="1.934" fill="#33B871"/>
        <path fill="#FFF" d="M56.357 59.42c.052-.008.102.019.123.067.05.089.099.175.145.264.02.033.011.076-.02.1l-.046.036-.542.307-.037.023h.027c.125.057.238.14.33.242.02.023.037.02.063 0l.39-.225c.077-.043.12-.033.166.043l.129.231c.043.073.03.116-.043.159l-.39.221c-.024.017-.03.027-.02.057.077.212.088.442.033.66-.047.175-.13.337-.245.477-.089.111-.19.211-.304.297l-.04.03h.027l.559.185.585.212c.264.096.529.198.793.297.038.005.07.03.084.065.014.035.007.075-.018.104l-.492.284c-.05.029-.108.035-.162.017l-.463-.169-.403-.142-.662-.238-.575-.185c-.034-.008-.062-.031-.076-.063-.06-.1-.119-.202-.175-.304-.02-.026-.026-.06-.017-.091.009-.031.032-.057.063-.068l.271-.155c.162-.083.306-.195.427-.33.094-.104.153-.235.168-.374.007-.067 0-.134-.02-.199l-.036.02-1.048.602-.053.023c-.04.014-.084-.003-.106-.04-.056-.092-.112-.188-.165-.284-.02-.04-.006-.09.033-.112.013-.006.026-.014.036-.024l1.015-.578.037-.02-.023-.02c-.112-.062-.242-.083-.367-.06-.154.027-.302.08-.437.16-.132.079-.268.155-.403.228-.076.046-.129.026-.172-.06-.049-.1-.104-.196-.165-.288-.033-.042-.033-.102 0-.145l2.221-1.237z"/>
        <path fill="#33B871" d="M42.858 61.414H84.839V80.675H42.858z"/>
        <path fill="#249D5A" d="M79.976 78.202h-32.25c.011-.646-.233-1.27-.682-1.736-.448-.466-1.063-.734-1.71-.746v-9.357c1.345-.027 2.414-1.138 2.388-2.483h32.251c-.024 1.345 1.045 2.456 2.39 2.483v9.357c-1.344.027-2.412 1.138-2.387 2.482z"/>
        <circle cx="63.849" cy="71.045" r="4.41" fill="#33B871"/>
        <circle cx="74.065" cy="71.041" r="1.934" fill="#33B871"/>
        <circle cx="53.633" cy="71.045" r="1.934" fill="#33B871"/>
        <path fill="#FFF" d="M65.129 68.916c.048.018.079.067.072.119v.297c-.002.04-.03.072-.07.08H64.413v.03c.08.108.136.233.164.366 0 .033.02.04.05.04h.453c.09 0 .119.03.119.116v.267c0 .09-.033.116-.12.116h-.449c-.03 0-.04 0-.046.04-.037.224-.142.432-.3.595-.13.127-.282.227-.45.294-.132.05-.27.085-.41.103h-.05l.017.023c.128.145.264.29.393.44.129.148.271.314.403.472.182.215.36.433.542.662.03.023.046.06.04.098-.005.038-.03.07-.066.083h-.569c-.056.001-.11-.023-.148-.066l-.314-.377-.281-.33c-.156-.179-.311-.36-.47-.54l-.407-.446c-.024-.024-.038-.057-.036-.092v-.314c0-.08.036-.116.119-.116h.31c.185.006.369-.022.543-.083.133-.044.25-.13.33-.244.04-.055.067-.117.083-.182H62.54c-.042-.008-.072-.044-.073-.086v-.33c0-.047.033-.073.083-.08h1.253v-.026c-.065-.11-.167-.193-.288-.235-.147-.056-.303-.083-.46-.08h-.462c-.09 0-.126-.042-.12-.138.007-.096 0-.222 0-.33-.008-.054.02-.106.07-.127l2.586-.02z"/>
        <path fill="#000" d="M42.862 80.679s-9.188-14.825-12.5-16.73L64.17 44.507l-1.574 2.682-29.302 16.768 9.568 16.723z" opacity=".1"/>
        <path fill="#000" d="M42.862 80.679s-.47-18.052-1.594-21.014l38.04.179-2.906 1.653-33.544-.093.004 19.275z" opacity=".1"/>
        <path fill="#D8A628" d="M40.491 77.333L40.495 68.998 25.67 68.978 25.673 77.488z"/>
        <path fill="#BD8E2D" d="M33.086 72.618c-4.093 0-7.41 1.518-7.41 3.38 0 1.86 3.307 3.375 7.41 3.378 4.102.003 7.405-1.514 7.405-3.379 0-1.864-3.312-3.372-7.405-3.379z"/>
        <path fill="#FAD700" d="M33.086 73.184c-3.412 0-6.173 1.127-6.173 2.512 0 1.386 2.76 2.51 6.173 2.516 3.412.007 6.159-1.13 6.159-2.516 0-1.385-2.75-2.509-6.16-2.512z"/>
        <path fill="#D3B52A" d="M33.086 78.265v-.096h.294v.096h-.294zm-.305 0h-.297v-.099h.294l.003.1zm.893 0v-.099h.294v.096l-.294.003zm-1.488-.016l-.297-.02v-.1c.099 0 .195 0 .294.02l.003.1zm2.083-.02v-.1l.294-.026v.1l-.294.026zm-2.678-.027l-.297-.036v-.096l.294.033.003.1zm3.27-.033v-.095l.29-.04v.096l-.29.04zm-3.862-.04l-.294-.046.017-.099.29.047-.013.099zm4.454-.046l-.017-.095.291-.053.02.096-.294.052zm-5.042-.056c-.1-.016-.195-.04-.291-.06l.02-.095.29.06-.02.095zm5.62-.056l-.023-.096.288-.07.026.097-.29.07zm-6.209-.073l-.287-.076.026-.096.285.076-.024.096zm6.788-.072l-.027-.096.281-.086.03.096-.284.086zm-7.363-.093l-.28-.096.032-.092.278.095-.03.093zm7.935-.09l-.033-.092.274-.106.04.09-.281.109zm-8.49-.112l-.275-.119.04-.089.271.116-.036.092zm9.042-.115l-.04-.09c.093-.04.182-.086.265-.129l.046.086c-.083.03-.172.073-.268.116l-.003.017zm-9.588-.14c-.09-.044-.177-.094-.26-.148l.049-.083.254.146-.043.086zm10.114-.141l-.05-.083c.083-.05.164-.106.241-.165l.06.079c-.07.04-.155.096-.258.152l.007.017zm-10.62-.192c-.08-.06-.157-.124-.231-.192l.066-.073c.07.067.146.129.225.186l-.06.079zm11.112-.182l-.066-.073c.073-.07.142-.139.202-.208l.076.063c-.05.07-.136.145-.212.218zm-11.551-.228c-.072-.077-.135-.161-.189-.251l.086-.047c.047.083.102.162.162.235l-.06.063zm11.938-.241l-.086-.047c.047-.082.085-.17.113-.26l.095.026c-.03.094-.071.185-.122.27v.01zM26.906 76c-.028-.1-.043-.202-.043-.305h.1c0 .094.013.188.04.278l-.097.027zm12.398-.295h-.109c0-.091-.013-.183-.04-.27l.097-.024c.026.096.04.195.04.294h.012zm-12.292-.29l-.096-.027c.03-.099.072-.194.123-.284l.086.05c-.047.082-.085.17-.113.26zm12.061-.252c-.048-.083-.103-.162-.165-.235l.076-.062c.065.078.124.162.175.25l-.086.047zm-11.786-.244l-.073-.063c.064-.078.134-.15.208-.219l.066.073c-.082.07-.145.14-.211.209h.01zm11.422-.202c-.07-.063-.142-.122-.225-.185l.06-.08c.083.063.162.13.231.192l-.066.073zm-10.993-.192l-.06-.08c.077-.055.163-.112.249-.168l.053.086c-.087.05-.17.104-.251.162h.01zm10.527-.159l-.254-.145.046-.086c.09.05.178.1.258.149l-.05.082zm-10.03-.152l-.047-.086c.086-.046.175-.089.268-.132l.043.09-.265.128zm9.511-.125l-.271-.116.04-.093.274.12-.043.089zm-8.99-.123l-.036-.089.281-.109.033.093-.277.105zm8.435-.099l-.278-.096.03-.092.28.096-.032.092zm-7.879-.099l-.03-.096.288-.086.026.096-.284.086zm7.317-.083l-.285-.076.023-.096.288.076-.026.096zm-6.748-.079l-.023-.096.29-.07.02.097-.287.069zm6.176-.066c-.096-.02-.192-.043-.291-.06l.02-.099.29.063-.02.096zm-5.598-.063l-.02-.096.295-.053.016.096-.29.053zm5.016-.05l-.291-.05v-.095l.294.046-.003.1zm-4.434-.05v-.098l.295-.04v.1l-.295.039zm3.849-.036l-.295-.036v-.096l.298.033-.003.1zm-3.26-.036v-.1l.294-.026v.1l-.294.026zm2.671-.026l-.294-.02v-.1l.297.024-.003.096zm-2.083-.02v-.1h.301v.097l-.3.003zm1.491 0h-.294v-.1h.298l-.004.1zm-.899 0v-.1h.314v.1h-.314z"/>
        <path fill="#BD8E2D" d="M33.086 70.235c-4.093 0-7.41 1.514-7.41 3.379 0 1.864 3.307 3.372 7.41 3.378 4.102.007 7.405-1.134 7.405-3.378 0-1.865-3.312-3.376-7.405-3.38z"/>
        <path fill="#FAD700" d="M33.086 70.73c-3.412 0-6.173 1.128-6.173 2.513 0 1.386 2.76 2.513 6.173 2.516 3.412.004 6.159-1.13 6.159-2.516 0-1.385-2.75-2.509-6.16-2.512z"/>
        <path fill="#D3B52A" d="M33.086 75.809v-.1h.294v.1h-.294zm-.305 0h-.297v-.1h.294l.003.1zm.893 0v-.1h.294v.1h-.294zm-1.488 0c-.102 0-.201 0-.297-.02v-.1l.294.024.003.096zm2.083-.017v-.099l.294-.026v.096l-.294.03zm-2.678-.03l-.297-.032v-.1l.294.033.003.1zm3.27-.032v-.096l.29-.04v.096c-.092-.013-.188 0-.29.01v.03zm-3.862-.04l-.294-.046.017-.1.29.047-.013.099zm4.454-.046l-.017-.096.291-.053.02.096-.294.053zm-5.042-.053l-.291-.063.02-.096.29.06-.02.099zm5.62-.06l-.023-.096.288-.07.026.097-.29.07zm-6.209-.073l-.287-.076.026-.096.285.077-.024.095zm6.788-.072l-.027-.096.281-.083.03.093-.284.086zm-7.363-.09l-.28-.095.032-.093.278.093-.03.095zm7.935-.092l-.033-.093c.096-.033.185-.07.274-.106l.04.093-.281.106zm-8.49-.113c-.096-.036-.189-.079-.275-.119l.04-.089.271.12-.036.088zm9.042-.112l-.04-.09c.093-.042.182-.085.265-.131l.046.085c-.083.017-.172.063-.268.116l-.003.02zm-9.588-.139c-.092-.05-.178-.099-.26-.152l.049-.083.254.146-.043.09zm10.114-.145l-.05-.083c.086-.053.169-.11.241-.162l.06.08c-.084.049-.17.094-.258.135l.007.03zm-10.626-.176c-.08-.06-.158-.123-.232-.191l.066-.073c.071.067.146.129.225.185l-.06.08zm11.112-.181l-.066-.073c.072-.07.142-.139.201-.208l.076.062c-.065.063-.133.123-.205.179l-.006.04zm-11.552-.228c-.067-.078-.125-.162-.175-.252l.086-.046c.046.083.1.162.162.235l-.073.063zm11.938-.239l-.085-.05c.047-.082.084-.17.112-.26l.096.03c-.03.087-.07.17-.116.25l-.007.03zM26.9 73.577c-.03-.099-.044-.201-.043-.304h.099c0 .094.013.188.04.278l-.096.026zm12.398-.294H39.195c0-.09-.013-.18-.04-.268l.097-.026c.026.096.04.195.04.294h.006zm-12.286-.307l-.096-.027c.03-.098.072-.192.123-.281l.086.046c-.047.083-.085.17-.113.262zm12.061-.252c-.048-.083-.104-.161-.165-.234l.076-.063c.065.078.124.162.175.251l-.086.046zm-11.786-.244l-.073-.063c.065-.077.135-.15.208-.218l.066.072c-.082.043-.145.126-.211.195l.01.014zm11.422-.199c-.071-.066-.146-.127-.225-.185l.06-.08c.08.06.158.124.231.192l-.066.073zm-10.993-.195l-.06-.08c.077-.055.163-.112.249-.164l.053.082c-.096.04-.179.096-.251.149l.01.013zm10.527-.155l-.254-.149.046-.086c.09.05.178.1.258.152l-.05.083zm-10.03-.152l-.047-.09.268-.132.043.09c-.103.03-.192.072-.275.118l.01.014zm9.511-.126c-.086-.043-.178-.083-.271-.119l.04-.093.274.123-.043.09zm-8.98-.126l-.036-.089.288-.116.033.093-.284.112zm8.435-.099l-.278-.096.03-.092.28.096-.032.092zM29.3 71.33l-.03-.093c.093-.033.189-.059.288-.089l.026.096-.284.086zm7.317-.083l-.285-.076.023-.096.288.077-.026.095zm-6.748-.079l-.023-.096.29-.07.02.097-.287.07zm6.176-.066l-.291-.06.02-.095.29.06-.02.095zm-5.598-.063l-.02-.096.295-.053.016.096-.29.053zm5.016-.05l-.291-.046v-.099l.294.046-.003.1zm-4.434-.05v-.095c.096 0 .195-.03.294-.04v.096l-.294.04zm3.849-.035l-.295-.033v-.1l.298.033-.003.1zm-3.26-.037v-.096l.294-.026v.096l-.294.026zm2.671-.023l-.294-.023v-.1l.297.024-.003.1zm-2.083-.023v-.1h.301v.1h-.3zm1.491 0h-.294v-.1h.298l-.004.1zm-.899 0v-.1h.314v.1h-.314z"/>
        <path fill="#BD8E2D" d="M33.086 68.38c-4.093 0-7.41 1.518-7.41 3.379s3.307 3.372 7.41 3.379c4.102.006 7.405-1.514 7.405-3.38 0-1.864-3.312-3.371-7.405-3.378z"/>
        <path fill="#FAD700" d="M33.086 68.945c-3.412 0-6.173 1.128-6.173 2.513s2.76 2.51 6.173 2.516c3.412.007 6.159-1.13 6.159-2.516 0-1.385-2.75-2.51-6.16-2.513z"/>
        <path fill="#D3B52A" d="M33.086 74.02v-.096h.294v.096h-.294zm-.305 0h-.297v-.099h.294l.003.1zm.893 0v-.099h.294v.096l-.294.003zm-1.488-.016l-.297-.02v-.1l.294.02.003.1zm2.1-.037v-.099l.294-.026v.099l-.294.026zm-2.678-.03l-.298-.032v-.096l.294.033.004.096zm3.27-.03v-.098l.29-.037v.096l-.29.04zm-3.862-.042l-.294-.046.016-.096.291.046-.013.096zm4.453-.043l-.016-.096.29-.053.02.096-.294.053zm-5.042-.056l-.29-.06.02-.096.29.06-.02.096zm5.62-.06l-.022-.096.287-.066.027.096-.291.066zm-6.218-.07c-.096-.026-.192-.049-.288-.079l.027-.092.284.076-.023.096zm6.788-.075l-.027-.093.281-.086.03.093-.284.086zm-7.363-.09l-.281-.095.033-.093.278.096-.03.092zm7.934-.092l-.033-.093c.096-.033.186-.066.275-.106l.04.093-.282.106zm-8.49-.11l-.274-.118.04-.093c.086.043.178.083.27.12l-.036.092zm9.043-.115l-.04-.09.264-.128.047.086c-.09.053-.179.096-.275.139l.004-.007zm-9.588-.139l-.261-.149.05-.082.254.145-.043.086zm10.113-.142l-.05-.083c.084-.05.165-.106.242-.165l.06.08c-.076.062-.162.118-.265.175l.013-.007zm-10.626-.175c-.082-.063-.162-.13-.231-.192l.066-.073c.07.067.146.129.225.185l-.06.08zm11.112-.185l-.066-.07c.073-.07.142-.139.202-.208l.076.063c-.066.078-.137.152-.212.221v-.006zm-11.551-.225c-.067-.078-.126-.162-.176-.251l.086-.05c.048.084.102.163.162.238l-.072.063zm11.938-.242L39.053 72c.047-.082.085-.17.113-.261l.095.026c-.029.1-.07.197-.122.288v-.007zm-12.233-.294c-.029-.097-.043-.199-.043-.3h.1c0 .092.013.185.04.274l-.097.026zm12.398-.29h-.109c0-.092-.013-.184-.04-.272l.097-.026c.026.097.039.197.04.297h.012zm-12.292-.285l-.096-.026c.03-.1.072-.195.123-.285l.086.05c-.048.082-.086.17-.113.261zm12.061-.251c-.048-.084-.103-.162-.165-.235l.076-.063c.066.078.125.162.175.251l-.086.047zm-11.786-.245l-.073-.063c.063-.078.133-.151.208-.218l.066.073c-.074.065-.145.134-.211.208h.01zm11.422-.202c-.071-.066-.146-.127-.225-.185l.06-.08c.083.064.162.13.231.193l-.066.072zm-10.993-.191l-.06-.08c.077-.056.163-.112.249-.168l.053.082c-.096.057-.179.11-.251.166h.01zm10.527-.16c-.083-.049-.165-.098-.254-.145l.046-.085c.09.046.178.099.258.148l-.05.083zm-10.03-.151l-.047-.086c.086-.046.175-.09.268-.132l.043.089c-.103.04-.192.086-.275.129h.01zm9.511-.126l-.271-.119.04-.09.274.12-.043.09zm-8.98-.122l-.036-.09.281-.108.033.092-.277.106zm8.435-.103l-.278-.092.03-.096.28.096-.032.092zm-7.879-.095l-.03-.096.288-.086.026.096-.284.086zm7.317-.083l-.285-.076.023-.096.288.076-.026.096zm-6.748-.08l-.023-.095.29-.07.02.096-.287.07zm6.176-.066l-.291-.062.02-.096.29.063-.02.095zm-5.598-.062l-.02-.096.295-.056.016.099-.29.053zm5.016-.053l-.291-.047v-.095l.294.046-.003.096zm-4.434-.047v-.099l.281-.033v.1c-.096.006-.195.016-.29.032h.01zm3.849-.04l-.295-.032v-.096l.298.033-.003.096zm-3.26-.032v-.1l.294-.026v.1l-.294.026zm2.671-.027l-.294-.02v-.099l.297.02-.003.1zm-2.083-.02v-.099l.301-.016v.099l-.3.016zm1.491-.016h-.294v-.1h.298l-.004.1zm-.899 0v-.096h.314v.1h-.31l-.004-.004z"/>
        <path fill="#BD8E2D" d="M33.086 66.66c-4.093 0-7.41 1.515-7.41 3.38 0 1.864 3.307 3.372 7.41 3.379 4.102.006 7.405-1.518 7.405-3.38 0-1.86-3.312-3.372-7.405-3.378z"/>
        <path fill="#FAD700" d="M33.086 67.223c-3.412 0-6.173 1.13-6.173 2.516 0 1.385 2.76 2.51 6.173 2.512 3.412.004 6.159-1.127 6.159-2.512s-2.75-2.51-6.16-2.516z"/>
        <path fill="#D3B52A" d="M33.086 72.314v-.099h.294v.1h-.294zm-.305 0h-.297v-.096h.294l.003.096zm.893 0v-.096l.294-.016v.1l-.294.012zm-1.488 0l-.297-.023v-.096l.294.02.003.1zm2.083-.02v-.099l.294-.026v.096l-.294.03zm-2.678-.03l-.297-.032v-.096l.294.033.003.096zm3.27-.03v-.098c.1 0 .195-.023.29-.04v.1l-.29.039zm-3.862-.042l-.294-.046.017-.096.29.046-.013.096zm4.454-.043l-.017-.1.291-.052.02.1-.294.052zm-5.042-.056l-.291-.063.02-.096.29.063-.02.096zm5.62-.06l-.023-.096.288-.066.026.093c-.089-.013-.185.02-.284.02l-.007.05zm-6.209-.072l-.287-.077.026-.092.285.076-.024.093zm6.788-.073l-.027-.096c.096-.027.192-.053.281-.083l.03.093-.284.086zm-7.363-.09l-.28-.095.032-.093.278.096-.03.093zm7.935-.092l-.033-.093c.096-.033.185-.069.274-.105l.04.092-.281.106zm-8.49-.112c-.094-.035-.185-.075-.275-.12l.04-.089c.086.043.179.08.271.12l-.036.089zm9.042-.113l-.04-.09c.093-.042.182-.085.265-.131l.046.089c-.083.003-.172.05-.268.092l-.003.04zm-9.588-.139c-.092-.05-.178-.099-.26-.152l.049-.082.254.148-.043.086zm10.107-.185l-.05-.083c.084-.05.164-.103.242-.162l.06.08c-.082.06-.165.114-.252.165zm-10.613-.165c-.082-.063-.162-.13-.231-.192l.066-.073c.072.066.147.128.225.185l-.06.08zm11.112-.185l-.066-.073c.072-.064.14-.134.202-.208l.076.062c-.066.076-.136.146-.212.212v.007zm-11.551-.225c-.071-.078-.134-.162-.189-.251l.086-.05c.047.083.1.162.162.235l-.06.066zm11.938-.241l-.086-.05c.047-.081.085-.168.113-.258l.095.027c-.031.094-.072.185-.122.27v.01zm-12.233-.295c-.028-.097-.043-.199-.043-.3h.1c0 .092.013.185.04.274l-.097.026zm12.398-.29h-.109c0-.092-.013-.184-.04-.272l.097-.026c.026.097.039.197.04.297h.012zm-12.292-.298l-.096-.027c.03-.099.072-.194.123-.284l.086.05c-.048.082-.086.17-.113.26zm12.061-.251c-.048-.084-.104-.164-.165-.239l.076-.062c.065.079.123.163.175.25l-.086.05zm-11.786-.245l-.073-.066c.065-.077.135-.15.208-.218l.066.072c-.075.066-.145.137-.211.212h.01zm11.422-.202c-.071-.066-.146-.128-.225-.185l.06-.08c.083.064.162.13.231.192l-.066.073zm-10.993-.192l-.06-.079c.08-.06.163-.117.249-.169l.053.083c-.087.05-.17.106-.251.165h.01zm10.527-.158c-.083-.05-.165-.1-.254-.146l.046-.089c.09.05.178.1.258.152l-.05.083zm-10.03-.152l-.047-.086c.086-.047.175-.093.268-.136l.043.09c-.103.042-.192.085-.275.132h.01zm9.511-.126l-.271-.119.04-.09c.092.037.185.077.274.12l-.043.089zm-8.99-.116l-.036-.092.281-.106.033.093c-.095.026-.188.062-.277.105zm8.435-.102l-.278-.096.03-.093.28.096-.032.093zm-7.879-.1l-.03-.092.288-.086.026.093-.284.086zm7.317-.082l-.285-.076.023-.096.288.08-.026.092zm-6.748-.08l-.023-.095.29-.066.02.096-.287.066zm6.176-.065l-.291-.06.02-.096.29.06-.02.096zm-5.598-.06l-.02-.1.295-.052.016.096-.29.056zm5.016-.053l-.291-.046v-.096l.294.046-.003.096zm-4.434-.046v-.1l.295-.039v.1c-.1.002-.199.016-.295.032v.007zm3.849-.04l-.295-.033v-.1l.298.037-.003.096zm-3.26-.033v-.1l.294-.026v.1l-.294.026zm2.671-.026c-.096 0-.195 0-.294-.02v-.1l.297.02-.003.1zm-2.083-.023v-.096l.301-.017v.1l-.3.013zm1.491 0h-.294v-.096h.298l-.004.096zm-.899 0v-.1h.314v.1h-.314z"/>
        <path fill="#FFC500" d="M33.086 64.208c-4.09.006-7.396 1.517-7.396 3.379 0 1.86 3.306 3.372 7.409 3.378 4.103.007 7.406-1.514 7.406-3.378 0-1.865-3.326-3.373-7.42-3.38z"/>
        <path fill="#F9A535" d="M39.142 77.604c-.427.256-.88.47-1.348.638-.442.157-.892.287-1.35.39-.43.096-.879.176-1.352.235-.472.06-.886.093-1.348.112H32.392c-.464-.02-.916-.056-1.353-.112-.436-.056-.919-.142-1.349-.238-.457-.105-.907-.237-1.349-.397-.47-.168-.922-.384-1.349-.644-.586-.317-1.051-.82-1.322-1.429v1.776c.297.572.757 1.044 1.322 1.355.427.264.88.486 1.35.661.44.164.89.3 1.348.407.445.107.895.19 1.35.248.436.06.888.103 1.351.122.228 0 .457.017.691.017.235 0 .44 0 .662-.017.462-.02.915-.06 1.348-.115.434-.057.923-.146 1.353-.245.457-.107.907-.242 1.349-.403.468-.173.92-.389 1.348-.645.577-.314 1.046-.793 1.35-1.375v-1.809c-.272.628-.747 1.145-1.35 1.468z"/>
        <path fill="#F9A535" d="M39.142 75.402c-.427.255-.88.468-1.348.635-.441.16-.892.29-1.35.393-.43.096-.879.176-1.352.235-.472.06-.886.093-1.348.11-.219 0-.437.016-.662.016-.225 0-.466 0-.69-.017-.464-.02-.916-.06-1.353-.112-.436-.053-.919-.142-1.349-.242-.457-.102-.908-.233-1.349-.393-.47-.175-.922-.396-1.349-.661-.587-.317-1.053-.82-1.322-1.432v1.809c.296.574.756 1.047 1.322 1.359.427.264.88.485 1.35.66.44.165.89.3 1.348.407.445.106.896.189 1.35.248.436.06.888.1 1.351.123h1.353c.462-.02.915-.06 1.348-.116.455-.06.906-.143 1.353-.248.457-.106.908-.24 1.349-.403.47-.17.921-.386 1.348-.645.579-.312 1.049-.791 1.35-1.375V73.92c-.273.63-.748 1.151-1.35 1.481z"/>
        <path fill="#F9A535" d="M39.142 73.35c-.427.255-.879.468-1.348.634-.441.16-.892.29-1.35.393-.43.096-.879.176-1.352.235-.472.06-.886.093-1.348.11-.219 0-.437.016-.662.016-.225 0-.466 0-.69-.017-.464-.02-.916-.06-1.353-.112-.453-.058-.904-.139-1.349-.242-.46-.104-.912-.237-1.355-.4-.47-.17-.922-.385-1.35-.644-.587-.317-1.052-.82-1.322-1.432V73.7c.296.574.757 1.047 1.323 1.358.427.265.878.486 1.349.662.44.163.89.3 1.349.406.445.106.895.188 1.348.248.437.06.89.103 1.353.123H33.737c.463-.02.916-.06 1.349-.116.454-.06.906-.143 1.352-.248.457-.107.908-.24 1.349-.4.469-.173.92-.388 1.349-.645.578-.314 1.048-.794 1.349-1.379v-1.808c-.274.619-.746 1.129-1.343 1.448z"/>
        <path fill="#F9A535" d="M39.142 71.296c-.427.256-.879.469-1.348.635-.441.16-.892.29-1.35.393-.43.096-.879.175-1.352.235-.472.06-.886.093-1.348.112h-.662c-.225 0-.466 0-.69-.016-.464-.02-.916-.056-1.353-.113-.453-.057-.904-.138-1.349-.24-.457-.103-.908-.235-1.349-.394-.47-.17-.921-.386-1.349-.645-.587-.317-1.053-.82-1.322-1.432v1.822c.297.573.757 1.044 1.322 1.356.427.264.88.485 1.35.66.44.165.89.3 1.348.407.445.106.896.189 1.35.248.436.06.888.103 1.351.123.228 0 .457.016.691.016.235 0 .44 0 .662-.016.462-.02.915-.06 1.348-.116.455-.06.906-.143 1.353-.248.457-.106.907-.24 1.349-.4.47-.176.921-.398 1.348-.661.578-.312 1.048-.79 1.35-1.372v-1.812c-.274.624-.75 1.137-1.35 1.458z"/>
        <path fill="#F9A535" d="M39.142 69.177c-.427.255-.88.467-1.348.635-.441.159-.892.29-1.35.393-.43.096-.879.175-1.352.235-.472.06-.886.092-1.348.109H32.392c-.464-.02-.916-.056-1.353-.113-.453-.057-.904-.138-1.349-.24-.46-.103-.912-.234-1.355-.394-.47-.17-.922-.386-1.35-.645-.587-.317-1.052-.82-1.322-1.432v1.809c.296.574.757 1.047 1.323 1.359.427.264.878.485 1.349.66.44.165.89.3 1.349.408.445.105.895.188 1.348.247.437.06.89.103 1.353.123H33.737c.463-.02.916-.06 1.349-.116.454-.06.906-.143 1.352-.248.458-.106.908-.24 1.349-.403.47-.17.92-.385 1.349-.642.578-.313 1.048-.794 1.349-1.378v-1.809c-.275.617-.747 1.124-1.343 1.442z"/>
        <path fill="#F9A535" d="M33.112 70c-3.177 0-6.56-.926-6.56-2.645 0-1.72 3.383-2.628 6.56-2.645 3.177-.016 6.563.926 6.563 2.645 0 1.72-3.386 2.625-6.563 2.645zm0-4.533c-3.405 0-5.782.992-5.782 1.901 0 .91 2.373 1.898 5.782 1.901 3.409.004 5.786-.991 5.786-1.9 0-.91-2.38-1.915-5.79-1.918l.004.016z"/>
        <path fill="#F9A535" d="M37.674 67.468H36.6c-.042.34-.213.65-.48.866l-1.322-.152c.276-.2.454-.508.49-.847 0-.29-.245-.489-.692-.489-.397-.01-.77.196-.972.539-.403.545-.962.919-2.046.919-.992 0-1.756-.33-1.984-.863h-1.06v-.5h.99c.025-.283.156-.546.368-.736l1.263.145c-.22.184-.357.448-.38.734 0 .33.314.44.628.44.367 0 .601-.179.959-.612.469-.608 1.084-.853 2.089-.853s1.845.33 2.07.91h1.137l.016.499z"/>
        <path fill="#D8A628" d="M39.681 66.621L39.681 58.286 24.857 58.267 24.863 66.78z"/>
        <path fill="#BD8E2D" d="M32.272 61.91c-4.093 0-7.405 1.514-7.405 3.379 0 1.864 3.306 3.372 7.405 3.379 4.1.006 7.41-1.518 7.41-3.38 0-1.86-3.317-3.371-7.41-3.378z"/>
        <path fill="#FAD700" d="M32.272 62.472c-3.408 0-6.172 1.13-6.172 2.516 0 1.385 2.764 2.51 6.172 2.513 3.409.003 6.173-1.128 6.173-2.513s-2.76-2.51-6.173-2.516z"/>
        <path fill="#D3B52A" d="M32.272 67.55v-.099h.298v.1h-.298zm-.304 0h-.297v-.099h.297v.1zm.893 0v-.096l.297-.016v.099l-.297.013zm-1.488 0l-.298-.023v-.096l.295.02.003.1zm2.083-.02v-.099l.294-.026v.096c-.092-.014-.192-.007-.294.003v.026zm-2.678-.03l-.294-.032v-.096c.096 0 .191.023.29.03l.004.099zm3.273-.03v-.098l.294-.04v.1l-.294.039zm-3.862-.042l-.294-.046v-.096l.294.046v.096zm4.45-.043v-.1l.291-.052.02.099-.31.053zm-5.038-.056l-.294-.063.023-.096.287.063-.016.096zm5.62-.06l-.02-.096.288-.07.023.097c-.092 0-.188.023-.287.043l-.004.026zm-6.205-.07l-.291-.079.03-.092.284.076-.023.096zm6.784-.075l-.027-.096.285-.083.03.093-.288.086zm-7.356-.1l-.285-.095.034-.093.28.096-.03.092zm7.934-.092l-.033-.093c.096-.033.189-.07.278-.105l.037.092-.282.106zm-8.49-.112c-.092-.037-.185-.077-.274-.12l.04-.089c.089.043.178.083.27.12l-.036.089zm9.043-.126l-.043-.09c.092-.042.181-.085.264-.132l.046.09-.267.132zm-9.588-.139l-.261-.149.053-.086.254.15-.046.085zm10.117-.142l-.053-.086c.086-.053.168-.106.244-.162l.057.08c-.078.054-.161.11-.252.165l.004.003zm-10.626-.175c-.082-.06-.16-.124-.235-.192l.066-.073c.07.063.146.122.225.185l-.056.08zm11.108-.186l-.066-.072c.073-.064.14-.133.202-.209l.076.067c-.067.075-.139.146-.215.211l.003.003zm-11.551-.224c-.066-.078-.125-.163-.176-.252l.086-.05c.049.085.104.164.166.239l-.076.063zm11.938-.242l-.086-.05c.049-.08.086-.167.113-.257l.095.026c-.03.098-.072.191-.125.278l.003.003zm-12.233-.294c-.027-.098-.041-.2-.043-.3h.1c0 .092.013.185.04.274l-.097.026zm12.402-.29h-.1c0-.092-.012-.184-.036-.272l.096-.026c.026.097.04.197.04.297zm-12.309-.292l-.093-.03c.029-.098.069-.192.12-.28l.085.049c-.047.082-.085.17-.112.261zm12.06-.251c-.046-.084-.1-.164-.161-.238l.076-.063c.064.08.121.163.172.251l-.086.05zm-11.782-.245l-.076-.066c.066-.077.137-.15.211-.218l.063.073c-.07.065-.136.135-.198.208v.003zm11.42-.201c-.072-.067-.147-.129-.226-.186l.06-.079c.08.06.158.124.231.192l-.066.073zm-10.994-.192l-.06-.08c.081-.06.165-.117.252-.168l.05.083c-.086.062-.166.105-.242.162v.003zm10.527-.159c-.08-.05-.165-.099-.255-.145l.047-.09c.092.05.178.1.26.153l-.052.082zm-10.03-.152l-.047-.086c.086-.046.178-.092.271-.135l.04.089-.265.132zm9.514-.126l-.27-.119.035-.089c.093.037.186.076.275.12l-.04.088zm-8.98-.122l-.036-.092c.09-.037.182-.073.278-.106l.033.092-.274.106zm8.435-.102l-.281-.096.03-.093c.099.03.191.063.284.096l-.033.093zm-7.879-.1l-.033-.092.288-.086.026.096-.28.082zm7.317-.082l-.288-.076.026-.096.288.08-.026.092zm-6.748-.08l-.027-.092c.096-.027.192-.05.291-.07l.023.096-.287.066zm6.172-.062l-.287-.063.02-.096.29.06-.023.099zm-5.597-.066l-.02-.096.294-.053.017.099c-.1.007-.195.03-.29.046v.004zm5.019-.05l-.294-.046.016-.096.294.046-.016.096zm-4.434-.046v-.1l.298-.04v.1c-.106.007-.189.02-.298.036v.004zm3.849-.04l-.295-.033v-.1l.295.037v.096zm-3.264-.033v-.1l.298-.026v.1l-.298.026zm2.675-.027l-.297-.023v-.096l.297.02v.1zm-2.083-.023v-.096l.298-.016v.1l-.298.012zm1.491 0h-.297v-.099h.297v.1zm-.899 0v-.099h.324v.096h-.33l.006.003z"/>
        <path fill="#BD8E2D" d="M32.272 59.523c-4.093 0-7.405 1.517-7.405 3.379 0 1.861 3.306 3.375 7.405 3.379 4.1.003 7.41-1.131 7.41-3.38 0-1.86-3.317-3.371-7.41-3.378z"/>
        <path fill="#FAD700" d="M32.272 60.022c-3.408 0-6.172 1.128-6.172 2.513s2.764 2.51 6.172 2.512c3.409.004 6.173-1.127 6.173-2.512s-2.76-2.51-6.173-2.513z"/>
        <path fill="#D3B52A" d="M32.272 65.097v-.096h.298v.096h-.298zm-.304 0h-.297v-.096h.297v.096zm.893 0v-.1h.297v.097l-.297.003zm-1.488-.017l-.298-.02v-.099c.096 0 .196 0 .295.02l.003.1zm2.083-.02v-.099l.294-.026v.1l-.294.026zm-2.678-.026l-.294-.036v-.096l.29.033.004.1zm3.273-.033v-.099l.294-.036v.095l-.294.04zm-3.862-.043l-.294-.046v-.096l.294.046v.096zm4.45-.043v-.096l.291-.053.02.096-.31.053zm-5.038-.056l-.294-.06.02-.089.287.06-.013.089zm5.62-.056l-.02-.1.288-.066.023.096-.29.07zm-6.202-.093c-.1-.026-.195-.05-.29-.08l.029-.092.284.076-.023.096zm6.784-.073l-.026-.095.284-.086.03.096-.288.085zm-7.36-.092l-.284-.096.034-.093.28.096-.03.093zm7.935-.093l-.033-.092.278-.103.037.09-.282.105zm-8.49-.109l-.274-.119.04-.09.27.117-.036.092zm9.046-.115l-.043-.09.264-.129.047.086c-.093.056-.182.1-.271.142l.003-.01zm-9.588-.14c-.092-.046-.178-.099-.261-.148l.053-.083c.08.05.165.1.254.146l-.046.086zm10.117-.142l-.053-.082c.086-.056.169-.11.245-.165l.056.079c-.08.064-.164.123-.255.178l.007-.01zm-10.626-.175c-.082-.059-.16-.123-.235-.191l.066-.073c.07.063.146.125.225.185l-.056.08zm11.109-.185l-.067-.073c.073-.063.141-.133.202-.208l.076.066c-.067.08-.14.156-.218.225l.007-.01zm-11.559-.198c-.066-.078-.125-.162-.175-.252l.086-.05c.048.085.104.164.165.239l-.076.063zm11.939-.242l-.086-.046c.048-.082.086-.17.112-.261l.096.026c-.03.093-.071.182-.122.265v.016zm-12.233-.294c-.027-.098-.042-.199-.043-.3h.1c0 .092.013.185.039.274l-.096.026zm12.401-.29h-.099c0-.092-.013-.183-.036-.272l.096-.023c.026.096.04.195.04.294zM26.19 62.27l-.093-.026c.028-.1.068-.195.12-.284l.085.05c-.046.076-.083.158-.112.244v.016zm12.06-.251c-.046-.083-.1-.162-.161-.235l.076-.063c.065.079.122.163.172.252l-.086.046zm-11.782-.245l-.076-.062c.065-.078.136-.15.211-.219l.063.073c-.07.06-.136.124-.198.192v.016zm11.42-.201c-.072-.067-.147-.129-.226-.185l.06-.08c.082.063.162.13.231.192l-.066.073zm-10.994-.192l-.06-.08c.08-.056.163-.112.252-.168l.05.083c-.086.04-.166.092-.242.148v.017zm10.527-.159c-.08-.05-.165-.099-.255-.145l.047-.086c.092.046.178.099.26.149l-.052.082zm-10.03-.152l-.047-.086c.086-.046.178-.09.271-.132l.04.09c-.09.022-.179.069-.265.112v.016zm9.514-.125l-.27-.12.035-.089.275.12-.04.089zm-8.98-.123l-.036-.09.278-.108.033.092-.274.106zm8.435-.099l-.281-.096.03-.096.284.096-.033.096zm-7.879-.1l-.033-.095.288-.086.026.096-.28.086zm7.317-.082l-.288-.08.026-.092.288.076-.026.096zm-6.748-.08l-.027-.095.291-.07.023.096-.287.07zm6.172-.065l-.287-.063.02-.096.29.063-.023.096zm-5.597-.063l-.02-.096.294-.056.017.099-.29.053zm5.019-.053l-.294-.046.016-.096.294.046-.016.096zm-4.434-.046v-.1l.298-.04v.1l-.298.04zm3.849-.04l-.295-.033v-.096l.295.033v.096zm-3.264-.033v-.1l.298-.026v.1l-.298.026zm2.675-.026c-.1 0-.198-.017-.297-.02v-.1l.297.024v.096zm-2.083-.02v-.1h.298v.067l-.298.033zm1.491-.017h-.297V60h.297v.1zm-.906-.016v-.096h.331v.099h-.33v-.003z"/>
        <path fill="#BD8E2D" d="M32.272 57.671c-4.093 0-7.405 1.515-7.405 3.38 0 1.864 3.306 3.372 7.405 3.378 4.1.007 7.41-1.517 7.41-3.379 0-1.861-3.317-3.375-7.41-3.379z"/>
        <path fill="#FAD700" d="M32.272 58.234c-3.408 0-6.172 1.127-6.172 2.515 0 1.389 2.764 2.51 6.172 2.513 3.409.003 6.173-1.127 6.173-2.513 0-1.385-2.76-2.512-6.173-2.515z"/>
        <path fill="#D3B52A" d="M32.272 63.312v-.1h.298v.1h-.298zm-.304 0h-.297v-.1h.297v.1zm.893 0v-.096l.297-.017v.1l-.297.013zm-1.488 0l-.298-.023v-.096l.295.02.003.099zm2.083-.02v-.1l.294-.026v.1l-.294.026zm-2.678-.03l-.294-.033v-.1l.29.034.004.1zm3.273-.033v-.096l.294-.04v.1l-.294.036zm-3.862-.04l-.294-.046v-.1l.294.05v.096zm4.45-.043v-.099l.291-.053.02.096-.31.056zm-5.038-.089l-.294-.063.023-.096.287.063-.016.096zm5.62-.06l-.02-.095c.096-.023.192-.043.288-.07l.023.096c-.092.033-.188.053-.287.076l-.004-.006zm-6.205-.072l-.291-.076.03-.096.284.08-.023.092zm6.784-.073l-.027-.096.285-.082.03.092-.288.086zm-7.36-.09l-.284-.095.033-.093.281.093-.03.096zm7.935-.092l-.033-.092c.096-.033.189-.07.278-.106l.036.093-.28.105zm-8.49-.112c-.093-.036-.185-.076-.274-.12l.04-.088c.089.043.178.079.27.119l-.036.089zm9.046-.112l-.043-.09c.092-.043.181-.086.264-.132l.046.09-.267.132zm-9.588-.14l-.261-.148.053-.086c.079.05.165.1.254.145l-.046.09zm10.117-.142l-.053-.085c.086-.053.168-.106.244-.162l.057.079c-.078.062-.161.12-.252.175l.004-.007zm-10.626-.178c-.082-.058-.16-.12-.235-.188l.066-.073.225.185-.056.076zm11.108-.182l-.066-.073c.072-.065.139-.134.202-.208l.076.063c-.065.08-.137.156-.215.225l.003-.007zm-11.551-.228c-.067-.076-.126-.16-.176-.248l.086-.05c.048.084.103.162.166.235l-.076.063zm11.938-.238l-.086-.05c.05-.081.087-.17.113-.26l.095.029c-.03.1-.072.197-.125.288l.003-.007zm-12.233-.294c-.027-.098-.041-.2-.043-.301h.1c0 .093.013.185.04.274l-.097.027zm12.402-.291h-.1c0-.092-.012-.183-.036-.271l.096-.027c.026.097.04.197.04.298zm-12.306-.291l-.092-.03c.028-.098.068-.192.119-.28l.086.049c-.05.084-.088.174-.116.267l.003-.006zm12.061-.251c-.047-.084-.101-.164-.162-.238l.076-.063c.064.079.122.163.172.251l-.086.05zm-11.783-.245l-.076-.066c.066-.077.137-.15.212-.218l.062.072c-.071.069-.139.142-.201.219l.003-.007zm11.42-.202c-.071-.066-.146-.128-.225-.185l.06-.08c.08.06.157.124.23.193l-.066.072zm-10.993-.195l-.06-.076c.08-.056.162-.116.251-.168l.05.082c-.09.06-.169.116-.245.169l.004-.007zm10.526-.155l-.254-.149.046-.086c.093.05.178.1.261.152l-.053.083zm-10.03-.152l-.047-.086c.086-.047.179-.093.271-.136l.04.09-.265.132zm9.514-.126c-.089-.043-.178-.08-.27-.119l.036-.093.274.123-.04.09zm-8.979-.122l-.036-.093c.089-.036.182-.073.277-.106l.033.093-.274.106zm8.434-.103l-.281-.096.03-.092c.099.03.191.063.284.096l-.033.092zm-7.879-.099l-.033-.092.288-.086.026.092-.28.086zm7.317-.083l-.288-.076.027-.095.287.079-.026.092zm-6.748-.079l-.026-.096.29-.066.024.096-.288.066zm6.173-.066l-.288-.06.01-.095.29.06-.012.095zm-5.598-.063l-.02-.096.295-.053.016.096-.29.053zm5.02-.05l-.295-.046.016-.099.295.05-.017.096zm-4.438-.042v-.096l.298-.04v.096l-.298.04zm3.849-.037l-.295-.033v-.099l.295.033v.1zm-3.264-.036v-.096l.298-.026v.095l-.298.027zm2.675-.023l-.297-.023v-.096l.297.02v.099zm-2.083-.023v-.096h.298v.099l-.298-.003zm1.491 0h-.297v-.1h.297v.1zm-.899 0v-.1h.324v.1h-.33.006z"/>
        <path fill="#BD8E2D" d="M32.272 55.949c-4.093 0-7.405 1.517-7.405 3.382 0 1.865 3.306 3.372 7.405 3.376 4.1.003 7.41-1.515 7.41-3.376s-3.317-3.375-7.41-3.382z"/>
        <path fill="#FAD700" d="M32.272 56.514c-3.408 0-6.172 1.128-6.172 2.513s2.764 2.51 6.172 2.516c3.409.007 6.173-1.127 6.173-2.516s-2.76-2.51-6.173-2.513z"/>
        <path fill="#D3B52A" d="M32.272 61.593v-.1h.298v.1h-.298zm-.304 0h-.297v-.1h.297v.1zm.893 0v-.1h.297v.1h-.297zm-1.488 0l-.298-.02v-.1l.295.024.003.096zm2.083-.02v-.096l.294-.027v.096l-.294.027zm-2.678-.027l-.294-.033v-.099l.29.033.004.1zm3.273-.033v-.096l.294-.04v.097c-.096-.014-.195 0-.294.01v.03zm-3.862-.04l-.294-.046v-.099l.294.046v.1zm4.45-.046v-.096l.291-.053.02.096-.31.053zm-5.038-.056c-.1-.017-.198-.04-.294-.06l.023-.095c.092.02.192.043.287.06l-.016.095zm5.62-.056l-.02-.096.288-.07.023.096-.29.07zm-6.205-.073l-.291-.076.03-.096.284.076-.023.096zm6.784-.073l-.027-.096.285-.085.03.095-.288.086zm-7.36-.089l-.284-.096.033-.096.281.096-.03.096zm7.935-.092l-.033-.093.278-.106.036.09-.28.109zm-8.49-.113c-.093-.036-.185-.08-.274-.119l.04-.09.27.117-.036.092zm9.046-.132l-.043-.093c.092-.04.181-.086.264-.129l.046.086c-.089.037-.178.083-.267.136zm-9.588-.142c-.09-.045-.177-.095-.261-.15l.053-.082c.079.05.165.1.254.146l-.046.086zm10.117-.142l-.053-.083c.086-.053.168-.11.244-.165l.057.082c-.082.056-.165.108-.252.156l.004.01zm-10.626-.176c-.083-.059-.161-.123-.235-.191l.066-.073c.07.063.146.125.225.185l-.056.08zm11.108-.182l-.066-.072c.072-.065.139-.135.202-.209l.076.063c-.067.071-.139.137-.215.199l.003.02zm-11.551-.228c-.067-.077-.126-.161-.176-.25l.086-.047c.048.083.103.162.166.235l-.076.062zm11.938-.238l-.086-.05c.049-.081.086-.169.113-.26l.095.026c-.03.096-.072.188-.125.274l.003.01zm-12.233-.294c-.027-.099-.041-.201-.043-.304h.1c0 .094.013.187.04.278l-.097.026zm12.402-.294h-.1c0-.09-.012-.18-.036-.268l.096-.026c.026.095.04.194.04.294zm-12.309-.288l-.093-.026c.028-.099.068-.193.12-.281l.085.046c-.047.083-.084.17-.112.261zm12.064-.264c-.046-.084-.1-.162-.162-.235l.076-.063c.065.079.122.163.172.251l-.086.047zM26.47 58.25l-.076-.063c.066-.077.137-.15.212-.218l.062.073c-.075.07-.142.14-.201.208h.003zm11.42-.198c-.071-.068-.146-.131-.225-.189l.06-.076c.08.059.157.122.23.189l-.066.076zm-10.993-.195l-.06-.08c.08-.056.162-.112.251-.168l.05.086c-.09.053-.169.109-.245.162h.004zm10.526-.156l-.254-.149.046-.086.261.15-.053.085zm-10.03-.152l-.047-.09c.086-.045.179-.088.271-.131l.04.089-.265.132zm9.514-.125c-.089-.043-.178-.083-.27-.12l.036-.092.274.122-.04.09zm-8.979-.126l-.036-.09.277-.108.033.095-.274.103zm8.434-.1l-.281-.095.03-.093c.099.03.191.063.284.096l-.033.093zm-7.879-.098l-.033-.096.288-.086.026.096-.28.086zm7.317-.083l-.288-.076.027-.096.287.08-.026.092zm-6.748-.08l-.026-.095.3-.066.024.095-.298.067zm6.173-.066l-.288-.06.02-.095.29.06-.022.095zm-5.598-.062l-.02-.096.295-.053.016.096-.29.053zm5.02-.05l-.295-.046.016-.1.295.047-.017.099zm-4.434-.05v-.095l.297-.04v.096l-.297.04zm3.848-.036l-.294-.033v-.1l.294.034v.099zm-3.263-.036v-.096l.297-.03v.1l-.297.026zm2.674-.027l-.297-.02v-.099l.297.023v.096zm-2.082-.02v-.099h.297v.096l-.297.003zm1.49 0h-.297v-.099h.298v.1zm-.899 0v-.099h.321v.1h-.33.01z"/>
        <path fill="#FFC500" d="M32.272 53.5c-4.093 0-7.405 1.513-7.405 3.378 0 1.865 3.306 3.372 7.405 3.379 4.1.006 7.41-1.518 7.41-3.379s-3.317-3.376-7.41-3.379z"/>
        <path fill="#F9A535" d="M38.332 66.876c-.428.257-.88.471-1.352.638-.44.158-.891.289-1.349.39-.445.102-.895.181-1.349.238-.436.053-.886.09-1.352.11H31.578c-.463-.02-.912-.06-1.349-.117-.453-.056-.903-.135-1.349-.238-.459-.102-.91-.234-1.352-.396-.47-.168-.923-.384-1.349-.645-.588-.314-1.054-.817-1.322-1.428v1.808c.296.573.757 1.045 1.322 1.356.427.264.878.486 1.349.66.442.165.893.3 1.352.407.445.106.896.189 1.35.248.436.06.885.1 1.348.123H32.93c.463-.02.916-.06 1.352-.12.454-.056.904-.138 1.35-.244.457-.105.908-.24 1.348-.403.471-.17.924-.386 1.352-.645.578-.313 1.048-.792 1.35-1.375v-1.809c-.278.617-.752 1.124-1.35 1.442z"/>
        <path fill="#F9A535" d="M38.332 64.69c-.428.258-.88.472-1.352.638-.441.158-.892.288-1.349.39-.43.096-.88.18-1.349.239-.47.06-.886.089-1.352.109H31.578c-.463-.023-.912-.06-1.349-.116-.453-.056-.903-.136-1.349-.238-.459-.103-.91-.236-1.352-.397-.47-.167-.923-.383-1.349-.644-.587-.316-1.052-.819-1.322-1.429v1.799c.296.573.757 1.045 1.322 1.355.427.265.878.487 1.349.662.442.165.893.302 1.352.41.445.105.896.188 1.35.247.44.06.89.1 1.348.12.228 0 .46.016.691.016h.661c.463-.02.916-.06 1.352-.119.454-.059.904-.14 1.35-.245.457-.105.908-.24 1.348-.403.47-.171.923-.387 1.352-.645.577-.314 1.046-.793 1.35-1.375v-1.832c-.277.622-.752 1.134-1.35 1.458z"/>
        <path fill="#F9A535" d="M38.332 62.637c-.428.258-.88.472-1.352.638-.44.159-.891.29-1.349.39-.445.102-.895.182-1.349.239-.436.052-.886.089-1.352.109H31.578c-.463-.02-.912-.06-1.349-.116-.453-.056-.903-.136-1.349-.238-.459-.104-.91-.236-1.352-.397-.47-.167-.923-.383-1.349-.645-.587-.316-1.052-.818-1.322-1.428v1.809c.296.573.757 1.044 1.322 1.355.427.265.878.486 1.349.661.442.166.893.303 1.352.41.445.106.896.189 1.35.248.44.06.89.1 1.348.12.228 0 .46.016.691.016h.661c.463-.02.916-.06 1.352-.12.454-.056.904-.138 1.35-.244.457-.105.908-.24 1.348-.403.47-.171.923-.387 1.352-.645.578-.313 1.048-.792 1.35-1.375v-1.809c-.28.611-.755 1.112-1.35 1.425z"/>
        <path fill="#F9A535" d="M38.332 60.584c-.428.258-.88.471-1.352.638-.44.159-.891.29-1.349.39-.445.102-.895.182-1.349.238-.436.053-.886.09-1.352.11H31.578c-.463-.02-.912-.06-1.349-.116-.453-.057-.903-.136-1.349-.238-.459-.102-.91-.235-1.352-.397-.471-.173-.924-.394-1.349-.661-.587-.316-1.052-.819-1.322-1.428v1.808c.296.573.757 1.045 1.322 1.356.427.264.878.486 1.349.66.442.163.894.3 1.352.407.445.106.896.189 1.35.248.44.06.89.1 1.348.12.228 0 .46.016.691.016h.661c.463-.02.916-.06 1.352-.12.454-.056.904-.138 1.35-.244.457-.105.908-.24 1.348-.403.471-.176.924-.398 1.352-.661.577-.315 1.046-.794 1.35-1.376v-1.808c-.274.624-.75 1.139-1.35 1.461z"/>
        <path fill="#F9A535" d="M38.332 58.465c-.428.257-.88.471-1.352.638-.44.159-.891.289-1.349.39-.445.103-.895.18-1.349.235-.436.056-.886.092-1.352.112H31.578c-.463-.02-.912-.06-1.349-.115-.453-.057-.903-.136-1.349-.238-.459-.104-.91-.236-1.352-.397-.47-.17-.922-.385-1.349-.645-.587-.316-1.052-.818-1.322-1.428v1.808c.296.573.757 1.045 1.322 1.356.427.265.878.486 1.349.661.442.165.893.302 1.352.41.445.106.896.188 1.35.248.44.06.89.1 1.348.119.228 0 .46.017.691.017h.661c.463-.02.916-.06 1.352-.12.454-.058.904-.14 1.35-.244.457-.106.908-.24 1.348-.404.47-.17.923-.386 1.352-.644.577-.315 1.046-.793 1.35-1.376V57.04c-.28.61-.755 1.112-1.35 1.425z"/>
        <path fill="#F9A535" d="M32.302 59.272c-3.18 0-6.56-.926-6.56-2.645 0-1.72 3.38-2.629 6.56-2.645 3.18-.017 6.56.926 6.56 2.645 0 1.719-3.383 2.641-6.56 2.645zm0-4.53c-3.409 0-5.786.992-5.786 1.901 0 .91 2.377 1.895 5.786 1.898 3.409.003 5.782-.992 5.782-1.898 0-.906-2.377-1.897-5.782-1.9z"/>
        <path fill="#F9A535" d="M36.864 56.776h-1.06c-.043.34-.216.65-.483.866l-1.306-.152c.278-.199.457-.507.492-.847 0-.29-.248-.492-.694-.492-.398-.007-.768.2-.972.542-.403.545-.962.919-2.043.919-.992 0-1.756-.33-1.984-.863h-1.061v-.5h.992c.025-.284.157-.549.37-.74l1.263.149c-.22.184-.357.448-.38.734 0 .33.33.44.625.44.37 0 .605-.179.962-.612.47-.608 1.084-.853 2.09-.853 1.004 0 1.844.33 2.065.91h1.141l-.017.499z"/>
        <path fill="#FAD700" d="M32.9 53.139c3.412 0 6.173 1.127 6.173 2.516 0 1.388-2.76 2.51-6.173 2.512-3.411.004-6.172-1.127-6.172-2.512 0-1.386 2.76-2.516 6.172-2.516z"/>
        <path fill="#D3B52A" d="M32.61 58.207v-.109h.297v.1l-.297.01zm.591-.1h.298v.1H33.2v-.1zm-1.187.077v-.086h.298v.096l-.298-.01zm1.78-.1l.297-.02v.097l-.298.023v-.1zm-2.375.054v-.1l.295.027v.1l-.295-.027zm2.976-.103l.294-.03v.096l-.294.033v-.099zm-3.558.03v-.1l.295.04v.1l-.295-.04zm4.143-.1l.294-.046v.096l-.294.047v-.096zm-4.731 0l.02-.098.29.052v.1l-.31-.053zm5.316-.098l.288-.063.023.096-.291.062-.02-.095zm-5.908-.034l.023-.095c.096.026.192.046.288.069l-.02.096c-.1-.023-.195-.043-.29-.07zm6.474-.095l.287-.08.027.096-.291.076-.023-.092zm-7.05-.067l.03-.092.285.083-.026.095-.288-.086zm7.605-.095l.281-.096.033.092-.284.096-.03-.092zm-8.18-.106l.037-.093c.09.037.182.073.278.106l-.033.093-.281-.106zm8.735-.096c.093-.036.182-.076.271-.12l.04.09c-.09.043-.182.083-.274.12l-.037-.09zm-9.277-.155l.047-.09c.082.047.172.09.264.133l-.043.089-.268-.132zm9.81-.093l.254-.149.053.086-.261.149-.046-.086zm-10.319-.225l.056-.08c.077.057.16.11.245.163l-.053.086c-.073-.056-.158-.113-.235-.169h-.013zm10.818-.086c.08-.063.155-.122.225-.185l.066.073c-.074.068-.153.13-.235.188l-.056-.076zm-11.264-.33l.076-.063c.063.073.13.143.202.208l-.066.073c-.075-.065-.145-.136-.209-.212l-.003-.006zm11.69-.07c.061-.074.115-.154.162-.238l.086.05c-.05.089-.109.173-.175.251l-.073-.063zm-11.988-.46l.096-.03c.026.093.064.18.113.262l-.086.05c-.047-.087-.084-.18-.11-.275l-.013-.006zm12.26-.04c.025-.088.039-.18.04-.273h.098c-.001.101-.015.202-.043.3l-.096-.026zm-12.29-.267c.002-.1.016-.2.044-.297l.092.026c-.023.088-.036.18-.036.271h-.1zm12.19-.526l.086-.05c.051.09.091.184.12.282l-.093.03c-.027-.092-.065-.18-.113-.262zm-12.034-.04c.05-.088.11-.172.175-.25l.073.062c-.06.075-.115.155-.162.238l-.086-.05zm11.67-.406l.067-.073c.073.069.143.142.208.219l-.076.066c-.06-.081-.126-.158-.198-.228v.016zm-11.286-.063c.073-.068.15-.132.231-.191l.06.079c-.079.057-.154.12-.225.185l-.066-.073zm10.817-.284l.05-.083c.089.053.172.113.251.169l-.06.08c-.076-.073-.155-.13-.24-.183v.017zM27.7 54.253c.083-.053.172-.103.261-.152l.046.09c-.089.045-.175.095-.254.145l-.053-.083zm9.82-.198l.042-.093c.093.043.182.09.268.136l-.046.086c-.086-.054-.174-.102-.265-.146v.017zm-9.291-.086c.09-.043.182-.083.274-.12l.037.09c-.093.04-.182.076-.268.119l-.043-.09zm8.745-.14l.033-.092.28.106-.039.093c-.09-.053-.179-.09-.274-.136v.03zm-8.193-.089l.284-.095.03.092-.278.096-.036-.093zm7.63-.092l.027-.093.288.086-.033.093-.281-.086zm-7.061-.09l.307-.089.023.096-.284.076-.046-.082zm6.486-.052l.023-.096.291.066-.023.096-.29-.066zm-5.908-.096l.294-.06v.096l-.287.06-.007-.096zm5.33-.02l.016-.096.294.053-.02.096-.29-.053zm-4.745-.093l.298-.05v.1l-.294.046-.004-.096zm4.16 0v-.095l.294.04v.098l-.294-.043zm-3.568-.095l.294-.033v.099l-.294.033v-.1zm2.976.036v-.096l.297.027v.095l-.297-.026zm-2.387-.096l.297-.02v.096l-.294.023-.003-.099zm1.795.063v-.1h.297v.097l-.297.003zm-1.2-.1h.297v.1h-.297v-.1zm.608.087v-.1h.31v.1h-.31z"/>
        <path fill="#BD8E2D" d="M32.9 50.782c4.093 0 7.41 1.517 7.41 3.378 0 1.862-3.307 3.376-7.41 3.38-4.102.003-7.409-1.515-7.409-3.38 0-1.864 3.316-3.372 7.41-3.378z"/>
        <path fill="#FAD700" d="M32.9 51.347c3.412 0 6.173 1.127 6.173 2.513 0 1.385-2.76 2.509-6.173 2.516-3.411.006-6.172-1.131-6.172-2.516 0-1.386 2.76-2.51 6.172-2.513z"/>
        <path fill="#D3B52A" d="M32.61 56.422v-.1h.297v.096l-.297.004zm.591-.1h.298v.1H33.2v-.1zm-1.187.073V56.3h.298v.1l-.298-.004zm1.78-.099l.297-.02v.1l-.298.02v-.1zm-2.375.053v-.096l.295.023v.1l-.295-.027zm2.976-.1l.294-.032v.099l-.294.033v-.1zm-3.558.027v-.096l.295.04v.096c-.11-.013-.209-.023-.304-.04h.01zm4.143-.099l.294-.046v.099l-.294.046v-.099zm-4.731 0l.02-.096.29.053v.096l-.31-.053zm5.316-.1l.288-.059.023.096c-.096.02-.192.043-.291.06l-.02-.096zm-5.908-.029l.023-.096.288.07-.02.096-.29-.07zm6.474-.099l.287-.076.027.096-.291.076-.023-.096zm-7.05-.063l.03-.096.285.086-.026.096-.288-.086zm7.605-.099l.281-.096.033.093-.284.096-.03-.093zm-8.18-.106l.037-.09.278.107-.033.092c-.083-.036-.176-.07-.268-.109h-.013zm8.755-.096l.271-.115.04.089-.274.119-.037-.093zm-9.277-.155l.047-.086c.082.043.171.09.264.129l-.043.09c-.1-.044-.188-.087-.274-.133h.006zm9.81-.093c.089-.046.175-.096.254-.145l.053.083c-.084.054-.172.103-.261.148l-.046-.086zm-10.326-.215l.057-.079c.076.056.158.113.244.165l-.053.083c-.085-.052-.168-.108-.248-.169zm10.818-.086c.08-.059.156-.122.225-.185l.066.073c-.074.069-.152.133-.235.192l-.056-.08zm-11.264-.33l.076-.063c.063.074.13.143.202.208l-.066.073c-.078-.068-.152-.141-.222-.218h.01zm11.69-.073c.062-.073.116-.151.163-.235l.086.047c-.05.09-.109.173-.176.251l-.072-.063zm-11.987-.46l.095-.026c.027.092.064.18.113.261l-.086.05c-.052-.09-.094-.185-.122-.284zm12.259-.036c.026-.09.04-.184.04-.277h.099c-.001.102-.016.205-.043.304l-.096-.027zm-12.302-.277c0-.1.015-.199.043-.295l.092.027c-.023.087-.035.177-.036.268h-.1zm12.193-.543l.086-.05c.051.09.09.186.119.285l-.093.026c-.029-.09-.067-.178-.116-.26h.004zm-12.035-.036c.05-.09.109-.174.176-.251l.072.062c-.061.073-.115.152-.162.235l-.086-.046zm11.67-.407l.067-.072c.075.067.144.14.208.218l-.076.063c-.062-.074-.13-.144-.201-.209h.003zm-11.29-.066c.074-.069.151-.134.232-.195l.06.08c-.083.062-.156.125-.225.185l-.066-.07zm10.818-.284l.05-.086c.089.056.172.112.251.168l-.06.08c-.076-.053-.155-.106-.24-.159v-.003zm-10.338-.08l.261-.148.046.086c-.089.05-.175.096-.254.148l-.053-.086zm9.82-.198l.042-.09c.093.044.182.087.268.133l-.046.086-.265-.129zm-9.291-.086l.274-.119.037.093c-.093.037-.182.077-.268.119l-.043-.093zm8.745-.139l.033-.092.28.109-.026.109-.287-.126zm-8.193-.086c.093-.036.188-.066.284-.099l.03.096c-.096.03-.188.063-.278.096l-.036-.093zm7.63-.092l.027-.096.288.086-.033.096-.281-.086zm-7.061-.093l.29-.076.024.096-.285.076-.03-.096zm6.486-.053l.023-.096.291.07-.023.096-.29-.07zm-5.908-.092c.096-.02.195-.043.294-.06v.096l-.287.06-.007-.096zm5.33-.02l.02-.1.294.054-.02.095-.294-.05zm-4.745-.1l.298-.046v.1c-.1 0-.198.026-.294.046l-.004-.1zm4.16 0v-.098l.294.04v.098l-.294-.04zm-3.568-.095l.294-.033v.096l-.294.036v-.1zm2.976.036v-.099l.297.03v.096l-.297-.027zm-2.387-.096l.297-.023v.1l-.294.02-.003-.097zm1.795.06v-.096h.297v.1l-.297-.004zm-1.2-.096h.297v.1h-.297v-.1zm.608.086v-.1h.31v.1h-.31z"/>
        <path fill="#BD8E2D" d="M32.9 49.062c4.093 0 7.41 1.518 7.41 3.38 0 1.86-3.307 3.371-7.41 3.378-4.102.007-7.409-1.517-7.409-3.379 0-1.861 3.316-3.372 7.41-3.379z"/>
        <path fill="#FAD700" d="M32.9 49.624c3.412 0 6.173 1.131 6.173 2.516 0 1.386-2.76 2.51-6.173 2.513-3.411.003-6.172-1.127-6.172-2.513 0-1.385 2.76-2.509 6.172-2.516z"/>
        <path fill="#D3B52A" d="M32.61 54.7v-.1h.29v.096l-.29.003zm.591-.1h.298v.096H33.2V54.6zm-1.187.076v-.096h.298v.1l-.298-.004zm1.78-.1l.297-.019v.1l-.298.02v-.1zm-2.375.054v-.1l.295.027v.1l-.295-.027zm2.976-.1l.294-.032v.095c-.096 0-.195.027-.294.034v-.096zm-3.558.027v-.1c.1 0 .195.03.295.04v.1l-.295-.04zm4.143-.1l.294-.045v.096l-.294.046v-.096zm-4.731 0l.02-.095.29.05v.099l-.31-.053zm5.316-.098l.288-.063.023.096-.291.063-.02-.096zm-5.908-.03l.023-.096.288.066-.02.096-.29-.066zm6.474-.1l.287-.075.027.092-.291.08-.023-.096zm-7.05-.065l.03-.093.285.086-.026.093-.288-.086zm7.605-.096l.281-.096.033.092-.284.096-.03-.092zm-8.18-.106l.037-.093c.09.037.182.073.278.106l-.033.093-.281-.106zm8.755-.096l.271-.116.04.09-.274.119-.037-.093zm-9.277-.155l.047-.086.264.129-.043.089-.268-.132zm9.81-.093c.089-.05.175-.096.254-.149l.053.086-.261.15-.046-.087zm-10.319-.225l.056-.079c.076.056.159.11.245.162l-.053.086c-.093-.056-.178-.112-.255-.169h.007zm10.818-.086c.08-.06.155-.122.225-.185l.066.073c-.075.068-.154.132-.235.192l-.056-.08zm-11.264-.33l.076-.063c.062.073.13.142.201.205l-.066.073c-.08-.063-.157-.132-.228-.205l.017-.01zm11.69-.073c.06-.075.115-.154.162-.238l.086.05c-.05.09-.108.173-.175.25l-.073-.062zm-11.988-.46l.096-.026c.026.092.064.18.113.261l-.086.047c-.054-.085-.098-.176-.13-.272l.007-.01zm12.26-.04c.026-.088.039-.18.039-.274h.1c-.002.102-.017.203-.044.301l-.096-.026zm-12.31-.257c.002-.1.016-.2.044-.298l.092.027c-.023.088-.035.18-.036.27h-.1zm12.194-.542l.086-.05c.051.09.09.185.119.284l-.093.027c-.027-.094-.066-.184-.116-.268l.004.007zm-12.035-.037c.05-.09.108-.174.176-.25l.072.059c-.06.074-.115.154-.162.238l-.086-.047zm11.67-.406l.067-.073c.075.067.145.14.208.218l-.076.063c-.06-.077-.128-.15-.201-.215l.003.007zm-11.286-.066c.07-.063.149-.13.231-.192l.06.08c-.079.057-.154.118-.225.184l-.066-.072zm10.817-.285l.05-.082c.09.056.172.112.251.168l-.06.08c-.079-.063-.158-.12-.244-.172l.003.006zm-10.338-.076c.083-.05.172-.102.261-.149l.047.086c-.09.047-.176.096-.255.146l-.053-.083zm9.82-.198l.042-.093.268.136-.046.086c-.086-.05-.175-.096-.268-.136l.003.007zm-9.29-.086c.088-.04.181-.083.274-.12l.036.09-.268.12-.043-.09zm8.744-.139l.033-.093.281.106-.04.093-.274-.106zm-8.193-.09l.285-.095.03.092-.278.096-.037-.092zm7.63-.088l.027-.096.288.086-.033.092c-.096-.036-.189-.053-.284-.09l.003.008zm-7.061-.093l.29-.076.024.092-.284.08-.03-.096zm6.487-.053l.023-.096c.099.02.195.043.29.07l-.022.095c-.1-.033-.192-.056-.295-.076l.004.007zm-5.908-.093l.294-.062v.096l-.288.062-.006-.096zm5.329-.02l.017-.099.294.053-.02.1-.291-.053zm-4.744-.095l.297-.047v.096l-.294.047-.003-.096zm4.159 0v-.1l.294.04v.1l-.294-.04zm-3.567-.096l.294-.033v.096l-.294.033v-.096zm2.975.036v-.099l.298.027v.099l-.298-.027zm-2.387-.099l.298-.02v.1l-.295.02-.003-.1zm1.795.063v-.1l.298.017v.1l-.298-.017zm-1.2-.096h.298v.096h-.298v-.096zm.608.083v-.096h.311v.096h-.31z"/>
        <path fill="#FFC500" d="M32.9 46.61c4.093 0 7.41 1.517 7.41 3.378 0 1.861-3.307 3.376-7.41 3.379-4.102.003-7.409-1.514-7.409-3.379s3.316-3.372 7.41-3.379z"/>
        <path fill="#F9A535" d="M26.844 55.75c.427.257.879.47 1.349.635.44.16.89.292 1.348.394.43.096.88.175 1.35.235.469.06.889.092 1.352.112H33.595c.463-.02.916-.056 1.349-.112.433-.057.922-.143 1.352-.238.457-.106.907-.238 1.349-.397.47-.17.922-.385 1.349-.645.586-.318 1.05-.82 1.322-1.428v1.808c-.296.575-.756 1.048-1.322 1.36-.428.263-.88.484-1.35.66-.44.164-.89.3-1.348.407-.446.106-.898.19-1.352.251-.437.056-.886.1-1.35.12-.227 0-.459.016-.69.016-.232 0-.443 0-.661-.017-.463-.02-.916-.06-1.353-.115-.436-.057-.919-.146-1.349-.245-.457-.106-.908-.24-1.348-.403-.47-.17-.922-.387-1.35-.645-.579-.318-1.05-.801-1.352-1.389V54.31c.278.618.754 1.125 1.353 1.442z"/>
        <path fill="#F9A535" d="M26.844 53.698c.427.257.879.47 1.349.638.44.157.891.287 1.348.39.43.096.88.175 1.35.234.469.06.889.093 1.352.113H33.595c.463-.02.916-.056 1.349-.113.433-.056.922-.142 1.352-.238.457-.105.907-.237 1.349-.396.47-.175.923-.396 1.349-.662.586-.317 1.05-.82 1.322-1.428v1.809c-.297.572-.757 1.044-1.322 1.355-.428.264-.88.485-1.35.661-.44.165-.89.302-1.348.41-.43.1-.883.185-1.352.248-.47.063-.886.1-1.35.12-.227 0-.459.016-.69.016-.232 0-.443 0-.661-.017-.463-.02-.916-.06-1.353-.115-.436-.057-.919-.146-1.349-.245-.457-.106-.908-.24-1.348-.403-.47-.17-.922-.387-1.35-.645-.577-.314-1.048-.793-1.352-1.375v-1.809c.276.622.752 1.133 1.353 1.452z"/>
        <path fill="#F9A535" d="M26.844 51.578c.427.257.879.47 1.349.635.44.16.89.291 1.348.393.43.096.88.176 1.35.235.469.06.889.093 1.352.113H33.595c.463-.02.916-.057 1.349-.113.433-.056.922-.142 1.352-.238.457-.105.907-.238 1.349-.397.47-.168.922-.384 1.349-.644.586-.318 1.05-.82 1.322-1.428v1.808c-.296.573-.757 1.045-1.322 1.355-.428.264-.88.485-1.35.662-.44.165-.89.3-1.348.406-.446.107-.898.19-1.352.248-.437.06-.886.103-1.35.123-.227 0-.459.016-.69.016-.232 0-.443 0-.661-.016-.463-.02-.916-.06-1.353-.116-.436-.056-.919-.146-1.349-.245-.457-.106-.908-.24-1.348-.403-.47-.17-.922-.386-1.35-.645-.577-.314-1.048-.792-1.352-1.375V50.13c.277.62.753 1.13 1.353 1.448z"/>
        <path fill="#F9A535" d="M26.315 49.753c0-1.702 3.379-2.628 6.559-2.645 3.18-.016 6.56.93 6.56 2.645 0 1.716-3.38 2.645-6.56 2.645-3.18-.016-6.56-.939-6.56-2.645zm.777 0c0 .896 2.373 1.898 5.782 1.901 3.409.004 5.786-.992 5.786-1.9 0-.91-2.39-1.905-5.786-1.905-3.395 0-5.782 1.008-5.782 1.904z"/>
        <path fill="#FFC500" d="M35.697 74.49c0 3.591 2.912 6.503 6.504 6.503 3.591 0 6.503-2.912 6.503-6.503 0-3.592-2.912-6.503-6.503-6.503-3.592 0-6.504 2.911-6.504 6.503z"/>
        <path fill="#F9A535" d="M36.49 74.49c0-3.154 2.557-5.71 5.71-5.71 3.154 0 5.71 2.556 5.71 5.71 0 3.153-2.556 5.71-5.71 5.71-3.151-.004-5.705-2.558-5.71-5.71zm1.075 0c0 2.556 2.073 4.628 4.629 4.628 2.556 0 4.629-2.072 4.629-4.628 0-2.557-2.073-4.629-4.629-4.629-1.228 0-2.405.488-3.273 1.356-.868.868-1.356 2.045-1.356 3.273z"/>
        <path fill="#D8A628" d="M23.633 77.333L23.637 68.998 8.812 68.978 8.819 77.488z"/>
        <path fill="#BD8E2D" d="M16.228 72.618c-4.093 0-7.41 1.518-7.41 3.38 0 1.86 3.307 3.375 7.41 3.378 4.103.003 7.409-1.514 7.409-3.379 0-1.864-3.316-3.372-7.41-3.379z"/>
        <path fill="#FAD700" d="M16.228 73.184c-3.412 0-6.173 1.127-6.173 2.512 0 1.386 2.76 2.51 6.173 2.516 3.412.007 6.172-1.13 6.172-2.516 0-1.385-2.76-2.509-6.172-2.512z"/>
        <path fill="#D3B52A" d="M16.228 78.265v-.096h.297v.096h-.297zm-.304 0h-.298v-.099h.294l.004.1zm.892 0v-.099h.298v.096l-.298.003zm-1.488-.016l-.297-.02v-.1l.297.02v.1zm2.083-.02v-.1l.295-.026v.1l-.295.026zm-2.678-.027l-.297-.036v-.096l.294.033.003.1zm3.27-.033v-.095l.294-.04v.096l-.294.04zm-3.861-.04l-.295-.046v-.099l.295.047v.099zm4.453-.046v-.095l.29-.053.02.096-.31.052zm-5.042-.056c-.1-.016-.195-.04-.29-.06l.022-.095.288.06-.02.095zm5.62-.056l-.02-.096.288-.07.023.097-.29.07zm-6.208-.073l-.288-.076.026-.096.285.076-.023.096zm6.787-.072l-.026-.096.284-.086.03.096-.288.086zm-7.36-.093c-.099-.03-.191-.063-.284-.096l.033-.092.281.095-.03.093zm7.935-.09l-.033-.092.275-.106.04.09-.282.109zm-8.49-.112l-.274-.119.04-.089.27.116-.036.092zm9.046-.115l-.043-.09c.092-.04.182-.086.264-.129l.046.086c-.089.03-.175.073-.267.116v.017zm-9.588-.14c-.09-.044-.177-.094-.261-.148l.053-.083c.079.05.165.1.254.146l-.046.086zm10.117-.141l-.053-.083c.086-.053.168-.11.244-.165l.057.079c-.076.04-.162.096-.248.152v.017zm-10.626-.192c-.082-.059-.16-.123-.235-.192l.066-.073c.07.063.146.126.225.186l-.056.079zm11.108-.182l-.066-.073c.072-.065.139-.135.202-.208l.076.063c-.066.077-.137.15-.212.218zm-11.551-.228c-.067-.078-.126-.162-.175-.251l.086-.047c.047.083.1.162.162.235l-.073.063zm11.938-.241l-.086-.047c.047-.082.085-.17.113-.26l.096.026c-.03.094-.072.185-.123.27v.01zM10.05 76c-.028-.1-.042-.202-.043-.305h.099c0 .094.013.188.04.278l-.096.027zm12.4-.295h-.099c0-.091-.012-.182-.036-.27l.093-.024c.027.096.042.195.043.294zm-12.298-.29l-.093-.027c.028-.1.068-.195.12-.284l.085.05c-.047.082-.084.17-.112.26zm12.06-.252c-.047-.082-.101-.16-.161-.235l.072-.062c.067.077.126.161.176.25l-.086.047zM10.43 74.92l-.076-.063c.064-.078.133-.15.208-.219l.066.073c-.073.065-.141.135-.205.209h.007zm11.42-.202c-.07-.063-.143-.122-.226-.185l.06-.08c.082.063.162.13.231.192l-.066.073zm-10.994-.192l-.06-.08c.077-.055.163-.112.252-.168l.05.086c-.086.05-.169.104-.248.162h.006zm10.527-.159c-.08-.05-.165-.095-.255-.145l.047-.086.26.149-.052.082zm-10.03-.152l-.047-.086c.086-.046.175-.089.268-.132l.043.09-.265.128zm9.51-.125l-.27-.116.04-.093.274.12-.043.089zm-8.985-.123l-.037-.089.281-.109.034.093-.278.105zm8.434-.099c-.09-.033-.182-.066-.278-.096l.03-.092.28.096-.032.092zm-7.879-.099l-.03-.096.288-.086.027.096-.285.086zm7.317-.083l-.285-.076.024-.096.287.076-.026.096zM13 73.607l-.023-.096.29-.07.02.097-.287.069zm6.176-.066c-.096-.02-.192-.043-.291-.06l.02-.099.294.063-.023.096zm-5.598-.063l-.02-.096.295-.053v.096l-.275.053zm5.016-.05l-.291-.05v-.095l.297.046-.006.1zm-4.434-.05v-.098l.295-.04v.1l-.295.039zm3.849-.036l-.291-.036v-.096l.297.033-.006.1zm-3.26-.036v-.1l.297-.026v.1l-.297.026zm2.671-.026l-.294-.02v-.1l.297.024-.003.096zm-2.08-.02v-.1h.298v.097l-.297.003zm1.492 0h-.298v-.1h.298v.1zm-.903 0v-.1h.31v.1h-.31z"/>
        <path fill="#BD8E2D" d="M16.228 70.235c-4.093 0-7.41 1.514-7.41 3.379 0 1.864 3.307 3.372 7.41 3.378 4.103.007 7.409-1.134 7.409-3.378 0-1.865-3.316-3.376-7.41-3.38z"/>
        <path fill="#FAD700" d="M16.228 70.73c-3.412 0-6.173 1.128-6.173 2.513 0 1.386 2.76 2.513 6.173 2.516 3.412.004 6.172-1.127 6.172-2.516 0-1.388-2.76-2.509-6.172-2.512z"/>
        <path fill="#D3B52A" d="M16.228 75.809v-.1h.297v.1h-.297zm-.304 0h-.298v-.1h.294l.004.1zm.892 0v-.1h.298v.1h-.298zm-1.488 0l-.297-.02v-.1l.297.024v.096zm2.083-.017v-.099l.295-.026v.096l-.295.03zm-2.678-.03l-.297-.032v-.1l.294.033.003.1zm3.27-.032v-.096l.294-.04v.096c-.096-.013-.191 0-.294.01v.03zm-3.861-.04l-.295-.046v-.1l.295.047v.099zm4.453-.046v-.096l.29-.053.02.096-.31.053zm-5.042-.053l-.29-.063.022-.096.288.06-.02.099zm5.62-.06l-.02-.096.288-.07.023.097-.29.07zm-6.208-.073l-.288-.076.026-.096.285.077-.023.095zm6.787-.072l-.026-.096.284-.083.03.093-.288.086zm-7.36-.09l-.284-.095.033-.093.281.093-.03.095zm7.935-.092l-.033-.093c.096-.033.189-.07.275-.106l.04.093-.282.106zm-8.49-.113c-.096-.036-.185-.079-.274-.119l.04-.089.27.12-.036.088zm9.046-.112l-.043-.09c.092-.042.182-.085.264-.131l.046.085c-.089.017-.175.063-.267.116v.02zm-9.588-.139c-.093-.05-.179-.099-.261-.152l.053-.083c.079.05.165.1.254.146l-.046.09zm10.117-.145l-.053-.083c.086-.053.168-.11.244-.162l.057.08c-.076.026-.162.099-.248.135v.03zm-10.626-.176c-.082-.058-.16-.122-.235-.191l.066-.073c.07.063.146.126.225.185l-.056.08zm11.108-.181l-.066-.073c.072-.065.139-.135.202-.208l.076.062c-.067.064-.137.124-.212.179v.04zm-11.551-.228c-.067-.078-.126-.162-.175-.252l.086-.046c.046.083.1.162.162.235l-.073.063zm11.938-.239l-.086-.05c.047-.082.085-.17.113-.26l.096.03c-.033.087-.074.171-.123.25v.03zm-12.232-.294c-.028-.099-.042-.201-.043-.304h.099c0 .094.013.188.04.278l-.096.026zm12.4-.294h-.099c0-.09-.012-.18-.036-.268l.093-.026c.027.095.042.194.043.294zm-12.298-.307l-.093-.027c.028-.098.068-.193.12-.281l.085.046c-.047.083-.084.17-.112.262zm12.06-.252c-.048-.082-.102-.16-.161-.234l.072-.063c.067.077.126.161.176.251l-.086.046zM10.43 72.48l-.076-.063c.065-.077.134-.15.208-.218l.066.072c-.072.061-.14.126-.205.195l.007.014zm11.42-.199c-.072-.066-.147-.127-.226-.185l.06-.08c.08.06.158.124.231.192l-.066.073zm-10.994-.195l-.06-.08c.082-.058.166-.114.252-.164l.05.082c-.093.04-.176.096-.248.149l.006.013zm10.537-.168l-.255-.15.047-.085c.089.05.178.099.26.152l-.052.083zm-10.03-.153l-.047-.089.268-.132.043.09c-.11.042-.199.085-.281.131h.016zm9.51-.125c-.085-.043-.178-.083-.27-.12l.04-.092.274.123-.043.089zm-8.979-.126l-.036-.09.278-.102.033.093-.275.1zm8.434-.099c-.089-.033-.182-.066-.277-.096l.03-.092.28.095-.033.093zm-7.895-.093l-.03-.092.288-.09.027.096-.285.086zm7.317-.082l-.285-.076.024-.096.287.076-.026.096zM13 71.16l-.023-.095.29-.07.02.096-.287.07zm6.176-.066l-.291-.06.02-.095.294.06-.023.095zm-5.598-.062l-.02-.096.295-.053v.096l-.275.053zm5.016-.05l-.291-.046v-.1l.297.047-.006.099zm-4.434-.05v-.096c.1 0 .195-.03.295-.04v.097l-.295.04zm3.849-.036l-.291-.033v-.1l.297.034-.006.099zm-3.26-.036v-.096l.297-.027v.096l-.297.027zm2.671-.024l-.294-.023v-.099l.297.023-.003.1zm-2.08-.023v-.099h.298v.1h-.297zm1.492 0h-.298v-.099h.298v.1zm-.903 0v-.099h.31v.1h-.31z"/>
        <path fill="#BD8E2D" d="M16.228 68.38c-4.093 0-7.41 1.518-7.41 3.379s3.307 3.372 7.41 3.379c4.103.006 7.409-1.514 7.409-3.38 0-1.864-3.316-3.371-7.41-3.378z"/>
        <path fill="#FAD700" d="M16.228 68.945c-3.412 0-6.173 1.128-6.173 2.513s2.76 2.51 6.173 2.516c3.412.007 6.172-1.13 6.172-2.516 0-1.385-2.76-2.51-6.172-2.513z"/>
        <path fill="#D3B52A" d="M16.228 74.02v-.096h.297v.096h-.297zm-.304 0h-.298v-.099h.294l.004.1zm.892 0v-.099h.298v.096l-.298.003zm-1.488-.016l-.297-.02v-.1l.297.02v.1zm2.096-.037v-.099l.295-.026v.099l-.295.026zm-2.677-.03l-.298-.032v-.096l.294.033.004.096zm3.27-.03v-.098l.294-.037v.096l-.295.04zm-3.862-.042l-.295-.046v-.096l.295.046v.096zm4.453-.043v-.096l.291-.053.02.096-.31.053zm-5.042-.056l-.29-.06.022-.096.288.06-.02.096zm5.62-.06l-.02-.096.288-.066.024.096-.291.066zm-6.215-.07c-.096-.026-.192-.049-.287-.079l.026-.092.284.076-.023.096zm6.788-.075l-.027-.093.284-.086.03.093-.287.086zm-7.36-.09c-.099-.03-.192-.062-.284-.095l.033-.093.28.096-.029.092zm7.935-.092l-.033-.093c.096-.033.188-.066.274-.106l.04.093-.281.106zm-8.49-.11l-.275-.118.04-.093c.09.043.179.083.271.12l-.036.092zm9.045-.115l-.043-.09.265-.128.046.086c-.096.053-.182.096-.274.139l.006-.007zm-9.587-.139l-.262-.149.053-.082c.08.05.166.099.255.145l-.046.086zm10.116-.142l-.053-.083c.086-.053.169-.109.245-.165l.056.08c-.082.062-.168.118-.254.175l.006-.007zm-10.626-.175c-.081-.06-.16-.124-.234-.192l.066-.073c.07.063.145.126.225.185l-.057.08zm11.109-.185l-.066-.07c.071-.065.139-.135.202-.208l.076.063c-.068.079-.14.153-.219.221l.007-.006zm-11.552-.225c-.066-.078-.125-.162-.175-.251l.086-.05c.047.084.101.163.162.238l-.073.063zm11.939-.242L22.202 72c.047-.082.085-.17.112-.261l.096.026c-.031.101-.075.198-.129.288l.007-.007zm-12.233-.294c-.027-.098-.042-.199-.043-.3h.1c0 .092.013.185.039.274l-.096.026zm12.401-.29h-.099c0-.092-.013-.183-.036-.272l.092-.026c.028.097.042.197.043.297zm-12.305-.285l-.093-.026c.028-.1.068-.195.12-.285l.085.05c-.047.082-.085.17-.112.261zm12.06-.251c-.047-.083-.101-.161-.161-.235l.072-.063c.068.077.127.161.176.251l-.086.047zM10.43 70.68l-.076-.063c.063-.078.133-.151.208-.218l.066.073c-.073.064-.142.134-.205.208h.007zm11.42-.202c-.072-.066-.147-.127-.226-.185l.06-.08c.082.064.162.13.231.193l-.066.072zm-10.994-.191l-.06-.08c.077-.056.163-.112.252-.168l.05.082c-.093.057-.176.11-.248.166h.006zm10.527-.16c-.08-.049-.165-.098-.255-.145l.047-.085c.089.046.178.099.26.148l-.052.083zm-10.03-.151l-.047-.086c.086-.046.175-.09.268-.132l.043.089c-.1.04-.189.086-.271.129h.006zm9.51-.126l-.27-.119.04-.09.274.12-.043.09zm-8.979-.122l-.036-.09.281-.108.033.092-.278.106zm8.434-.103c-.089-.033-.181-.062-.277-.092l.03-.096.28.096-.033.092zm-7.878-.095l-.03-.096.288-.086.026.096-.284.086zm7.316-.083l-.284-.076.023-.096.288.076-.027.096zm-6.747-.08l-.024-.095.291-.07.02.096-.287.07zm6.175-.066l-.29-.062.02-.096.293.063-.023.095zm-5.597-.062l-.02-.096.294-.056v.099l-.274.053zm5.015-.053l-.29-.047v-.095l.297.046-.007.096zm-4.433-.047v-.099l.281-.033v.1c-.093.006-.192.016-.288.032h.007zm3.848-.04l-.29-.032v-.096l.297.033-.007.096zm-3.26-.032v-.1l.298-.026v.1l-.298.026zm2.672-.027l-.294-.02v-.099l.297.02-.003.1zm-2.086-.033v-.099l.297-.017v.1l-.297.016zm1.49-.016h-.297v-.1h.298v.1zm-.902 0v-.096h.31v.099h-.31v-.003z"/>
        <path fill="#BD8E2D" d="M16.228 66.66c-4.093 0-7.41 1.515-7.41 3.38 0 1.864 3.307 3.372 7.41 3.379 4.103.006 7.409-1.518 7.409-3.38 0-1.86-3.316-3.372-7.41-3.378z"/>
        <path fill="#FAD700" d="M16.228 67.223c-3.412 0-6.173 1.13-6.173 2.516 0 1.385 2.76 2.51 6.173 2.512 3.412.004 6.172-1.127 6.172-2.512s-2.76-2.51-6.172-2.516z"/>
        <path fill="#D3B52A" d="M16.228 72.314v-.099h.297v.1h-.297zm-.304 0h-.298v-.096h.294l.004.096zm.892 0v-.096l.298-.016v.1l-.298.012zm-1.488 0l-.297-.023v-.096l.297.02v.1zm2.083-.02v-.099l.295-.026v.096l-.295.03zm-2.678-.03l-.297-.032v-.096l.294.033.003.096zm3.27-.03v-.098l.294-.04v.1l-.294.039zm-3.861-.042l-.295-.046v-.096l.295.046v.096zm4.453-.043v-.1l.29-.052.02.1-.31.052zm-5.042-.056l-.29-.063.022-.096.288.063-.02.096zm5.62-.06l-.02-.096.288-.066.023.093c-.089-.013-.185.02-.284.02l-.007.05zm-6.208-.072l-.288-.077.026-.092.285.076-.023.093zm6.787-.073l-.026-.096.284-.083.03.093-.288.086zm-7.36-.09l-.284-.095.033-.093.281.096-.03.093zm7.935-.092l-.033-.093c.096-.033.189-.069.275-.105l.04.092-.282.106zm-8.49-.112c-.096-.037-.185-.076-.274-.12l.04-.089c.089.043.178.08.27.12l-.036.089zm9.046-.113l-.043-.09c.092-.042.182-.085.264-.131l.046.089-.267.132zm-9.588-.139c-.093-.05-.179-.099-.261-.152l.053-.082.254.148-.046.086zm10.117-.145l-.053-.083c.086-.053.168-.106.244-.162l.057.08c-.076.016-.162.072-.248.125v.04zm-10.626-.205c-.082-.06-.16-.124-.235-.192l.066-.073c.07.063.146.123.225.185l-.056.08zm11.108-.185l-.066-.073c.073-.064.14-.133.202-.208l.076.062c-.065.077-.136.147-.212.212v.007zm-11.551-.225c-.066-.078-.125-.162-.175-.251l.086-.05c.046.083.1.162.162.235l-.073.066zm11.938-.241l-.086-.05c.047-.081.085-.168.113-.258l.096.027c-.032.094-.073.185-.123.27v.01zm-12.232-.295c-.028-.098-.042-.199-.043-.3h.099c0 .092.013.185.04.274l-.096.026zm12.4-.29h-.099c0-.092-.012-.183-.036-.272l.093-.026c.027.097.041.197.043.297zm-12.298-.298l-.093-.027c.028-.099.068-.195.12-.284l.085.05c-.047.082-.085.17-.112.26zm12.06-.251c-.048-.084-.102-.163-.161-.239l.072-.062c.067.078.125.162.176.25l-.086.05zm-11.782-.245l-.076-.066c.065-.077.134-.15.208-.218l.066.072c-.073.066-.142.136-.205.212h.007zm11.42-.202c-.072-.066-.147-.128-.226-.185l.06-.08c.082.064.162.13.231.192l-.066.073zm-10.994-.192l-.06-.079c.08-.061.165-.118.252-.169l.05.083c-.086.05-.169.106-.248.165h.006zm10.527-.158c-.08-.05-.165-.1-.255-.146l.047-.089c.089.05.178.1.26.152l-.052.083zm-10.03-.152l-.047-.086c.086-.047.175-.093.268-.136l.043.09c-.1.042-.189.085-.271.132h.006zm9.51-.126l-.27-.119.04-.09c.092.037.185.077.274.12l-.043.089zm-8.985-.116l-.037-.092.281-.106.034.093c-.096.026-.186.062-.278.105zm8.434-.102l-.278-.096.03-.093.28.096-.032.093zm-7.879-.1l-.03-.092.288-.086.027.093-.285.086zm7.317-.082l-.285-.076.024-.096.287.08-.026.092zM13 67.652l-.023-.095.29-.066.02.096-.287.066zm6.176-.065l-.291-.06.02-.096.294.06-.023.096zm-5.598-.06l-.02-.1.295-.052v.096l-.275.056zm5.016-.053l-.291-.046v-.096l.297.046-.006.096zm-4.434-.046v-.1l.295-.039v.1c-.1.002-.199.016-.295.032v.007zm3.849-.04l-.291-.033v-.1l.297.037-.006.096zm-3.26-.033v-.1l.297-.026v.1l-.297.026zm2.671-.026c-.096 0-.195 0-.294-.02v-.1l.297.02-.003.1zm-2.08-.023v-.096l.298-.017v.1l-.297.013zm1.492 0h-.298v-.096h.298v.096zm-.903 0v-.1h.31v.1h-.31z"/>
        <path fill="#FFC500" d="M16.228 64.208c-4.093.006-7.4 1.517-7.4 3.379 0 1.86 3.307 3.372 7.41 3.378 4.102.007 7.409-1.514 7.409-3.378 0-1.865-3.326-3.373-7.42-3.38z"/>
        <path fill="#F9A535" d="M22.284 77.604c-.427.256-.879.47-1.348.638-.442.157-.892.287-1.35.39-.43.096-.879.176-1.352.235-.472.06-.886.093-1.348.112H15.534c-.463-.02-.916-.056-1.35-.112-.433-.056-.922-.142-1.352-.238-.457-.105-.907-.238-1.349-.397-.47-.169-.922-.385-1.349-.644-.586-.317-1.051-.82-1.322-1.429v1.776c.297.572.757 1.044 1.322 1.355.427.264.88.486 1.35.661.44.164.89.3 1.348.407.446.107.898.19 1.352.248.437.06.887.103 1.35.122.228 0 .456.017.69.017.235 0 .44 0 .662-.017.462-.02.915-.06 1.348-.115.434-.057.923-.146 1.353-.245.457-.107.907-.242 1.349-.403.469-.172.92-.388 1.348-.645.578-.314 1.049-.793 1.353-1.375v-1.809c-.274.627-.75 1.144-1.353 1.468z"/>
        <path fill="#F9A535" d="M22.284 75.402c-.427.255-.88.468-1.348.635-.441.16-.892.29-1.35.393-.43.096-.879.176-1.352.235-.472.06-.886.093-1.348.11-.219 0-.437.016-.662.016-.224 0-.462 0-.69-.017-.463-.02-.916-.06-1.35-.112-.433-.053-.922-.142-1.352-.242-.457-.102-.908-.234-1.349-.393-.47-.176-.922-.397-1.349-.661-.587-.317-1.053-.82-1.322-1.432v1.809c.296.574.756 1.047 1.322 1.359.427.264.88.485 1.35.66.44.165.89.3 1.348.407.447.106.898.189 1.352.248.437.06.887.1 1.35.123H16.885c.462-.02.915-.06 1.348-.116.455-.06.906-.142 1.353-.248.457-.106.908-.24 1.349-.403.47-.17.922-.385 1.348-.645.579-.313 1.05-.792 1.353-1.375V73.92c-.275.63-.75 1.15-1.353 1.481z"/>
        <path fill="#F9A535" d="M22.284 73.35c-.427.255-.879.468-1.348.634-.441.16-.892.29-1.35.393-.43.096-.879.176-1.352.235-.472.06-.886.093-1.348.11-.219 0-.437.016-.662.016-.224 0-.462 0-.69-.017-.463-.02-.916-.06-1.35-.112-.454-.058-.905-.138-1.352-.242-.46-.104-.914-.238-1.359-.4-.47-.17-.92-.386-1.348-.644-.588-.317-1.054-.82-1.323-1.432V73.7c.296.574.756 1.047 1.323 1.358.426.265.878.486 1.348.662.441.163.892.3 1.35.406.446.106.897.188 1.352.248.436.06.886.103 1.348.123h1.353c.463-.02.915-.06 1.349-.116.454-.06.906-.143 1.352-.248.457-.107.907-.24 1.349-.4.469-.172.92-.388 1.349-.645.577-.315 1.048-.795 1.352-1.379v-1.808c-.275.618-.747 1.127-1.343 1.448z"/>
        <path fill="#F9A535" d="M22.284 71.296c-.427.256-.879.469-1.348.635-.441.16-.892.29-1.35.393-.43.096-.879.175-1.352.235-.472.06-.886.093-1.348.112h-.662c-.224 0-.462 0-.69-.016-.463-.02-.916-.056-1.35-.113-.454-.057-.905-.138-1.352-.24-.457-.104-.908-.235-1.349-.394-.47-.17-.921-.387-1.349-.645-.587-.317-1.053-.82-1.322-1.432v1.822c.297.573.757 1.044 1.322 1.356.427.264.88.485 1.35.66.44.165.89.3 1.348.407.447.106.898.189 1.352.248.437.06.887.103 1.35.123.228 0 .456.016.69.016.235 0 .44 0 .662-.016.462-.02.915-.06 1.348-.116.455-.06.906-.142 1.353-.248.457-.106.907-.24 1.349-.4.47-.176.922-.397 1.348-.661.577-.313 1.048-.79 1.353-1.372v-1.812c-.276.623-.752 1.136-1.353 1.458z"/>
        <path fill="#F9A535" d="M22.284 69.177c-.427.255-.88.467-1.348.635-.441.159-.892.29-1.35.393-.43.096-.879.175-1.352.235-.472.06-.886.092-1.348.109H15.534c-.463-.02-.916-.056-1.35-.113-.454-.057-.905-.138-1.352-.24-.46-.103-.914-.235-1.359-.394-.47-.17-.92-.387-1.348-.645-.588-.317-1.054-.82-1.323-1.432v1.809c.296.574.756 1.047 1.323 1.359.426.264.878.485 1.348.66.441.165.892.3 1.35.408.446.105.897.188 1.352.247.436.06.886.103 1.348.123h1.353c.463-.02.915-.06 1.349-.116.454-.06.906-.142 1.352-.248.457-.106.908-.24 1.349-.403.47-.17.921-.384 1.349-.642.577-.314 1.048-.794 1.352-1.378v-1.809c-.276.616-.748 1.122-1.343 1.442z"/>
        <path fill="#F9A535" d="M16.254 70c-3.177 0-6.56-.926-6.56-2.645 0-1.72 3.383-2.628 6.56-2.645 3.177-.016 6.563.926 6.563 2.645 0 1.72-3.382 2.625-6.563 2.645zm0-4.533c-3.405 0-5.782.992-5.782 1.901 0 .91 2.377 1.898 5.785 1.901 3.409.004 5.796-1.021 5.796-1.914s-2.39-1.9-5.802-1.904l.003.016z"/>
        <path fill="#F9A535" d="M20.82 67.468h-1.065c-.038.344-.21.66-.48.879l-1.305-.152c.277-.199.455-.507.49-.847 0-.29-.245-.489-.692-.489-.397-.01-.77.197-.972.54-.403.545-.962.918-2.046.918-.992 0-1.752-.33-1.984-.863h-1.064v-.499h.991c.024-.284.157-.549.37-.737l1.264.145c-.221.183-.358.448-.38.734 0 .33.31.44.624.44.367 0 .602-.179.962-.612.467-.608 1.081-.853 2.09-.853 1.008 0 1.841.33 2.066.91h1.14l-.01.486z"/>
        <path fill="#FAD700" d="M16.624 63.765c3.409 0 6.17 1.127 6.17 2.516 0 1.388-2.761 2.509-6.17 2.512-3.408.004-6.172-1.127-6.172-2.512 0-1.386 2.76-2.51 6.172-2.516z"/>
        <path fill="#D3B52A" d="M16.33 68.84v-.1h.294v.1h-.294zm.595-.1h.295v.1h-.298l.003-.1zm-1.19.076v-.099l.294.017v.096l-.294-.014zm1.782-.099l.294-.02v.096l-.297.023.003-.099zm-2.374.053v-.1l.298.027v.1l-.298-.027zm2.976-.1l.294-.032v.096l-.298.033.004-.096zm-3.554.027v-.099l.294.04v.1l-.294-.04zm4.142-.099l.291-.046.017.096-.295.046-.013-.096zm-4.73 0l.019-.099.288.053v.1l-.308-.054zm5.312-.099l.291-.063.023.096-.294.063-.02-.096zm-5.895-.033l.023-.096c.093.027.189.046.288.07l-.02.095c-.112-.023-.211-.043-.304-.069h.013zm6.474-.096l.284-.08.026.097-.287.076-.023-.093zm-7.049-.066l.03-.093.28.083-.026.096-.284-.086zm7.604-.096l.278-.096.033.093-.281.096-.03-.093zm-8.18-.106l.037-.092.275.106-.033.092c-.096-.033-.189-.07-.278-.106zm8.736-.096c.089-.036.181-.076.267-.119l.043.09c-.089.043-.181.082-.274.119l-.036-.09zm-9.28-.155l.046-.09.264.133-.04.09-.27-.133zm9.812-.093l.254-.148.053.086-.26.148-.047-.086zm-10.322-.224l.06-.08c.076.056.155.11.241.162l-.05.086c-.089-.056-.172-.112-.25-.168zm10.818-.086c.078-.058.153-.12.225-.185l.066.072c-.074.067-.151.13-.232.189l-.06-.076zm-11.26-.33l.072-.064c.064.074.132.143.205.209l-.07.072c-.075-.065-.144-.135-.208-.211v-.007zm11.686-.07c.06-.076.116-.155.166-.238l.082.05c-.05.088-.107.172-.172.25l-.076-.062zm-11.984-.453l.092-.03c.029.09.066.178.113.261l-.086.05c-.05-.09-.09-.184-.12-.281zm12.259-.04c.025-.09.037-.182.036-.274h.1c0 .101-.015.203-.044.3l-.092-.026zm-12.306-.274c0-.1.014-.2.04-.298l.096.027c-.025.088-.038.179-.037.27h-.099zm12.193-.543l.086-.05c.05.09.09.184.12.282l-.097.03c-.025-.092-.062-.18-.109-.262zm-12.034-.04c.05-.088.108-.172.172-.25l.076.062c-.06.075-.115.155-.162.238l-.086-.05zm11.667-.406l.066-.073c.075.069.146.142.212.219l-.076.066c-.062-.076-.13-.146-.202-.212zm-11.287-.063c.075-.068.153-.132.235-.191l.056.079c-.08.06-.155.122-.225.185l-.066-.073zm10.818-.284l.053-.083c.085.052.168.109.248.169l-.057.08c-.076-.07-.158-.113-.244-.166zm-10.335-.076c.083-.053.168-.103.261-.152l.046.09c-.089.045-.175.095-.254.145l-.053-.083zm9.82-.198l.039-.093c.092.043.182.09.268.136l-.047.085c-.082-.046-.172-.089-.26-.128zm-9.291-.086c.09-.043.178-.083.274-.12l.037.09c-.093.04-.182.076-.271.119l-.04-.09zm8.741-.14l.037-.092c.095.033.188.07.277.106l-.036.093c-.09-.037-.182-.073-.278-.106zm-8.189-.089l.281-.095.033.092-.281.096-.033-.093zm7.627-.092l.03-.093.284.086-.03.093-.284-.086zm-7.058-.09l.287-.079.027.096-.288.076-.026-.092zm6.486-.052l.023-.096.288.066-.023.096-.288-.066zm-5.908-.096l.291-.06.02.096-.288.063-.023-.1zm5.33-.02v-.096l.29.053-.02.096-.27-.053zm-4.745-.093l.295-.05v.1l-.291.046-.004-.096zm4.156 0v-.095l.294.04v.098l-.294-.043zm-3.567-.095l.297-.034v.1l-.294.033-.003-.1zm2.975.036v-.096l.298.026v.1l-.298-.03zm-2.383-.096c.096 0 .195-.016.297-.02v.096l-.294.023-.003-.099zm1.795.063v-.103l.297.017v.096l-.297-.01zm-1.2-.1h.297v.1h-.294l-.003-.1zm.608.087v-.09h.31v.1l-.31-.01z"/>
        <path fill="#BD8E2D" d="M16.624 61.404c4.093 0 7.406 1.518 7.406 3.379s-3.306 3.375-7.406 3.382c-4.1.007-7.409-1.517-7.409-3.382 0-1.865 3.313-3.362 7.41-3.379z"/>
        <path fill="#FAD700" d="M16.624 61.98c3.409 0 6.17 1.127 6.17 2.512s-2.761 2.51-6.17 2.516c-3.408.007-6.172-1.13-6.172-2.516 0-1.385 2.76-2.51 6.172-2.513z"/>
        <path fill="#D3B52A" d="M16.33 67.054v-.099h.294v.096l-.294.003zm.595-.099h.295v.1h-.298l.003-.1zm-1.19.073v-.096h.294v.1l-.294-.004zm1.782-.096l.294-.023v.099l-.297.02.003-.096zm-2.374.05v-.096l.298.026v.096l-.298-.026zm2.976-.1l.294-.033v.1l-.298.033.004-.1zm-3.554.027v-.096l.294.04v.095c-.112-.013-.212-.023-.308-.04h.014zm4.142-.1l.291-.046.017.1-.295.046-.013-.1zm-4.73 0l.019-.095.288.053v.095l-.308-.052zm5.312-.099l.291-.06.023.097c-.099.02-.195.043-.294.06l-.02-.097zm-5.908-.016l.023-.096.288.07-.02.095-.29-.07zm6.473-.1l.285-.075.026.096-.287.076-.024-.096zm-7.058-.075l.03-.096.28.086-.026.096-.284-.086zm7.604-.1c.096-.03.188-.062.278-.095l.033.092-.281.096-.03-.093zm-8.18-.105l.037-.09.274.106-.033.093c-.072-.037-.165-.06-.254-.11h-.023zm8.735-.096l.268-.116.043.09c-.09.039-.182.082-.274.118l-.037-.092zm-9.28-.156l.046-.086c.086.043.176.09.265.13l-.04.089c-.07-.043-.162-.086-.248-.133h-.023zm9.813-.092c.089-.046.175-.096.254-.146l.053.083c-.082.053-.172.103-.261.149l-.046-.086zm-10.322-.225l.06-.08c.076.057.155.113.24.166l-.049.083c-.079-.053-.155-.109-.228-.169h-.023zm10.818-.086c.079-.057.154-.118.224-.185l.067.073c-.074.068-.151.132-.232.191l-.06-.079zm-11.261-.33l.073-.063c.064.073.132.143.205.208l-.07.073c-.065-.066-.127-.136-.185-.209l-.023-.01zm11.687-.073c.061-.074.117-.152.165-.235l.083.046c-.048.09-.106.174-.172.252l-.076-.063zm-11.985-.46l.093-.026c.029.09.067.178.112.26l-.086.05c-.04-.087-.073-.18-.095-.274l-.024-.01zm12.26-.036c.025-.09.037-.184.036-.278h.1c0 .103-.015.205-.044.304l-.092-.026zm-12.306-.278c0-.1.013-.198.04-.294l.096.026c-.025.087-.038.178-.037.268h-.099zm12.193-.542l.086-.05c.05.09.09.186.12.285l-.097.026c-.02-.086-.048-.17-.086-.251l-.023-.01zm-12.034-.036c.05-.09.107-.173.172-.252l.076.063c-.062.073-.116.152-.162.235l-.086-.046zm11.667-.407l.066-.073c.076.068.147.14.212.218l-.076.063c-.056-.07-.116-.136-.179-.198l-.023-.01zm-11.287-.063c.075-.07.153-.134.235-.195l.056.08-.225.184-.066-.069zm10.818-.284l.053-.086c.088.057.17.113.248.168l-.057.08c-.053-.043-.135-.1-.221-.152l-.023-.01zM11.4 63.07l.26-.148.047.086-.254.148-.053-.086zm9.819-.198l.04-.09c.092.044.181.087.267.133l-.046.086-.261-.129zm-9.29-.083l.274-.122.036.093c-.092.036-.181.076-.27.119l-.04-.09zm8.741-.142l.036-.092.278.109-.036.089-.278-.106zm-8.19-.086c.093-.036.186-.066.282-.099l.033.096-.281.096-.033-.093zm7.628-.092l.03-.096.284.086-.03.096c-.069-.02-.162-.05-.26-.076l-.024-.01zm-7.035-.073l.287-.076.027.096-.288.076-.026-.096zm6.486-.053l.023-.096.288.07-.023.095-.288-.069zm-5.908-.093c.096-.02.192-.043.291-.06l.02.097-.288.06-.023-.097zm5.33-.02v-.095l.29.053-.02.096-.27-.053zm-4.745-.095l.295-.047v.1l-.291.046-.004-.1zm4.156 0v-.1l.294.04v.1l-.294-.04zm-3.567-.096l.297-.033v.096l-.294.036-.003-.1zm2.975.036v-.099c.1 0 .199 0 .298.03v.096l-.298-.027zm-2.383-.096l.297-.023v.1l-.274.01-.023-.087zm1.795.06v-.096h.297v.1l-.297-.004zm-1.2-.096h.297v.1h-.294l-.003-.1zm.608.086v-.1h.31v.1h-.31z"/>
        <path fill="#BD8E2D" d="M16.624 59.695c4.093 0 7.406 1.517 7.406 3.379 0 1.861-3.306 3.372-7.406 3.379-4.1.006-7.409-1.518-7.409-3.38 0-1.86 3.313-3.372 7.41-3.378z"/>
        <path fill="#FAD700" d="M16.624 60.26c3.409 0 6.17 1.128 6.17 2.513s-2.761 2.51-6.17 2.512c-3.408.004-6.172-1.127-6.172-2.512s2.76-2.51 6.172-2.513z"/>
        <path fill="#D3B52A" d="M16.33 65.332v-.1h.291v.096l-.29.004zm.595-.1h.295v.096h-.298l.003-.095zm-1.19.077v-.096h.294v.099l-.294-.003zm1.782-.1l.294-.02v.1l-.297.02.003-.1zm-2.374.053v-.099l.298.027v.099l-.298-.027zm2.976-.099l.294-.033v.096c-.1 0-.198.026-.298.033l.004-.096zm-3.554.027v-.1c.096.017.195.03.294.04v.1l-.294-.04zm4.142-.1l.291-.046.017.096-.295.046-.013-.096zm-4.73 0l.019-.095.288.052v.096l-.308-.053zm5.312-.099l.291-.063.023.096-.294.063-.02-.096zm-5.895-.03l.023-.095.288.066-.02.096-.29-.067zm6.474-.099l.284-.076.026.093c-.092.03-.188.053-.287.08l-.023-.097zm-7.049-.066l.03-.092.28.086-.026.092-.284-.086zm7.604-.096c.096-.03.189-.063.278-.096l.033.093-.281.096-.03-.093zm-8.18-.106l.037-.092c.09.04.182.073.275.106l-.033.092c-.096-.033-.189-.07-.278-.106zm8.736-.095l.267-.116.043.09-.274.118-.036-.092zm-9.28-.156l.046-.086.264.13-.04.088-.27-.132zm9.812-.092c.09-.05.175-.096.254-.15l.053.087-.26.149-.047-.086zm-10.322-.225l.06-.08c.076.057.155.11.241.162l-.05.086c-.089-.056-.172-.112-.25-.168zm10.818-.086c.079-.057.154-.119.225-.185l.066.072c-.07.063-.15.13-.232.192l-.06-.08zm-11.26-.33l.072-.064c.063.074.132.142.205.205l-.07.073c-.074-.063-.143-.132-.208-.205v-.01zm11.686-.073c.06-.076.116-.155.166-.239l.082.05c-.048.09-.106.174-.172.251l-.076-.062zm-11.984-.46l.092-.026c.03.09.067.177.113.26l-.086.047c-.05-.086-.09-.177-.12-.271v-.01zm12.265-.02c.026-.09.038-.182.037-.274h.099c0 .102-.014.203-.043.3l-.093-.026zm-12.305-.274c0-.1.013-.2.04-.298l.095.027c-.025.088-.037.18-.036.27h-.1zm12.193-.542l.086-.05c.05.09.09.185.119.284l-.096.027c-.027-.095-.066-.186-.116-.271l.007.01zm-12.034-.037c.05-.089.107-.173.172-.251l.076.06c-.061.074-.115.154-.162.237l-.086-.046zm11.667-.406l.066-.073c.076.067.147.14.212.218l-.076.063c-.063-.079-.133-.152-.209-.218l.007.01zm-11.287-.067c.073-.062.149-.129.235-.191l.056.079c-.08.06-.156.122-.225.185l-.066-.073zm10.817-.284l.053-.083c.088.056.171.112.248.169l-.056.08c-.083-.067-.165-.123-.251-.176l.006.01zm-10.335-.076c.083-.05.17-.102.262-.149l.046.086c-.09.046-.175.096-.255.146l-.053-.083zm9.82-.198l.04-.09c.092.043.181.086.267.133l-.046.086c-.09-.053-.179-.1-.268-.14l.007.01zm-9.29-.086c.089-.04.178-.083.274-.12l.036.09-.27.119-.04-.09zm8.74-.14l.037-.092c.096.037.189.07.278.11l-.036.089-.278-.106zm-8.188-.088l.284-.116.033.092-.281.096-.036-.072zm7.627-.09l.03-.096.284.086-.03.093-.284-.083zm-7.059-.092l.288-.076.026.092-.287.08-.027-.096zm6.487-.053l.023-.096c.096.02.195.043.288.07l-.024.095c-.096-.033-.195-.06-.294-.08l.007.01zm-5.908-.093l.29-.063.02.096-.287.063-.023-.096zm5.33-.02v-.099l.29.053-.02.1-.27-.054zm-4.752-.099l.295-.046v.096l-.291.046-.004-.096zm4.156 0v-.099l.294.04v.099l-.294-.04zm-3.567-.096l.297-.033v.096l-.294.033-.003-.096zm2.975.037v-.1l.298.027v.1l-.298-.027zm-2.383-.1l.297-.02v.1l-.294.02-.003-.1zm1.795.063v-.099l.297.017v.099l-.297-.017zm-1.2-.096h.297v.096h-.294l-.003-.096zm.608.083v-.096h.31v.096h-.31z"/>
        <path fill="#FFC500" d="M16.624 57.242c4.093 0 7.406 1.517 7.406 3.379 0 1.86-3.306 3.375-7.406 3.378-4.1.004-7.409-1.514-7.409-3.378 0-1.865 3.313-3.373 7.41-3.38z"/>
        <path fill="#F9A535" d="M10.564 66.383c.427.256.88.47 1.35.635.441.16.893.291 1.351.393.427.096.88.176 1.35.235.469.06.885.093 1.348.112h.661c.225 0 .463 0 .688-.016.466-.02.916-.056 1.352-.112.437-.057.923-.143 1.35-.239.457-.104.907-.236 1.348-.396.471-.164.924-.376 1.352-.632.587-.317 1.052-.819 1.323-1.428v1.808c-.298.573-.758 1.044-1.323 1.356-.428.263-.88.485-1.352.661-.441.164-.891.3-1.349.41-.43.1-.88.185-1.349.248-.47.063-.89.1-1.352.12-.225 0-.456.016-.688.016-.231 0-.443 0-.66-.017-.464-.02-.913-.06-1.35-.116-.436-.056-.922-.145-1.349-.244-.458-.106-.91-.24-1.352-.404-.469-.171-.92-.387-1.349-.644-.576-.315-1.045-.793-1.349-1.376v-1.808c.277.616.752 1.123 1.35 1.438z"/>
        <path fill="#F9A535" d="M10.564 64.33c.427.258.88.471 1.35.638.442.157.893.287 1.351.39.427.096.88.175 1.35.235.469.06.885.093 1.348.112h.661c.225 0 .463 0 .688-.016.466-.017.916-.056 1.352-.113.437-.056.923-.142 1.35-.238.457-.104.907-.237 1.348-.396.472-.169.925-.385 1.352-.645.587-.317 1.052-.82 1.323-1.428v1.808c-.297.573-.757 1.045-1.323 1.356-.427.264-.88.486-1.352.66-.44.166-.891.303-1.349.41-.43.1-.88.186-1.349.249-.47.063-.89.099-1.352.119-.225 0-.456.016-.688.016-.231 0-.443 0-.66-.016-.464-.02-.913-.06-1.35-.116-.436-.056-.922-.145-1.349-.245-.458-.105-.91-.24-1.352-.403-.469-.172-.92-.387-1.349-.645-.576-.314-1.045-.793-1.349-1.375V62.88c.275.621.75 1.132 1.35 1.451z"/>
        <path fill="#F9A535" d="M10.564 62.21c.427.257.88.47 1.35.636.441.16.893.29 1.351.393.427.096.88.175 1.35.235.469.06.885.092 1.348.112h.661c.225 0 .463 0 .688-.016.466-.02.916-.057 1.352-.113.437-.056.923-.142 1.35-.238.457-.104.907-.237 1.348-.397.472-.168.925-.384 1.352-.644.587-.317 1.052-.82 1.323-1.429v1.809c-.297.573-.757 1.045-1.323 1.355-.428.264-.88.485-1.352.662-.44.165-.89.3-1.349.406-.445.107-.895.19-1.349.248-.436.06-.89.103-1.352.123-.225 0-.456.016-.688.016-.231 0-.443 0-.66-.016-.464-.02-.913-.06-1.35-.116-.436-.056-.922-.146-1.349-.245-.458-.105-.91-.24-1.352-.403-.469-.172-.92-.388-1.349-.645-.576-.314-1.045-.793-1.349-1.375v-1.809c.275.622.75 1.133 1.35 1.452z"/>
        <path fill="#F9A535" d="M10.039 60.386c0-1.703 3.378-2.629 6.559-2.645 3.18-.017 6.56.929 6.56 2.645s-3.38 2.645-6.56 2.645c-3.18-.017-6.56-.94-6.56-2.645zm.773 0c0 .896 2.377 1.898 5.786 1.9 3.409.004 5.782-.991 5.782-1.9 0-.91-2.373-1.895-5.782-1.901-3.409-.007-5.786 1.005-5.786 1.9z"/>
        <path fill="#F7A231" d="M17.405 59.143c.046 0 .062.036.062.07v.174c0 .06-.026.04-.059.047h-.618c.065.057.113.131.139.215 0 .016.02.023.046.02h.383c.076 0 .103.02.103.069v.155c0 .05-.027.07-.1.07h-.383c-.023 0-.033 0-.04.02-.04.142-.132.266-.257.347-.117.078-.247.137-.384.172-.114.03-.23.05-.347.059h-.043l.33.255c.12.089.232.181.348.274l.46.38c.059.043.036.08-.024.103h-.486c-.045.002-.089-.01-.125-.037l-.272-.218-.238-.188c-.132-.106-.264-.212-.4-.314l-.347-.262c-.02-.01-.032-.03-.033-.052v-.205c0-.07.03-.067.1-.067h.267c.155.004.31-.013.46-.05.104-.02.2-.068.28-.138.032-.03.056-.066.073-.106h-1.117c-.03-.001-.055-.021-.063-.05v-.191c0-.063.027-.043.07-.046h1.067c-.065-.07-.15-.12-.244-.14-.128-.03-.259-.045-.39-.042h-.397c-.076 0-.106-.023-.1-.08.007-.063.007-.128 0-.191-.001-.038.026-.071.064-.076l2.215.023zM33.876 48.447c.046 0 .063.037.063.07v.172c0 .056-.027.043-.06.046h-.618v.017c.064.059.113.132.142.214 0 .02 0 .024.043.024h.383c.077 0 .103 0 .103.069v.152c0 .05-.026.07-.1.07h-.373c-.023 0-.033 0-.036.023-.042.143-.135.267-.261.347-.117.076-.246.133-.38.168-.116.03-.233.05-.351.063h-.043l.33.258.331.275.463.376c.06.043.036.083-.023.106h-.483c-.045.002-.09-.011-.129-.036l-.27-.222-.239-.188-.4-.314-.347-.258c-.018-.013-.03-.034-.03-.056v-.202c0-.046.033-.07.1-.07h.267c.155.004.309-.012.46-.046.105-.022.203-.07.284-.142.031-.03.055-.066.07-.106h-1.115c-.036 0-.062-.023-.062-.05-.004-.063-.004-.127 0-.191 0-.026.03-.043.069-.046h1.068v-.017c-.067-.069-.154-.116-.248-.135-.128-.032-.259-.048-.39-.047H31.7c-.076 0-.109-.026-.102-.082.005-.064.005-.128 0-.192 0-.033 0-.06.06-.073l2.218.023zM43.741 72.073c.058.02.095.078.09.139v.363c-.003.048-.037.087-.083.096H42.882c.005.013.011.026.02.037.094.134.16.286.195.446.001.015.009.028.02.037.013.009.028.012.042.01h.546c.106 0 .145.036.145.141v.331c0 .1-.04.139-.142.139h-.542c-.033 0-.046 0-.053.046-.047.272-.175.523-.367.721-.154.154-.339.273-.542.35-.159.063-.324.106-.493.13h-.06v.03c.16.174.331.35.477.528.145.179.33.38.486.572.221.261.436.522.661.787.037.028.055.073.048.119-.007.045-.038.083-.081.1h-.691c-.068 0-.132-.028-.179-.077l-.38-.453-.33-.39-.566-.661c-.162-.182-.33-.36-.492-.54-.029-.028-.044-.068-.043-.108v-.423c0-.096.046-.14.142-.14h.377c.225.007.449-.027.661-.102.16-.053.298-.155.397-.29.047-.068.082-.143.102-.222h-1.58c-.05-.01-.087-.054-.086-.106v-.397c0-.056.04-.089.1-.096h1.51v-.033c-.079-.132-.202-.233-.347-.284-.178-.065-.366-.097-.556-.093h-.555c-.11 0-.152-.052-.145-.168.008-.132.008-.265 0-.397-.011-.065.025-.128.086-.152l3.074.01z"/>
    </g>
</svg>
