<svg xmlns="http://www.w3.org/2000/svg" xmlns:xlink="http://www.w3.org/1999/xlink" width="108" height="108" viewBox="0 0 108 108">
    <defs>
        <path id="prefix__a" d="M11.876 6.692L6.887 22.716 0.188 20.693 4.08 0.274z"/>
    </defs>
    <g fill="none" fill-rule="evenodd" transform="translate(9.918 7.714)">
        <path fill="#004393" fill-rule="nonzero" d="M62.85 92.25h3.306V43.36c0-8.58-6.788-15.767-15.364-15.93-8.049-.15-14.906 5.815-15.87 13.807-.059.473.09.948.406 1.304.316.356.771.558 1.248.554.85.005 1.566-.638 1.653-1.484.771-6.315 6.203-11.016 12.563-10.874 6.751.159 12.064 5.839 12.064 12.59l-.007 48.924z"/>
        <path fill="#49B2FF" fill-rule="nonzero" d="M44.286 62.763c-1.984-1.054-4.63-4.46 2.816-7.121.364-.284.74-.575 1.121-.912.612-.529.86-1.367.632-2.143-.275-.907-1.167-1.482-2.106-1.359-.89.073-.754-.618-1.624-1.12-.383-.236-.782-.446-1.193-.629-2.126-.85-3.498.592-4.087 1.207-.38.301-.802.546-1.253.728-.041.018-.085.033-.129.046-1.015.294-1.544.248-2.496-.599-2.102-1.87-3.937-.939-4.45-.608-.512.33-.806.942-1.07 1.52-.115.263-.243.519-.384.768-.041.08-.093.153-.156.218h-.05c-.191.03-.234.036-.621-.245l-.149-.109c-.854-.641-1.782-1.179-2.764-1.6l-.139-.063c-.148-.07-.33-.158-.542-.238-.765-.353-1.634-.406-2.436-.148-.256.062-.499.168-.718.314-.42.308-.724.75-.863 1.253-.318 1.118.131 2.314 1.108 2.945 1.395.916 8.993 3.25 2.893 8.213-13.83 10.12-9.538 22.23-6.973 25.665.218.298.45.585.691.866.961.963 1.992 1.854 3.085 2.665H47.36c1.378-.884 2.59-2.003 3.58-3.306 2.556-3.28 8.197-14.778-6.654-26.208z"/>
        <path fill="#FFF" fill-rule="nonzero" d="M39.657 71.382c.171.061.277.233.255.414v1.058c-.006.137-.107.25-.242.274-.066.013-.134.02-.202.02h-2.35c.015.036.034.07.056.102.279.39.474.834.575 1.303.027.11.076.136.182.132h1.59c.311 0 .424.113.424.417v.936c0 .294-.113.41-.414.413h-1.58c-.103 0-.142.023-.162.132-.133.793-.506 1.525-1.068 2.1-.447.452-.986.804-1.58 1.03-.465.182-.95.306-1.445.371l-.172.027c.015.029.033.056.053.082.463.516.929 1.029 1.385 1.55.456.523.956 1.105 1.425 1.654.642.764 1.273 1.53 1.908 2.298l.033.036c.108.08.163.213.142.346-.02.133-.111.244-.238.289h-1.984c-.2.006-.394-.076-.529-.225-.373-.44-.744-.886-1.117-1.322-.324-.384-.655-.764-.992-1.141-.549-.638-1.098-1.273-1.653-1.904-.47-.53-.952-1.052-1.432-1.574-.085-.088-.132-.208-.129-.33v-1.234c-.016-.114.023-.229.105-.309.083-.08.199-.117.312-.098h1.101c.648.02 1.295-.079 1.908-.29.466-.16.872-.459 1.163-.857.14-.192.24-.41.295-.641h-4.447c-.068.005-.137.005-.205 0-.144-.032-.25-.157-.258-.304v-1.16c.004-.157.131-.282.288-.282.051-.003.103-.003.155 0h4.262c-.01-.033-.022-.065-.037-.096-.23-.386-.59-.679-1.015-.826-.518-.192-1.067-.285-1.62-.275h-1.626c-.33 0-.44-.152-.42-.489.021-.389.021-.778 0-1.167-.033-.189.072-.375.251-.443l9.049-.017z"/>
        <path fill="#FF9C78" fill-rule="nonzero" d="M21.298 25.513l4.4-14.388 6.024 3.934s.843 1.541 5.644.136c4.8-1.405 7.76-1.805 10.758-1.339 4.543.707 23.695 13.611 23.695 13.611s-1.22 4.212-6.9 1.95c0 0-.661 1.84-3.762 1.84l-6.712-3.373s-1.276 1.1-5.577 1.157h-6.341s-4.814 3.227-9.786 2.218c-4.973-1.008-7.125-4.1-7.125-4.1l-4.318-1.646z"/>
        <path fill="#C16F4F" fill-rule="nonzero" d="M54.445 27.884s2.063-1.501 2.063-4.093c0 0-9.521-.394-12.768-1.57 0 0 .195-3.925 3.696-3.535 3.501.39 22.902 10.729 22.902 10.729s-1.855 1.633-5.41 0c0 0-.597 1.768-3.761 1.838l-6.722-3.37z" opacity=".5"/>
        <path fill="#FFC400" fill-rule="nonzero" d="M26.075 10.441L21.086 26.466 14.388 24.442 18.28 4.024z"/>
        <path fill="#C16F4F" fill-rule="nonzero" d="M21.374 25.543l4.46-14.329-.744 12.197 1.422.601s3.306 6.226 15.87 3.515l12.063.357s-1.167 1.157-7.882 1.157h-4.261s-8.652 6.47-16.69-1.881l-4.238-1.617z" opacity=".5"/>
        <g opacity=".5" transform="translate(14.2 3.75)">
            <mask id="prefix__b" fill="#fff">
                <use xlink:href="#prefix__a"/>
            </mask>
            <g fill="#FFF" fill-rule="nonzero" mask="url(#prefix__b)">
                <g transform="translate(-21.16 -11.571)">
                    <circle cx="47.221" cy="48.061" r="1"/>
                    <circle cx="47.605" cy="46.153" r="1"/>
                    <circle cx="47.985" cy="44.249" r="1"/>
                    <circle cx="48.369" cy="42.342" r="1"/>
                    <circle cx="48.749" cy="40.434" r="1"/>
                    <circle cx="49.132" cy="38.53" r="1"/>
                    <circle cx="49.512" cy="36.622" r="1"/>
                    <circle cx="49.896" cy="34.714" r="1"/>
                    <circle cx="50.276" cy="32.81" r="1"/>
                    <circle cx="50.66" cy="30.902" r="1"/>
                    <circle cx="51.04" cy="28.995" r="1"/>
                    <circle cx="51.423" cy="27.09" r="1"/>
                    <circle cx="51.804" cy="25.183" r="1"/>
                    <circle cx="52.184" cy="23.278" r="1"/>
                    <circle cx="52.567" cy="21.371" r="1"/>
                    <circle cx="52.948" cy="19.463" r="1"/>
                    <circle cx="53.331" cy="17.559" r="1"/>
                    <circle cx="53.711" cy="15.651" r="1"/>
                    <circle cx="54.095" cy="13.744" r="1"/>
                    <circle cx="54.475" cy="11.839" r="1"/>
                    <circle cx="54.858" cy="9.932" r="1"/>
                    <circle cx="45.486" cy="47.714" r="1"/>
                    <circle cx="45.869" cy="45.806" r="1"/>
                    <circle cx="46.249" cy="43.902" r="1"/>
                    <circle cx="46.633" cy="41.994" r="1"/>
                    <circle cx="47.013" cy="40.087" r="1"/>
                    <circle cx="47.397" cy="38.182" r="1"/>
                    <circle cx="47.777" cy="36.275" r="1"/>
                    <circle cx="48.16" cy="34.367" r="1"/>
                    <circle cx="48.54" cy="32.463" r="1"/>
                    <circle cx="48.924" cy="30.555" r="1"/>
                    <circle cx="49.304" cy="28.648" r="1"/>
                    <circle cx="49.688" cy="26.743" r="1"/>
                    <circle cx="50.068" cy="24.836" r="1"/>
                    <circle cx="50.451" cy="22.928" r="1"/>
                    <circle cx="50.832" cy="21.024" r="1"/>
                    <circle cx="51.215" cy="19.116" r="1"/>
                    <circle cx="51.595" cy="17.208" r="1"/>
                    <circle cx="51.976" cy="15.304" r="1"/>
                    <circle cx="52.359" cy="13.396" r="1"/>
                    <circle cx="52.739" cy="11.489" r="1"/>
                    <circle cx="53.123" cy="9.584" r="1"/>
                    <circle cx="43.753" cy="47.367" r="1"/>
                    <circle cx="44.133" cy="45.459" r="1"/>
                    <circle cx="44.517" cy="43.555" r="1"/>
                    <circle cx="44.897" cy="41.647" r="1"/>
                    <circle cx="45.277" cy="39.74" r="1"/>
                    <circle cx="45.661" cy="37.835" r="1"/>
                    <circle cx="46.041" cy="35.928" r="1"/>
                    <circle cx="46.425" cy="34.02" r="1"/>
                    <circle cx="46.805" cy="32.116" r="1"/>
                    <circle cx="47.188" cy="30.208" r="1"/>
                    <circle cx="47.568" cy="28.3" r="1"/>
                    <circle cx="47.952" cy="26.396" r="1"/>
                    <circle cx="48.332" cy="24.488" r="1"/>
                    <circle cx="48.716" cy="22.581" r="1"/>
                    <circle cx="49.096" cy="20.676" r="1"/>
                    <circle cx="49.479" cy="18.769" r="1"/>
                    <circle cx="49.86" cy="16.861" r="1"/>
                    <circle cx="50.243" cy="14.957" r="1"/>
                    <circle cx="50.623" cy="13.049" r="1"/>
                    <circle cx="51.007" cy="11.142" r="1"/>
                    <circle cx="51.387" cy="9.237" r="1"/>
                    <circle cx="42.018" cy="47.02" r="1"/>
                    <circle cx="42.398" cy="45.112" r="1"/>
                    <circle cx="42.781" cy="43.204" r="1"/>
                    <circle cx="43.161" cy="41.3" r="1"/>
                    <circle cx="43.545" cy="39.392" r="1"/>
                    <circle cx="43.925" cy="37.485" r="1"/>
                    <circle cx="44.309" cy="35.58" r="1"/>
                    <circle cx="44.689" cy="33.673" r="1"/>
                    <circle cx="45.069" cy="31.769" r="1"/>
                    <circle cx="45.453" cy="29.861" r="1"/>
                    <circle cx="45.833" cy="27.953" r="1"/>
                    <circle cx="46.216" cy="26.049" r="1"/>
                    <circle cx="46.596" cy="24.141" r="1"/>
                    <circle cx="46.98" cy="22.234" r="1"/>
                    <circle cx="47.36" cy="20.329" r="1"/>
                    <circle cx="47.744" cy="18.422" r="1"/>
                    <circle cx="48.124" cy="16.514" r="1"/>
                    <circle cx="48.507" cy="14.61" r="1"/>
                    <circle cx="48.888" cy="12.702" r="1"/>
                    <circle cx="49.271" cy="10.794" r="1"/>
                    <circle cx="49.651" cy="8.89" r="1"/>
                    <circle cx="40.282" cy="46.673" r="1"/>
                    <circle cx="40.662" cy="44.765" r="1"/>
                    <circle cx="41.046" cy="42.857" r="1"/>
                    <circle cx="41.426" cy="40.953" r="1"/>
                    <circle cx="41.809" cy="39.045" r="1"/>
                    <circle cx="42.189" cy="37.138" r="1"/>
                    <circle cx="42.573" cy="35.233" r="1"/>
                    <circle cx="42.953" cy="33.326" r="1"/>
                    <circle cx="43.337" cy="31.418" r="1"/>
                    <circle cx="43.717" cy="29.514" r="1"/>
                    <circle cx="44.1" cy="27.606" r="1"/>
                    <circle cx="44.481" cy="25.698" r="1"/>
                    <circle cx="44.861" cy="23.794" r="1"/>
                    <circle cx="45.244" cy="21.887" r="1"/>
                    <circle cx="45.624" cy="19.979" r="1"/>
                    <circle cx="46.008" cy="18.075" r="1"/>
                    <circle cx="46.388" cy="16.167" r="1"/>
                    <circle cx="46.772" cy="14.259" r="1"/>
                    <circle cx="47.152" cy="12.355" r="1"/>
                    <circle cx="47.535" cy="10.447" r="1"/>
                    <circle cx="47.916" cy="8.543" r="1"/>
                    <circle cx="38.546" cy="46.325" r="1"/>
                    <circle cx="38.926" cy="44.418" r="1"/>
                    <circle cx="39.31" cy="42.51" r="1"/>
                    <circle cx="39.69" cy="40.606" r="1"/>
                    <circle cx="40.074" cy="38.698" r="1"/>
                    <circle cx="40.454" cy="36.791" r="1"/>
                    <circle cx="40.837" cy="34.886" r="1"/>
                    <circle cx="41.217" cy="32.979" r="1"/>
                    <circle cx="41.601" cy="31.071" r="1"/>
                    <circle cx="41.981" cy="29.167" r="1"/>
                    <circle cx="42.365" cy="27.259" r="1"/>
                    <circle cx="42.745" cy="25.351" r="1"/>
                    <circle cx="43.128" cy="23.447" r="1"/>
                    <circle cx="43.509" cy="21.539" r="1"/>
                    <circle cx="43.892" cy="19.632" r="1"/>
                    <circle cx="44.272" cy="17.727" r="1"/>
                    <circle cx="44.652" cy="15.82" r="1"/>
                    <circle cx="45.036" cy="13.912" r="1"/>
                    <circle cx="45.416" cy="12.008" r="1"/>
                    <circle cx="45.8" cy="10.1" r="1"/>
                    <circle cx="46.18" cy="8.193" r="1"/>
                    <circle cx="36.81" cy="45.975" r="1"/>
                    <circle cx="37.194" cy="44.071" r="1"/>
                    <circle cx="37.574" cy="42.163" r="1"/>
                    <circle cx="37.958" cy="40.259" r="1"/>
                    <circle cx="38.338" cy="38.351" r="1"/>
                    <circle cx="38.718" cy="36.443" r="1"/>
                    <circle cx="39.102" cy="34.539" r="1"/>
                    <circle cx="39.482" cy="32.631" r="1"/>
                    <circle cx="39.865" cy="30.724" r="1"/>
                    <circle cx="40.245" cy="28.819" r="1"/>
                    <circle cx="40.629" cy="26.912" r="1"/>
                    <circle cx="41.009" cy="25.004" r="1"/>
                    <circle cx="41.393" cy="23.1" r="1"/>
                    <circle cx="41.773" cy="21.192" r="1"/>
                    <circle cx="42.156" cy="19.285" r="1"/>
                    <circle cx="42.537" cy="17.38" r="1"/>
                    <circle cx="42.92" cy="15.473" r="1"/>
                    <circle cx="43.3" cy="13.565" r="1"/>
                    <circle cx="43.684" cy="11.661" r="1"/>
                    <circle cx="44.064" cy="9.753" r="1"/>
                    <circle cx="44.444" cy="7.845" r="1"/>
                    <circle cx="35.075" cy="45.628" r="1"/>
                    <circle cx="35.458" cy="43.723" r="1"/>
                    <circle cx="35.838" cy="41.816" r="1"/>
                    <circle cx="36.222" cy="39.908" r="1"/>
                    <circle cx="36.602" cy="38.004" r="1"/>
                    <circle cx="36.986" cy="36.096" r="1"/>
                    <circle cx="37.366" cy="34.189" r="1"/>
                    <circle cx="37.749" cy="32.284" r="1"/>
                    <circle cx="38.13" cy="30.377" r="1"/>
                    <circle cx="38.51" cy="28.469" r="1"/>
                    <circle cx="38.893" cy="26.565" r="1"/>
                    <circle cx="39.273" cy="24.657" r="1"/>
                    <circle cx="39.657" cy="22.749" r="1"/>
                    <circle cx="40.037" cy="20.845" r="1"/>
                    <circle cx="40.421" cy="18.937" r="1"/>
                    <circle cx="40.801" cy="17.03" r="1"/>
                    <circle cx="41.184" cy="15.126" r="1"/>
                    <circle cx="41.565" cy="13.218" r="1"/>
                    <circle cx="41.948" cy="11.314" r="1"/>
                    <circle cx="42.328" cy="9.406" r="1"/>
                    <circle cx="42.712" cy="7.498" r="1"/>
                    <circle cx="33.339" cy="45.281" r="1"/>
                    <circle cx="33.722" cy="43.376" r="1"/>
                    <circle cx="34.103" cy="41.469" r="1"/>
                    <circle cx="34.486" cy="39.561" r="1"/>
                    <circle cx="34.866" cy="37.657" r="1"/>
                    <circle cx="35.25" cy="35.749" r="1"/>
                    <circle cx="35.63" cy="33.841" r="1"/>
                    <circle cx="36.014" cy="31.937" r="1"/>
                    <circle cx="36.394" cy="30.03" r="1"/>
                    <circle cx="36.777" cy="28.122" r="1"/>
                    <circle cx="37.158" cy="26.218" r="1"/>
                    <circle cx="37.541" cy="24.31" r="1"/>
                    <circle cx="37.921" cy="22.402" r="1"/>
                    <circle cx="38.301" cy="20.498" r="1"/>
                    <circle cx="38.685" cy="18.59" r="1"/>
                    <circle cx="39.065" cy="16.683" r="1"/>
                    <circle cx="39.449" cy="14.778" r="1"/>
                    <circle cx="39.829" cy="12.871" r="1"/>
                    <circle cx="40.212" cy="10.963" r="1"/>
                    <circle cx="40.593" cy="9.059" r="1"/>
                    <circle cx="40.976" cy="7.151" r="1"/>
                    <circle cx="31.603" cy="44.934" r="1"/>
                    <circle cx="31.987" cy="43.029" r="1"/>
                    <circle cx="32.367" cy="41.122" r="1"/>
                    <circle cx="32.75" cy="39.214" r="1"/>
                    <circle cx="33.131" cy="37.31" r="1"/>
                    <circle cx="33.514" cy="35.402" r="1"/>
                    <circle cx="33.894" cy="33.494" r="1"/>
                    <circle cx="34.278" cy="31.59" r="1"/>
                    <circle cx="34.658" cy="29.682" r="1"/>
                    <circle cx="35.042" cy="27.775" r="1"/>
                    <circle cx="35.422" cy="25.87" r="1"/>
                    <circle cx="35.805" cy="23.963" r="1"/>
                    <circle cx="36.186" cy="22.055" r="1"/>
                    <circle cx="36.569" cy="20.151" r="1"/>
                    <circle cx="36.949" cy="18.243" r="1"/>
                    <circle cx="37.333" cy="16.336" r="1"/>
                    <circle cx="37.713" cy="14.431" r="1"/>
                    <circle cx="38.093" cy="12.524" r="1"/>
                    <circle cx="38.477" cy="10.616" r="1"/>
                    <circle cx="38.857" cy="8.712" r="1"/>
                    <circle cx="39.24" cy="6.804" r="1"/>
                    <circle cx="29.871" cy="44.586" r="1"/>
                    <circle cx="30.251" cy="42.679" r="1"/>
                    <circle cx="30.635" cy="40.774" r="1"/>
                    <circle cx="31.015" cy="38.867" r="1"/>
                    <circle cx="31.395" cy="36.959" r="1"/>
                    <circle cx="31.778" cy="35.055" r="1"/>
                    <circle cx="32.159" cy="33.147" r="1"/>
                    <circle cx="32.542" cy="31.24" r="1"/>
                    <circle cx="32.922" cy="29.335" r="1"/>
                    <circle cx="33.306" cy="27.428" r="1"/>
                    <circle cx="33.686" cy="25.52" r="1"/>
                    <circle cx="34.07" cy="23.616" r="1"/>
                    <circle cx="34.45" cy="21.708" r="1"/>
                    <circle cx="34.833" cy="19.804" r="1"/>
                    <circle cx="35.214" cy="17.896" r="1"/>
                    <circle cx="35.597" cy="15.988" r="1"/>
                    <circle cx="35.977" cy="14.084" r="1"/>
                    <circle cx="36.361" cy="12.176" r="1"/>
                    <circle cx="36.741" cy="10.269" r="1"/>
                    <circle cx="37.124" cy="8.364" r="1"/>
                    <circle cx="37.505" cy="6.457" r="1"/>
                    <circle cx="28.135" cy="44.239" r="1"/>
                    <circle cx="28.515" cy="42.332" r="1"/>
                    <circle cx="28.899" cy="40.427" r="1"/>
                    <circle cx="29.279" cy="38.52" r="1"/>
                    <circle cx="29.663" cy="36.612" r="1"/>
                    <circle cx="30.043" cy="34.708" r="1"/>
                    <circle cx="30.426" cy="32.8" r="1"/>
                    <circle cx="30.806" cy="30.892" r="1"/>
                    <circle cx="31.187" cy="28.988" r="1"/>
                    <circle cx="31.57" cy="27.08" r="1"/>
                    <circle cx="31.95" cy="25.173" r="1"/>
                    <circle cx="32.334" cy="23.268" r="1"/>
                    <circle cx="32.714" cy="21.361" r="1"/>
                    <circle cx="33.098" cy="19.453" r="1"/>
                    <circle cx="33.478" cy="17.549" r="1"/>
                    <circle cx="33.861" cy="15.641" r="1"/>
                    <circle cx="34.242" cy="13.734" r="1"/>
                    <circle cx="34.625" cy="11.829" r="1"/>
                    <circle cx="35.005" cy="9.922" r="1"/>
                    <circle cx="35.389" cy="8.014" r="1"/>
                    <circle cx="35.769" cy="6.11" r="1"/>
                    <circle cx="26.399" cy="43.892" r="1"/>
                    <circle cx="26.78" cy="41.984" r="1"/>
                    <circle cx="27.163" cy="40.08" r="1"/>
                    <circle cx="27.543" cy="38.172" r="1"/>
                    <circle cx="27.927" cy="36.265" r="1"/>
                    <circle cx="28.307" cy="34.361" r="1"/>
                    <circle cx="28.691" cy="32.453" r="1"/>
                    <circle cx="29.071" cy="30.545" r="1"/>
                    <circle cx="29.454" cy="28.641" r="1"/>
                    <circle cx="29.834" cy="26.733" r="1"/>
                    <circle cx="30.218" cy="24.826" r="1"/>
                    <circle cx="30.598" cy="22.921" r="1"/>
                    <circle cx="30.978" cy="21.014" r="1"/>
                    <circle cx="31.362" cy="19.106" r="1"/>
                    <circle cx="31.742" cy="17.202" r="1"/>
                    <circle cx="32.126" cy="15.294" r="1"/>
                    <circle cx="32.506" cy="13.386" r="1"/>
                    <circle cx="32.889" cy="11.482" r="1"/>
                    <circle cx="33.27" cy="9.575" r="1"/>
                    <circle cx="33.653" cy="7.667" r="1"/>
                    <circle cx="34.033" cy="5.763" r="1"/>
                    <circle cx="24.664" cy="43.545" r="1"/>
                    <circle cx="25.044" cy="41.637" r="1"/>
                    <circle cx="25.427" cy="39.73" r="1"/>
                    <circle cx="25.808" cy="37.825" r="1"/>
                    <circle cx="26.191" cy="35.918" r="1"/>
                    <circle cx="26.571" cy="34.01" r="1"/>
                    <circle cx="26.955" cy="32.106" r="1"/>
                    <circle cx="27.335" cy="30.198" r="1"/>
                    <circle cx="27.719" cy="28.294" r="1"/>
                    <circle cx="28.099" cy="26.386" r="1"/>
                    <circle cx="28.482" cy="24.479" r="1"/>
                    <circle cx="28.862" cy="22.574" r="1"/>
                    <circle cx="29.246" cy="20.667" r="1"/>
                    <circle cx="29.626" cy="18.759" r="1"/>
                    <circle cx="30.01" cy="16.855" r="1"/>
                    <circle cx="30.39" cy="14.947" r="1"/>
                    <circle cx="30.77" cy="13.039" r="1"/>
                    <circle cx="31.154" cy="11.135" r="1"/>
                    <circle cx="31.534" cy="9.227" r="1"/>
                    <circle cx="31.917" cy="7.32" r="1"/>
                    <circle cx="32.298" cy="5.415" r="1"/>
                    <circle cx="22.928" cy="43.198" r="1"/>
                    <circle cx="23.311" cy="41.29" r="1"/>
                    <circle cx="23.692" cy="39.383" r="1"/>
                    <circle cx="24.075" cy="37.478" r="1"/>
                    <circle cx="24.455" cy="35.571" r="1"/>
                    <circle cx="24.836" cy="33.663" r="1"/>
                    <circle cx="25.219" cy="31.759" r="1"/>
                    <circle cx="25.599" cy="29.851" r="1"/>
                    <circle cx="25.983" cy="27.943" r="1"/>
                    <circle cx="26.363" cy="26.039" r="1"/>
                    <circle cx="26.747" cy="24.131" r="1"/>
                    <circle cx="27.127" cy="22.224" r="1"/>
                    <circle cx="27.51" cy="20.319" r="1"/>
                    <circle cx="27.89" cy="18.412" r="1"/>
                    <circle cx="28.274" cy="16.504" r="1"/>
                    <circle cx="28.654" cy="14.6" r="1"/>
                    <circle cx="29.038" cy="12.692" r="1"/>
                    <circle cx="29.418" cy="10.785" r="1"/>
                    <circle cx="29.801" cy="8.88" r="1"/>
                    <circle cx="30.182" cy="6.973" r="1"/>
                    <circle cx="30.562" cy="5.065" r="1"/>
                    <circle cx="21.192" cy="42.851" r="1"/>
                    <circle cx="21.576" cy="40.943" r="1"/>
                    <circle cx="21.956" cy="39.035" r="1"/>
                    <circle cx="22.339" cy="37.131" r="1"/>
                    <circle cx="22.72" cy="35.223" r="1"/>
                    <circle cx="23.103" cy="33.316" r="1"/>
                    <circle cx="23.483" cy="31.411" r="1"/>
                    <circle cx="23.867" cy="29.504" r="1"/>
                    <circle cx="24.247" cy="27.596" r="1"/>
                    <circle cx="24.627" cy="25.692" r="1"/>
                    <circle cx="25.011" cy="23.784" r="1"/>
                    <circle cx="25.391" cy="21.877" r="1"/>
                    <circle cx="25.775" cy="19.972" r="1"/>
                    <circle cx="26.155" cy="18.065" r="1"/>
                    <circle cx="26.538" cy="16.157" r="1"/>
                    <circle cx="26.918" cy="14.253" r="1"/>
                    <circle cx="27.302" cy="12.345" r="1"/>
                    <circle cx="27.682" cy="10.437" r="1"/>
                    <circle cx="28.066" cy="8.533" r="1"/>
                    <circle cx="28.446" cy="6.625" r="1"/>
                    <circle cx="28.829" cy="4.718" r="1"/>
                    <circle cx="19.457" cy="42.5" r="1"/>
                    <circle cx="19.84" cy="40.596" r="1"/>
                    <circle cx="20.22" cy="38.688" r="1"/>
                    <circle cx="20.604" cy="36.781" r="1"/>
                    <circle cx="20.984" cy="34.876" r="1"/>
                    <circle cx="21.367" cy="32.969" r="1"/>
                    <circle cx="21.748" cy="31.064" r="1"/>
                    <circle cx="22.131" cy="29.157" r="1"/>
                    <circle cx="22.511" cy="27.249" r="1"/>
                    <circle cx="22.895" cy="25.345" r="1"/>
                    <circle cx="23.275" cy="23.437" r="1"/>
                    <circle cx="23.659" cy="21.529" r="1"/>
                    <circle cx="24.039" cy="19.625" r="1"/>
                    <circle cx="24.419" cy="17.718" r="1"/>
                    <circle cx="24.803" cy="15.81" r="1"/>
                    <circle cx="25.183" cy="13.906" r="1"/>
                    <circle cx="25.566" cy="11.998" r="1"/>
                    <circle cx="25.946" cy="10.09" r="1"/>
                    <circle cx="26.33" cy="8.186" r="1"/>
                    <circle cx="26.71" cy="6.278" r="1"/>
                    <circle cx="27.094" cy="4.371" r="1"/>
                    <circle cx="17.721" cy="42.153" r="1"/>
                    <circle cx="18.104" cy="40.249" r="1"/>
                    <circle cx="18.485" cy="38.341" r="1"/>
                    <circle cx="18.868" cy="36.433" r="1"/>
                    <circle cx="19.248" cy="34.529" r="1"/>
                    <circle cx="19.632" cy="32.622" r="1"/>
                    <circle cx="20.012" cy="30.714" r="1"/>
                    <circle cx="20.395" cy="28.81" r="1"/>
                    <circle cx="20.776" cy="26.902" r="1"/>
                    <circle cx="21.159" cy="24.994" r="1"/>
                    <circle cx="21.539" cy="23.09" r="1"/>
                    <circle cx="21.923" cy="21.182" r="1"/>
                    <circle cx="22.303" cy="19.275" r="1"/>
                    <circle cx="22.687" cy="17.37" r="1"/>
                    <circle cx="23.067" cy="15.463" r="1"/>
                    <circle cx="23.45" cy="13.555" r="1"/>
                    <circle cx="23.831" cy="11.651" r="1"/>
                    <circle cx="24.211" cy="9.743" r="1"/>
                    <circle cx="24.594" cy="7.839" r="1"/>
                    <circle cx="24.974" cy="5.931" r="1"/>
                    <circle cx="25.358" cy="4.024" r="1"/>
                    <circle cx="15.988" cy="41.806" r="1"/>
                    <circle cx="16.369" cy="39.902" r="1"/>
                    <circle cx="16.752" cy="37.994" r="1"/>
                    <circle cx="17.132" cy="36.086" r="1"/>
                    <circle cx="17.513" cy="34.182" r="1"/>
                    <circle cx="17.896" cy="32.274" r="1"/>
                    <circle cx="18.276" cy="30.367" r="1"/>
                    <circle cx="18.66" cy="28.462" r="1"/>
                    <circle cx="19.04" cy="26.555" r="1"/>
                    <circle cx="19.423" cy="24.647" r="1"/>
                    <circle cx="19.804" cy="22.743" r="1"/>
                    <circle cx="20.187" cy="20.835" r="1"/>
                    <circle cx="20.567" cy="18.928" r="1"/>
                    <circle cx="20.951" cy="17.023" r="1"/>
                    <circle cx="21.331" cy="15.116" r="1"/>
                    <circle cx="21.715" cy="13.208" r="1"/>
                    <circle cx="22.095" cy="11.304" r="1"/>
                    <circle cx="22.478" cy="9.396" r="1"/>
                    <circle cx="22.859" cy="7.488" r="1"/>
                    <circle cx="23.242" cy="5.584" r="1"/>
                    <circle cx="23.622" cy="3.676" r="1"/>
                    <circle cx="14.253" cy="41.459" r="1"/>
                    <circle cx="14.633" cy="39.554" r="1"/>
                    <circle cx="15.016" cy="37.647" r="1"/>
                    <circle cx="15.397" cy="35.739" r="1"/>
                    <circle cx="15.78" cy="33.835" r="1"/>
                    <circle cx="16.16" cy="31.927" r="1"/>
                    <circle cx="16.544" cy="30.02" r="1"/>
                    <circle cx="16.924" cy="28.115" r="1"/>
                    <circle cx="17.304" cy="26.208" r="1"/>
                    <circle cx="17.688" cy="24.3" r="1"/>
                    <circle cx="18.068" cy="22.396" r="1"/>
                    <circle cx="18.451" cy="20.488" r="1"/>
                    <circle cx="18.832" cy="18.58" r="1"/>
                    <circle cx="19.215" cy="16.676" r="1"/>
                    <circle cx="19.595" cy="14.768" r="1"/>
                    <circle cx="19.979" cy="12.861" r="1"/>
                    <circle cx="20.359" cy="10.956" r="1"/>
                    <circle cx="20.743" cy="9.049" r="1"/>
                    <circle cx="21.123" cy="7.141" r="1"/>
                    <circle cx="21.506" cy="5.237" r="1"/>
                    <circle cx="21.887" cy="3.329" r="1"/>
                    <circle cx="12.517" cy="41.112" r="1"/>
                    <circle cx="12.897" cy="39.204" r="1"/>
                    <circle cx="13.281" cy="37.3" r="1"/>
                    <circle cx="13.661" cy="35.392" r="1"/>
                    <circle cx="14.044" cy="33.484" r="1"/>
                    <circle cx="14.425" cy="31.58" r="1"/>
                    <circle cx="14.808" cy="29.672" r="1"/>
                    <circle cx="15.188" cy="27.765" r="1"/>
                    <circle cx="15.572" cy="25.86" r="1"/>
                    <circle cx="15.952" cy="23.953" r="1"/>
                    <circle cx="16.336" cy="22.045" r="1"/>
                    <circle cx="16.716" cy="20.141" r="1"/>
                    <circle cx="17.096" cy="18.233" r="1"/>
                    <circle cx="17.479" cy="16.329" r="1"/>
                    <circle cx="17.86" cy="14.421" r="1"/>
                    <circle cx="18.243" cy="12.514" r="1"/>
                    <circle cx="18.623" cy="10.609" r="1"/>
                    <circle cx="19.007" cy="8.702" r="1"/>
                    <circle cx="19.387" cy="6.794" r="1"/>
                    <circle cx="19.771" cy="4.89" r="1"/>
                    <circle cx="20.151" cy="2.982" r="1"/>
                    <circle cx="10.781" cy="40.764" r="1"/>
                    <circle cx="11.161" cy="38.857" r="1"/>
                    <circle cx="11.545" cy="36.953" r="1"/>
                    <circle cx="11.925" cy="35.045" r="1"/>
                    <circle cx="12.309" cy="33.137" r="1"/>
                    <circle cx="12.689" cy="31.233" r="1"/>
                    <circle cx="13.072" cy="29.325" r="1"/>
                    <circle cx="13.453" cy="27.418" r="1"/>
                    <circle cx="13.836" cy="25.513" r="1"/>
                    <circle cx="14.216" cy="23.606" r="1"/>
                    <circle cx="14.6" cy="21.698" r="1"/>
                    <circle cx="14.98" cy="19.794" r="1"/>
                    <circle cx="15.364" cy="17.886" r="1"/>
                    <circle cx="15.744" cy="15.978" r="1"/>
                    <circle cx="16.127" cy="14.074" r="1"/>
                    <circle cx="16.507" cy="12.167" r="1"/>
                    <circle cx="16.888" cy="10.259" r="1"/>
                    <circle cx="17.271" cy="8.355" r="1"/>
                    <circle cx="17.651" cy="6.447" r="1"/>
                    <circle cx="18.035" cy="4.539" r="1"/>
                    <circle cx="18.415" cy="2.635" r="1"/>
                    <circle cx="9.046" cy="40.417" r="1"/>
                    <circle cx="9.429" cy="38.51" r="1"/>
                    <circle cx="9.809" cy="36.605" r="1"/>
                    <circle cx="10.189" cy="34.698" r="1"/>
                    <circle cx="10.573" cy="32.79" r="1"/>
                    <circle cx="10.953" cy="30.886" r="1"/>
                    <circle cx="11.337" cy="28.978" r="1"/>
                    <circle cx="11.717" cy="27.071" r="1"/>
                    <circle cx="12.1" cy="25.166" r="1"/>
                    <circle cx="12.481" cy="23.259" r="1"/>
                    <circle cx="12.864" cy="21.351" r="1"/>
                    <circle cx="13.244" cy="19.447" r="1"/>
                    <circle cx="13.628" cy="17.539" r="1"/>
                    <circle cx="14.008" cy="15.631" r="1"/>
                    <circle cx="14.392" cy="13.727" r="1"/>
                    <circle cx="14.772" cy="11.819" r="1"/>
                    <circle cx="15.155" cy="9.912" r="1"/>
                    <circle cx="15.535" cy="8.007" r="1"/>
                    <circle cx="15.919" cy="6.1" r="1"/>
                    <circle cx="16.299" cy="4.192" r="1"/>
                    <circle cx="16.679" cy="2.288" r="1"/>
                    <circle cx="7.31" cy="40.07" r="1"/>
                    <circle cx="7.693" cy="38.163" r="1"/>
                    <circle cx="8.074" cy="36.255" r="1"/>
                    <circle cx="8.457" cy="34.351" r="1"/>
                    <circle cx="8.837" cy="32.443" r="1"/>
                    <circle cx="9.221" cy="30.535" r="1"/>
                    <circle cx="9.601" cy="28.631" r="1"/>
                    <circle cx="9.981" cy="26.723" r="1"/>
                    <circle cx="10.365" cy="24.816" r="1"/>
                    <circle cx="10.745" cy="22.911" r="1"/>
                    <circle cx="11.128" cy="21.004" r="1"/>
                    <circle cx="11.509" cy="19.099" r="1"/>
                    <circle cx="11.892" cy="17.192" r="1"/>
                    <circle cx="12.272" cy="15.284" r="1"/>
                    <circle cx="12.656" cy="13.38" r="1"/>
                    <circle cx="13.036" cy="11.472" r="1"/>
                    <circle cx="13.42" cy="9.565" r="1"/>
                    <circle cx="13.8" cy="7.66" r="1"/>
                    <circle cx="14.183" cy="5.753" r="1"/>
                    <circle cx="14.563" cy="3.845" r="1"/>
                    <circle cx="14.947" cy="1.941" r="1"/>
                    <circle cx="5.574" cy="39.723" r="1"/>
                    <circle cx="5.958" cy="37.815" r="1"/>
                    <circle cx="6.338" cy="35.908" r="1"/>
                    <circle cx="6.721" cy="34.003" r="1"/>
                    <circle cx="7.102" cy="32.096" r="1"/>
                    <circle cx="7.485" cy="30.188" r="1"/>
                    <circle cx="7.865" cy="28.284" r="1"/>
                    <circle cx="8.249" cy="26.376" r="1"/>
                    <circle cx="8.629" cy="24.469" r="1"/>
                    <circle cx="9.012" cy="22.564" r="1"/>
                    <circle cx="9.393" cy="20.657" r="1"/>
                    <circle cx="9.773" cy="18.749" r="1"/>
                    <circle cx="10.156" cy="16.845" r="1"/>
                    <circle cx="10.537" cy="14.937" r="1"/>
                    <circle cx="10.92" cy="13.029" r="1"/>
                    <circle cx="11.3" cy="11.125" r="1"/>
                    <circle cx="11.684" cy="9.217" r="1"/>
                    <circle cx="12.064" cy="7.31" r="1"/>
                    <circle cx="12.448" cy="5.406" r="1"/>
                    <circle cx="12.828" cy="3.498" r="1"/>
                    <circle cx="13.211" cy="1.59" r="1"/>
                    <circle cx="3.838" cy="39.376" r="1"/>
                    <circle cx="4.222" cy="37.468" r="1"/>
                    <circle cx="4.602" cy="35.561" r="1"/>
                    <circle cx="4.986" cy="33.656" r="1"/>
                    <circle cx="5.366" cy="31.749" r="1"/>
                    <circle cx="5.749" cy="29.841" r="1"/>
                    <circle cx="6.13" cy="27.937" r="1"/>
                    <circle cx="6.513" cy="26.029" r="1"/>
                    <circle cx="6.893" cy="24.121" r="1"/>
                    <circle cx="7.277" cy="22.217" r="1"/>
                    <circle cx="7.657" cy="20.31" r="1"/>
                    <circle cx="8.04" cy="18.402" r="1"/>
                    <circle cx="8.421" cy="16.498" r="1"/>
                    <circle cx="8.804" cy="14.59" r="1"/>
                    <circle cx="9.184" cy="12.682" r="1"/>
                    <circle cx="9.568" cy="10.778" r="1"/>
                    <circle cx="9.948" cy="8.87" r="1"/>
                    <circle cx="10.328" cy="6.963" r="1"/>
                    <circle cx="10.712" cy="5.058" r="1"/>
                    <circle cx="11.092" cy="3.151" r="1"/>
                    <circle cx="11.476" cy="1.243" r="1"/>
                    <circle cx="2.106" cy="39.025" r="1"/>
                    <circle cx="2.486" cy="37.121" r="1"/>
                    <circle cx="2.87" cy="35.214" r="1"/>
                    <circle cx="3.25" cy="33.306" r="1"/>
                    <circle cx="3.63" cy="31.402" r="1"/>
                    <circle cx="4.014" cy="29.494" r="1"/>
                    <circle cx="4.394" cy="27.59" r="1"/>
                    <circle cx="4.777" cy="25.682" r="1"/>
                    <circle cx="5.158" cy="23.774" r="1"/>
                    <circle cx="5.541" cy="21.87" r="1"/>
                    <circle cx="5.921" cy="19.962" r="1"/>
                    <circle cx="6.305" cy="18.055" r="1"/>
                    <circle cx="6.685" cy="16.15" r="1"/>
                    <circle cx="7.068" cy="14.243" r="1"/>
                    <circle cx="7.449" cy="12.335" r="1"/>
                    <circle cx="7.832" cy="10.431" r="1"/>
                    <circle cx="8.212" cy="8.523" r="1"/>
                    <circle cx="8.596" cy="6.616" r="1"/>
                    <circle cx="8.976" cy="4.711" r="1"/>
                    <circle cx="9.36" cy="2.804" r="1"/>
                    <circle cx="9.74" cy=".896" r="1"/>
                    <circle cx=".37" cy="38.678" r="1"/>
                    <circle cx=".75" cy="36.774" r="1"/>
                    <circle cx="1.134" cy="34.866" r="1"/>
                    <circle cx="1.514" cy="32.959" r="1"/>
                    <circle cx="1.898" cy="31.054" r="1"/>
                    <circle cx="2.278" cy="29.147" r="1"/>
                    <circle cx="2.661" cy="27.239" r="1"/>
                    <circle cx="3.042" cy="25.335" r="1"/>
                    <circle cx="3.422" cy="23.427" r="1"/>
                    <circle cx="3.805" cy="21.52" r="1"/>
                    <circle cx="4.186" cy="19.615" r="1"/>
                    <circle cx="4.569" cy="17.708" r="1"/>
                    <circle cx="4.949" cy="15.8" r="1"/>
                    <circle cx="5.333" cy="13.896" r="1"/>
                    <circle cx="5.713" cy="11.988" r="1"/>
                    <circle cx="6.096" cy="10.08" r="1"/>
                    <circle cx="6.477" cy="8.176" r="1"/>
                    <circle cx="6.86" cy="6.268" r="1"/>
                    <circle cx="7.24" cy="4.364" r="1"/>
                    <circle cx="7.624" cy="2.456" r="1"/>
                    <circle cx="8.004" cy=".549" r="1"/>
                </g>
            </g>
        </g>
        <path fill="#004393" fill-rule="nonzero" d="M1.23 92.25c6.319-.191 12.636-.32 18.95-.386 3.158-.046 6.319-.056 9.476-.083l9.475-.026 9.476.026c3.16.027 6.318.037 9.475.083 6.317.062 12.635.19 18.954.387-6.32.191-12.637.32-18.954.387-3.157.046-6.315.052-9.475.082l-9.476.027-9.475-.03c-3.157-.027-6.318-.036-9.475-.083-6.317-.061-12.634-.19-18.951-.383z" opacity=".3"/>
        <circle cx="81.863" cy="37.842" r="1.61" fill="#49B2FF" fill-rule="nonzero" opacity=".2"/>
        <circle cx="43.485" cy="1.005" r="1.005" fill="#49B2FF" fill-rule="nonzero" opacity=".2"/>
        <ellipse cx="2.413" cy="47.836" fill="#49B2FF" fill-rule="nonzero" opacity=".2" rx="2.413" ry="2.377"/>
        <path fill="#004393" fill-rule="nonzero" d="M38.004 60.509s4.503-5.307 10.698-8.285c0 0 1.263 1.63-1.6 3.418 0 0-4.939 1.408-4.939 4.328l-4.16.539zM37.567 60.476l-1.216-.192-3.763-10.487s1.835-.4 3.092.82c1.256 1.22 1.96.992 1.96.992 1.405.026 2.843-1.551 2.843-1.551-2.975 2.645-2.916 10.404-2.916 10.404M33.276 60.089s-1.26-5.072-3.425-7.32l-2.314-1.349s-2.5-1.653-4.192-1.094c0 0 6.942 6.281 8.265 10.07l1.666-.307z" opacity=".1"/>
        <path stroke="#FFF" stroke-width=".66" d="M26.66 61.332s9.588-2.076 16.118-2.076M27.709 59.236s7.868 1.464 15.4 1.464"/>
        <path stroke="#FFF" stroke-width=".66" d="M34.473 63.775s.661-5.667-1.028-5.187c-.857.244-.169 1.5-.169 1.5s-1.788 2.712-1.09 5.866"/>
        <path fill="#004393" fill-rule="nonzero" d="M47.354 92.287s-23.2 1.118-25.19-12.087c-2.126-14.087 10.772-19.506 10.772-19.506l-5.512.48s-.294.935-3.263 3.05c-2.969 2.117-8.86 8.716-8.216 16.406.645 7.69 6.48 11.657 6.48 11.657h24.929zM56.313 86.039l-8.827-10.831c-.394-.381-.58-.93-.496-1.472.155-.899 5.657-6.53 5.657-6.53l4.81 15.305c-.284 1.205-.666 2.385-1.144 3.528z" opacity=".1"/>
        <path fill="#33B571" fill-rule="nonzero" d="M61.127 84.766c.33.436.813.37 1.137-.096 4.877-7.006 15.116-6.682 19.989-13.688.323-.51.323-1.161 0-1.672l-6.906-9.433c-.331-.436-.814-.373-1.141.096-4.873 7.002-15.112 6.682-19.986 13.684-.322.511-.322 1.162 0 1.673 2.301 3.143 4.604 6.288 6.907 9.436z"/>
        <path fill="#2BA037" fill-rule="nonzero" d="M61.127 84.766c.33.436.813.37 1.137-.096 4.877-7.006 15.116-6.682 19.989-13.688.323-.51.323-1.161 0-1.672l-6.906-9.433c-.331-.436-.814-.373-1.141.096-4.873 7.002-15.112 6.682-19.986 13.684-.322.511-.322 1.162 0 1.673 2.301 3.143 4.604 6.288 6.907 9.436z"/>
        <path fill="#3BB54A" fill-rule="nonzero" d="M59.788 80.626l-2.609-3.59c1.105-1.481 1.409-3.495.357-4.933 4.381-3.637 10.63-4.698 15.01-8.321 1.038 1.415 3.032 1.716 4.14.234l2.628 3.59c-1.108 1.482-1.409 3.492-.357 4.93-4.384 3.637-10.63 4.698-15.013 8.325-1.052-1.402-3.049-1.732-4.156-.235z"/>
        <path fill="#0E7768" fill-rule="nonzero" d="M64.843 73.885c-1.494-2.04-1.21-4.427.688-5.25 1.897-.823 4.602.093 6.086 2.12 1.485 2.026 1.207 4.43-.687 5.253-1.895.823-4.606-.096-6.087-2.123zm.33-.162c1.37 1.871 3.839 2.741 5.552 1.984 1.712-.757 1.95-2.926.575-4.804-1.376-1.878-3.842-2.737-5.551-1.984-1.71.754-1.957 2.936-.582 4.804h.007z"/>
        <path fill="#0E7768" fill-rule="nonzero" d="M65.64 73.508c1.19 1.624 3.306 2.404 4.747 1.772 1.442-.631 1.624-2.492.433-4.122-1.19-1.63-3.306-2.4-4.747-1.77-1.442.632-1.62 2.467-.433 4.12z"/>
        <path fill="#FFF" fill-rule="nonzero" d="M68.219 70.093c.046-.013.095.01.115.053l.159.228c.021.028.021.068 0 .096-.013.014-.027.026-.043.036l-.473.331-.033.023h.027c.122.04.235.107.33.195.023.02.037.017.06 0l.33-.241c.066-.046.106-.037.152.026l.143.202c.046.066.036.106-.027.152-.112.083-.228.162-.33.238-.024.017-.027.027-.017.053.09.192.12.406.09.615-.03.165-.094.322-.19.46-.07.11-.155.21-.254.297l-.033.033h.023l.536.126.555.142.76.208c.036 0 .069.021.085.053s.013.07-.008.1l-.433.32c-.043.03-.098.041-.15.03l-.442-.116-.384-.1c-.215-.052-.426-.108-.66-.158l-.546-.126c-.031-.005-.059-.023-.076-.05l-.186-.264c-.02-.022-.03-.052-.025-.082.005-.03.025-.056.052-.07l.238-.165c.143-.093.267-.212.367-.35.077-.105.12-.23.122-.36 0-.063-.01-.125-.033-.183l-.033.023-.89.648-.046.027c-.036.017-.079.006-.102-.027-.06-.082-.119-.165-.175-.25-.022-.035-.013-.08.02-.103l.033-.027.886-.618.033-.023-.023-.017c-.105-.045-.221-.053-.331-.023-.141.035-.274.098-.39.185l-.35.245c-.07.046-.12.033-.166-.043-.053-.088-.111-.172-.175-.251-.033-.04-.033-.097 0-.136l1.908-1.362z"/>
        <path fill="#000" fill-rule="nonzero" d="M58.267 80.861l.807 1.101s.254-1.917 4.39-5.594c4.351-3.861 6.58-4.53 8.91-7.604 2.331-3.075 2.5-4.354 2.5-4.354s.092-.661-1.792-1.93l-5.194 7.061-7.528 7.118-4.817 3.567 2.724.635z" opacity=".2" style="mix-blend-mode:multiply"/>
        <path fill="#33B571" fill-rule="nonzero" d="M56.459 82.7c.416.346.88.165 1.084-.368 3.045-7.97 13.06-10.123 16.107-18.094.184-.575.022-1.205-.416-1.62l-8.973-7.495c-.416-.33-.88-.162-1.084.37-3.045 7.971-13.06 10.12-16.104 18.095-.186.574-.026 1.204.413 1.62l8.973 7.491z"/>
        <path fill="#2BA037" fill-rule="nonzero" d="M56.459 82.7c.416.346.88.165 1.084-.368 3.045-7.97 13.06-10.123 16.107-18.094.184-.575.022-1.205-.416-1.62l-8.973-7.495c-.416-.33-.88-.162-1.084.37-3.045 7.971-13.06 10.12-16.104 18.095-.186.574-.026 1.204.413 1.62l8.973 7.491z"/>
        <path fill="#3BB54A" fill-rule="nonzero" d="M54.168 79.003l-3.416-2.85c.718-1.706.526-3.732-.84-4.873 3.383-4.572 9.185-7.118 12.564-11.69 1.345 1.124 3.356.935 4.073-.77l3.415 2.852c-.717 1.706-.526 3.73.84 4.874-3.379 4.572-9.184 7.118-12.563 11.69-1.346-1.124-3.356-.936-4.073.767z"/>
        <path fill="#0E7768" fill-rule="nonzero" d="M57.447 71.247c-1.92-1.62-2.251-4.02-.598-5.263 1.653-1.244 4.49-1.015 6.417.595 1.927 1.61 2.238 4.007.595 5.263-1.643 1.256-4.483 1.005-6.414-.595zm.278-.235c1.779 1.485 4.387 1.736 5.868.602 1.481-1.134 1.19-3.306-.598-4.8-1.789-1.495-4.387-1.736-5.869-.602-1.48 1.134-1.186 3.31.599 4.8z"/>
        <path fill="#0E7768" fill-rule="nonzero" d="M58.128 70.675c1.548 1.293 3.786 1.537 5.035.579 1.25-.96.992-2.81-.571-4.103-1.564-1.293-3.786-1.538-5.032-.579-1.247.959-.982 2.81.568 4.103z"/>
        <path fill="#FFF" fill-rule="nonzero" d="M59.824 66.754c.042-.023.095-.013.126.023l.205.185c.023.028.023.068 0 .096-.009.015-.019.03-.03.043l-.38.433-.027.033h.03c.126.01.247.048.357.11.027.016.04 0 .06 0 .09-.11.182-.212.274-.331.093-.12.096-.066.156 0l.185.162c.026.017.042.046.042.077 0 .032-.016.061-.042.078l-.271.314c-.02.02-.02.03 0 .053.134.163.215.364.231.575.014.168-.01.336-.07.493-.043.124-.102.241-.175.35l-.023.04H61.62l.786.02c.093 0 .123.053.11.129l-.331.397c-.033.04-.083.065-.136.066h-2.076c-.031 0-.062-.01-.086-.03l-.245-.215c-.024-.017-.04-.046-.04-.076s.016-.059.04-.076l.192-.218c.116-.126.208-.271.271-.43.048-.12.06-.253.033-.38-.016-.06-.043-.118-.079-.169l-.026.033-.734.843-.04.037c-.03.025-.073.025-.103 0l-.231-.202c-.029-.03-.029-.076 0-.106l.026-.033.711-.813.027-.03h-.023c-.114-.018-.23.003-.331.06-.126.069-.238.16-.33.27l-.282.331c-.053.06-.105.06-.168 0-.063-.06-.152-.135-.232-.201-.044-.025-.064-.078-.046-.126l1.547-1.815z"/>
    </g>
</svg>
