<svg xmlns="http://www.w3.org/2000/svg" width="211" height="187" viewBox="0 0 211 187">
    <g fill="none" fill-rule="evenodd">
        <g>
            <g>
                <g>
                    <g>
                        <g>
                            <g transform="translate(-995 -2143) translate(162 1260) translate(0 796) translate(752) translate(0 34) translate(81 53)">
                                <path fill="#92D6FF" fill-rule="nonzero" d="M210.5 64.84S139.74 58 22.705 28.16c0 0 16.375-10.19 96.435 6 75.115 15.19 88.485 29.075 91.36 30.68z"/>
                                <path fill="#2461A8" fill-rule="nonzero" d="M210.5 64.84S139.74 58 22.705 28.16c0 0 16.375-10.19 96.435 6 75.115 15.19 88.485 29.075 91.36 30.68z" opacity=".5"/>
                                <path fill="#49B2FF" fill-rule="nonzero" d="M124.5 5.62l-29 174.945c-.164.748-.882 1.24-1.64 1.121-.756-.117-1.29-.803-1.22-1.566l29-174.94c.18-.732.889-1.205 1.634-1.09.745.113 1.28.778 1.231 1.53h-.005z"/>
                                <path fill="#2461A8" fill-rule="nonzero" d="M124.5 5.62l-29 174.945c-.164.748-.882 1.24-1.64 1.121-.756-.117-1.29-.803-1.22-1.566l29-174.94c.18-.732.889-1.205 1.634-1.09.745.113 1.28.778 1.231 1.53h-.005z" opacity=".5"/>
                                <path fill="#D9F4FC" fill-rule="nonzero" d="M96.805 171.93l-2.05 13.26-2.86-.445 2.46-15.945c.963.92 1.788 1.974 2.45 3.13z" opacity=".5" style="mix-blend-mode:multiply"/>
                                <path fill="#49B2FF" fill-rule="nonzero" d="M120.26 23.5c-1.03-.195-1.645-1.47-1.385-2.845l3.435-17.94c.26-1.375 1.305-2.33 2.33-2.135 1.025.195 1.65 1.47 1.385 2.845L122.59 21.35c-.26 1.37-1.305 2.325-2.33 2.15z"/>
                                <path fill="#92D6FF" fill-rule="nonzero" d="M169.7 49.255c-3.285-.96-6.56-1.88-9.765-2.76-18.89-5.16-35.23-8.755-35.23-8.755l-13.855-2.655s-16.5-2.685-35.96-4.86c-19.06-2.11-40.965-3.725-53-1.84 0 0 44.14-32.44 77.895-26 0 0 8.59-5.78 23.945 2.815 17.46-2.315 23.31 6.225 23.31 6.225C180.8 17.9 209.85 64.34 209.85 64.34c-8.655-5.115-24.47-10.5-40.15-15.085"/>
                                <path fill="#FFF" fill-rule="nonzero" d="M159.935 46.5c-18.89-5.16-26.34-6.93-35.23-8.755-3.455-.715-10.385-2.04-13.855-2.655-8.935-1.58-16.5-2.685-35.96-4.86C85 13.5 99.79 2.4 99.79 2.4s8.59-5.78 23.945 2.815c17.46-2.315 23.31 6.225 23.31 6.225s9.665 15.79 12.89 35.06z" opacity=".7"/>
                                <path fill="#B13530" fill-rule="nonzero" d="M147.5 172.5c0 .325 3.16.59 7.06.59 3.9 0 7.06-.265 7.06-.59 0-.325-3.16-.595-7.06-.595-3.9 0-7.06.26-7.06.595z"/>
                                <g opacity=".5">
                                    <path fill="#0E7968" fill-rule="nonzero" d="M13.395 8.545c-.07 2.685.393 5.356 1.365 7.86l1.74-.905-1.365 1.84c1.061 2.376 2.49 4.57 4.235 6.5l.545-2.16v2.755c1.346 1.447 2.856 2.732 4.5 3.83-2.155-13.56-11.02-19.72-11.02-19.72z" transform="translate(127.5 122.5)"/>
                                    <path stroke="#4B5F4F" stroke-width=".5" d="M23.38 25.45s5.865 14.84 3.29 34.545" transform="translate(127.5 122.5)"/>
                                    <path stroke="#5B7B5E" stroke-width=".5" d="M27.225 54.09s-1.79-25.5 9.755-36" transform="translate(127.5 122.5)"/>
                                    <path fill="#0E9768" fill-rule="nonzero" d="M54.5 14.19s-20.795-4.5-23.555 13c.005.01 10.585-11.42 23.555-13z" transform="translate(127.5 122.5)"/>
                                    <path fill="#33B571" fill-rule="nonzero" d="M39.055 21.12l.5 2.26c-.835.5-1.695 1.04-2.585 1.5l-.44-.53v.76c-1.757.953-3.64 1.65-5.595 2.07 0 0 2.895-14.595 23.555-13-1.322 2.136-3.38 3.715-5.785 4.44l-1.25-1 .83 1.12-.27.06c-2.26.445-4.845 2.285-7.78 4.155l-1.18-1.835z" transform="translate(127.5 122.5)"/>
                                    <path stroke="#5B7B5E" stroke-width=".5" d="M27.54 58.845s1.79-25.5-9.76-36" transform="translate(127.5 122.5)"/>
                                    <path fill="#0E9768" fill-rule="nonzero" d="M.255 18.945s20.795-4.5 23.555 13c0 .01-10.58-11.415-23.555-13z" transform="translate(127.5 122.5)"/>
                                    <path fill="#33B571" fill-rule="nonzero" d="M15.71 25.875l-.5 2.265c.835.5 1.695 1.035 2.585 1.5l.44-.53v.765c1.756.954 3.64 1.65 5.595 2.065 0 0-2.895-14.595-23.555-13 1.32 2.138 3.379 3.717 5.785 4.44l1.25-1-.85 1.12.27.06c2.26.445 4.845 2.285 7.78 4.155l1.2-1.84z" transform="translate(127.5 122.5)"/>
                                    <path stroke="#5B7B5E" stroke-width=".5" d="M26.39 18.125s1.5 25.415.215 34.03" transform="translate(127.5 122.5)"/>
                                    <path fill="#0E9768" fill-rule="nonzero" d="M24.305 20.89l-1.44.36c-.375-1.207-.638-2.445-.785-3.7l1.87-1.09-1.95.645c-.295-2.285-.465-4.685-.925-6.6-.128-.536-.202-1.084-.22-1.635l1.845 1-1.83-1.945c.3-4.18 3.405-7.545 3.405-7.545 1.87 3.655 2.97 24.5 2.695 24.475-1.945-.025-3.095-1.14-3.825-2.805l1.16-1.16z" transform="translate(127.5 122.5)"/>
                                    <path fill="#33B571" fill-rule="nonzero" d="M29.12 9.36l-1.715-.04 1.72.5c0 .255 0 .5-.03.79-.115 1.715-.115 3.385-.095 4.945l-1.32-.03 1.335.955c.08 4.355.18 7.675-2 8.375L24.32.38c2.943 2.054 4.727 5.392 4.8 8.98zM40.94 4.2c.066 2.684-.398 5.355-1.365 7.86l-1.755-.89 1.365 1.845c-1.062 2.375-2.491 4.569-4.235 6.5l-.55-2.155v2.755c-1.345 1.448-2.856 2.733-4.5 3.83C32.075 10.365 40.94 4.2 40.94 4.2z" transform="translate(127.5 122.5)"/>
                                    <path stroke="#5B7B5E" stroke-width=".5" d="M30.95 21.11s-5.865 14.835-3.285 34.545" transform="translate(127.5 122.5)"/>
                                </g>
                                <path fill="#E16646" fill-rule="nonzero" d="M154.565 173.085c3.9 0 7.06-.265 7.06-.59l-2.575 10.42s-1.5.665-4.585.665-4.585-.665-4.585-.665L147.5 172.5c0 .32 3.165.585 7.065.585z"/>
                                <path fill="#2E2551" fill-rule="nonzero" d="M125.96 183.995L124.105 183.995 117.31 155.99 119.165 155.99zM100.425 183.995L102.28 183.995 109.075 155.99 107.22 155.99zM133.165 183.995L131.315 183.995 124.52 155.99 126.37 155.99z"/>
                                <path fill="#2E2551" fill-rule="nonzero" d="M105.985 164.85H128.02V166.29H105.985z" transform="rotate(-180 117.003 165.57)"/>
                                <path fill="#F39E31" fill-rule="nonzero" d="M100.325 157.74h22.855s7.415.62 12.975-8.85c5.78-9.85 11.415-26.18 9.675-31.715-2.265-7.205-17.46-9.365-17.46-9.365l-28.045 49.93z"/>
                                <path fill="#184981" fill-rule="nonzero" d="M101.96 154.655h19.67c2.16.004 4.269-.652 6.045-1.88 1.83-1.275 4.04-3.41 6.215-6.975 8-13.12 8.85-23.5 8.85-23.5s3.295-9.885-15.235-12.15l-25.545 44.505z" opacity=".1" style="mix-blend-mode:multiply"/>
                                <path fill="#2E2551" fill-rule="nonzero" d="M121.425 92l.08 1.845c.02.47.09.938.205 1.395l.715 2.84.84-5.34-1.84-.74z"/>
                                <path fill="#FFB494" fill-rule="nonzero" d="M129.895 105.835L130.38 107.525 132.135 108.63 129.205 114.305 126.19 114.795 121.305 107.81 123.915 107.81 123.77 106.265z"/>
                                <path fill="#FFB494" fill-rule="nonzero" d="M129.805 92c3.5 1.175 3.155 3.625 3.155 3.625.032 1.242-.042 2.485-.22 3.715.375-.434 1.005-.539 1.5-.25 1.165.645-.12 4.395-1.94 3.875-.188.902-.499 1.773-.925 2.59-.63 1.04-3.37 1.75-5.605 1.46-2.035-.27-4.07-1.5-4.025-3.89.07-3.33 1.31-10.385 1.31-10.385s.945-2.715 6.75-.74z"/>
                                <path fill="#342C2C" fill-rule="nonzero" d="M129.58 97.275c-.38-.185-.781-.32-1.195-.405-.413-.058-.834-.038-1.24.06.153-.185.353-.326.58-.405.234-.082.486-.103.73-.06.482.076.9.377 1.125.81zM124.825 96.935c-.315-.216-.673-.361-1.05-.425-.169-.016-.339.002-.5.055-.18.05-.365.13-.575.21.053-.097.114-.19.18-.28.074-.085.16-.16.255-.22.203-.135.447-.197.69-.175.468.059.859.385 1 .835z"/>
                                <path fill="#2E2551" fill-rule="nonzero" d="M134.375 94.535s1-3.81-2.075-3.785c0 0-.5-2.08-4.885-2.43 0 0-4.73-.115-6.525 2.69-.6.935.025 2.86 1.655 2.6 1.63-.26 6.455-2.68 8.125.5s3.4-.04 3.4-.04"/>
                                <path fill="#001118" fill-rule="nonzero" d="M124 98.295c0 .4-.19.72-.415.72-.225 0-.395-.33-.39-.73.005-.4.19-.725.415-.72.225.005.415.33.39.73zM128.5 98.53c0 .4-.195.72-.415.72-.22 0-.4-.33-.395-.73.005-.4.195-.725.415-.72.22.005.395.33.395.73z"/>
                                <path fill="#F09F80" fill-rule="nonzero" d="M126.1 101.455v-.095c-.555-.92-1.85-1.145-2.215-.24l2.215.335z"/>
                                <path fill="#FFF" fill-rule="nonzero" d="M127.415 103.26l-4.1-.54s.865 2.425 4.1.54z"/>
                                <ellipse cx="92.755" cy="183.645" fill="#00B8ED" fill-rule="nonzero" opacity=".15" rx="92.395" ry="2.96"/>
                                <path fill="#FFB393" fill-rule="nonzero" d="M92.545 115.455s-.84-2.055-5.565-3.78l-.245 5.5 4.325.825 1.235.205.25-2.75z"/>
                                <path fill="#00B7EE" fill-rule="nonzero" d="M132.135 108.63s-1.85 2.68-6.175 2.68c-4.325 0-2.675-3.5-2.675-3.5h-2.95c-1.222.002-2.378.552-3.15 1.5-2.5 3.03-6 11.685-12.64 11.685-4.735 0-11.735-5.97-11.735-5.97l-1.855 3.09s12.06 14.66 23.8 6.63l-3.62 12.315 18.735 7.205s7-10.215 8.67-29.925c.132-1.564-.727-3.043-2.15-3.705l-4.255-2.005z"/>
                                <path fill="#2461A8" fill-rule="nonzero" d="M129.87 144.255s-2.47 11.53-10.295 10.09c-7.825-1.44-18.12-6.59-18.12-6.59L89.1 165.465l-5.56-1.855S92.6 136.43 98.16 136c5.56-.43 13 1.03 13 1.03l18.71 7.225z"/>
                                <path fill="#2461A8" fill-rule="nonzero" d="M120.795 154.465L103.72 152.5l-3.295 23.065H94.66s-3.5-24.915-.615-27.8c1.44-1.44 3.5-1.855 7.41 0s16.045 6.615 19.34 6.7z"/>
                                <path fill="#CACDCE" fill-rule="nonzero" d="M100.425 175.555L99.605 180.29 96.105 180.29 95.555 175.555zM89.1 165.465L86.835 168.76 83.13 167.11 84.415 163.9z"/>
                                <path fill="#184981" fill-rule="nonzero" d="M120.795 154.465L103.72 152.5l-3.295 23.065H94.66s-3.5-24.915-.615-27.8c1.44-1.44 3.5-1.855 7.41 0s16.045 6.615 19.34 6.7z" opacity=".2" style="mix-blend-mode:multiply"/>
                                <path fill="#2E2551" fill-rule="nonzero" d="M100.22 179.67v3.5H89.155c-.328-.002-.613-.224-.694-.542-.081-.317.062-.65.349-.808 1.825-1 4.56-2.155 7.29-2.155l4.12.005zM86.81 168.775l-1.5 3.16-10-4.75c-.293-.144-.453-.466-.39-.786.064-.32.334-.558.66-.579 2.07-.105 5.04 0 7.5 1.185l3.73 1.77z"/>
                                <path fill="#FFB393" fill-rule="nonzero" d="M115.46 137.05s-4.12-1.65-7.21 1.44c0 0-2.06 2.47 8.445 1.85 0 0 2.265-2.055-1.235-3.29z"/>
                                <path fill="#F09F80" fill-rule="nonzero" d="M86.94 112.44s.905-.055 2.04 1.085c.745.745 1.28 2.35 2.315 2.16l1.25-.23-1.59 2.65-4.185-1.055.17-4.61z"/>
                                <path fill="#A5BABF" fill-rule="nonzero" d="M82.935 118.31h2.61c.722 0 1.329-.543 1.41-1.26l.68-6.155H80.84l.685 6.155c.081.717.688 1.26 1.41 1.26z"/>
                                <path fill="#FFF" fill-rule="nonzero" d="M86 118.31h-.475c.722 0 1.329-.543 1.41-1.26l.68-6.155H83.91l.685 6.155c.079.717.684 1.26 1.405 1.26z" opacity=".4"/>
                                <path fill="#F09F80" fill-rule="nonzero" d="M115.64 137.53l1.055 2.81s-4.565.4-7-.24c0 0-1.59-.275-1.59-1.19l7.535-1.38z"/>
                                <path fill="#184981" fill-rule="nonzero" d="M129.87 144.255s9.09-12.575 2.315-29L129.58 125c-1.264 4.824-4.977 8.624-9.77 10-1.445.405-4.27.54-4.35 2.07l5.31 3.705 9.1 3.48z" opacity=".1" style="mix-blend-mode:multiply"/>
                                <path fill="#00B7EE" fill-rule="nonzero" d="M136.46 110.69s2.885-.205 4.325 11.53c1.44 11.735-2.675 16.28-9.06 17.28-4.978.736-9.999 1.149-15.03 1.235-.267-1.1-.62-2.18-1.055-3.225-.142-.32-.13-.688.033-.999.162-.31.458-.53.802-.596 6-1.15 13.605-2.18 15.87-5.27 1.185-1.615.195-8.455-.335-11.595-.307-1.746-.073-3.545.67-5.155.68-1.395 1.82-2.835 3.78-3.205z"/>
                                <path fill="#184981" fill-rule="nonzero" d="M116.695 112.855l-1.94 11.88s-4.765 3.635-10 2.17c-5.235-1.465-11.18-5.705-13.795-8.8l1.855-3.09s2.24 7.855 11.5 9.745c10.44 2.145 12.38-11.905 12.38-11.905zM137.265 115.905c1.29 5.195 4.13 17.66-3.655 20.705-9.73 3.805-16.915 2.575-16.915 2.575v1.57s12.805-.255 17.2-1.755c3.595-1.235 7.85-3.885 7.17-13.145-.86-11.73-3.395-14.37-3.395-14.37s-1.42.325-.405 4.42z" opacity=".1" style="mix-blend-mode:multiply"/>
                                <path fill="#FFB393" fill-rule="nonzero" d="M88.955 113.25s.5 1.44-2.59 1.025c-.285-.035-1.5-.37-1.125.5.46.516 1.093.847 1.78.93 1.84.275 3.715.197 5.525-.23 0 0-2.465-1.185-3.59-2.225z"/>
                                <path fill="#A5BABF" fill-rule="nonzero" d="M45.395 115.12H48c.72 0 1.326-.543 1.405-1.26l.685-6.155h-6.785L44 113.86c.079.713.678 1.254 1.395 1.26z"/>
                                <path fill="#FFF" fill-rule="nonzero" d="M48.5 115.12H48c.72 0 1.326-.543 1.405-1.26l.685-6.155h-3.695l.68 6.155c.082.723.697 1.267 1.425 1.26z" opacity=".4"/>
                                <path fill="#FFB393" fill-rule="nonzero" d="M52.57 117.28v-7s-.205-1.03-1.855-1.235c-.555-.07-1-.115-1.33-.15-.24-.021-.478.06-.655.222-.178.163-.28.392-.28.633v3.205s.825 1.44 2.265 1.44l-1.44 1.855 3.295 1.03z"/>
                                <path fill="#F09F80" fill-rule="nonzero" d="M51.575 116.855v-4.585s-1.5-.135-1.5-1.08c.019-.735.086-1.468.2-2.195l-.915-.1s-.935 0-.935 1.13v2.93s1.21 1.585 2.265 1.44l-1.155 1.455 2.04 1.005z"/>
                                <path fill="#27306A" fill-rule="nonzero" d="M31.18 94.465s4.14-1.265 5.695 2.065c1.555 3.33 1.04 8.19 2.275 11.6 3.935 10.885-3.08 12.61-4.885 1.665v-12.42l-3.085-2.91z"/>
                                <path fill="#27306A" fill-rule="nonzero" d="M34.3 109.795s2.17 3.035 3.75.23c.89-1.73-.75-8.53-1.14-9.695-.83-2.5 0-2-.7-2.655-.827-.694-1.704-1.326-2.625-1.89v.745c.431.576 1.003 1.032 1.66 1.325 1.19.5 1.54 1.925 1.665 2.475.05.64.31 3.835.31 3.835s.41 2.375-.41 4c-.465.971-1.434 1.6-2.51 1.63z"/>
                                <path fill="#FFB393" fill-rule="nonzero" d="M34.265 96.675s2.3.5 2.53 2.77c.19 1.885.23 3.68.46 5.29.09.645.45 5.665-4.37 6-3 .195-4-1.025-4.83-1.84-.46-.46-2.3-3.68-1.15-7.36.775-2.505 3.12-5.73 7.36-4.86z"/>
                                <path fill="#F5E09C" fill-rule="nonzero" d="M37.335 112.47c3.899 3.127 6.943 7.19 8.85 11.81l3.09-8.855 4.325 1.65s-.685 13.44-3.705 15.855c-2.06 1.645-5.355 1.03-9.5-5.355-4.145-6.385-3.06-15.105-3.06-15.105z"/>
                                <path fill="#F39E31" fill-rule="nonzero" d="M37.335 112.47c3.899 3.127 6.943 7.19 8.85 11.81l3.09-8.855 4.325 1.65s-.685 13.44-3.705 15.855c-2.06 1.645-5.355 1.03-9.5-5.355-4.145-6.385-3.06-15.105-3.06-15.105z" opacity=".2"/>
                                <path fill="#2E2551" fill-rule="nonzero" d="M31.325 183.995L33.18 183.995 39.975 155.99 38.12 155.99zM56.86 183.995L55.005 183.995 48.21 155.99 50.065 155.99zM24.12 183.995L25.97 183.995 32.765 155.99 30.915 155.99z"/>
                                <path fill="#2E2551" fill-rule="nonzero" d="M29.265 164.845H51.3V166.285H29.265z"/>
                                <path fill="#F39E31" fill-rule="nonzero" d="M57.04 157.67l-22.86.075s-7.41.64-13-8.815c-5.81-9.83-10.24-26-8-31.58 3.14-7.765 17.075-6.85 17.075-6.85l26.785 47.17z"/>
                                <path fill="#184981" fill-rule="nonzero" d="M55.82 154.86H36.15c-2.156.011-4.264-.638-6.04-1.86-1.83-1.275-4.04-3.41-6.215-6.975-8-13.12-8.855-23.475-8.855-23.475s-3.29-9.885 15.24-12.15l25.54 44.46z" opacity=".1" style="mix-blend-mode:multiply"/>
                                <path fill="#F5E09C" fill-rule="nonzero" d="M68.77 174.525L69.045 179.465 64.925 179.465 64.62 174.525z"/>
                                <path fill="#F39E31" fill-rule="nonzero" d="M68.77 174.525L69.045 179.465 64.925 179.465 64.62 174.525z" opacity=".5"/>
                                <path fill="#2E2551" fill-rule="nonzero" d="M69.225 178.47h-1.83l-1.04 1.03h-1.43v-1.04l-.615-.24v4.945h11.115s-1-2.5-3.5-2.5c0 .035-2.7-.72-2.7-2.195z"/>
                                <path fill="#2461A8" fill-rule="nonzero" d="M49.07 139.315s17.09 4.53 19.355 8.645c2.265 4.115 2.06 19.565 1.65 26.565H61.63s-1.03-19.15-7-21.62c-6.56-2.715-18.13-3.295-18.13-3.295s6.185-9.475 12.57-10.295z"/>
                                <path fill="#184981" fill-rule="nonzero" d="M49.07 139.315s17.09 4.53 19.355 8.645c2.265 4.115 2.06 19.565 1.65 26.565H61.63s-1.03-19.15-7-21.62c-6.56-2.715-18.13-3.295-18.13-3.295s6.185-9.475 12.57-10.295z" opacity=".2" style="mix-blend-mode:multiply"/>
                                <path fill="#2461A8" fill-rule="nonzero" d="M48.04 139.315s14.21 5.555 17.5 9.88c2.82 3.71 1.44 26.36 1.44 26.36h-8.23s-2.06-18.33-4.945-19.355c-2.885-1.025-21.21-3.915-21.21-3.915s8.65-14.415 15.445-12.97z"/>
                                <path fill="#F5E09C" fill-rule="nonzero" d="M65.68 175.555L64.925 180.495 60.6 180.495 60.295 175.555z"/>
                                <path fill="#2E2551" fill-rule="nonzero" d="M65.315 179.295H63.5l-1.04 1.035H61v-1.035l-.62-.24V184H71.5s-1.03-2.47-3.5-2.47c0-.005-2.685-.765-2.685-2.235z"/>
                                <path fill="#FFB393" fill-rule="nonzero" d="M33.895 109.22L34.155 117.785 31.565 117.28 25.8 111.105 27.245 110.28 29.51 108.015z"/>
                                <path fill="#27306A" fill-rule="nonzero" d="M34.875 98s-1.465-6.46-7.56-3c-6.745 3.85-5.615 24.91-2.23 25.8 3.685.965 3.43-11.93 3.43-11.93s-1.585-3.635-1.15-6.67c.21-1.465 2.3-2.755 4.6-3 2.3-.245 2.91-1.2 2.91-1.2z"/>
                                <path fill="#F5E09C" fill-rule="nonzero" d="M27.245 110.28l6.795 6.175-.155-6s4.895 2 7.155 6c2.09 3.69 3.295 4.945 3.295 7 0 2.055-1.03 9.5 1.03 11.535s4.735 3.295 3.705 4.325c-1.03 1.03-7.415 4.735-9.265 9.06-1.85 4.325-6.805 8.44-12.56 5.125v-13.16c0-2.055-9.245-19.84-6.59-26.34 1.44-3.5 6.59-3.72 6.59-3.72z"/>
                                <path fill="#F39E31" fill-rule="nonzero" d="M28.28 120.05s-2.5 11.18 12.14 14.32c0 0-8.72 4.31-14.62-1.59-5.9-5.9 2.48-12.73 2.48-12.73z" opacity=".2"/>
                                <path fill="#F39E31" fill-rule="nonzero" d="M49.07 139.315L41.245 136 26 136.955l1.24 3.385v13.16s8.905 1.34 13.385-6.64c.005.02 1.55-2.685 8.445-7.545z" opacity=".2"/>
                                <path fill="#D3DEE2" fill-rule="nonzero" d="M41.245 136h8.95c.071 0 .14-.025.195-.07l.86-.69c.057-.041.125-.064.195-.065h2.235c.08 0 .158-.033.215-.09.089-.088.116-.22.069-.337-.047-.115-.159-.192-.284-.193H41.245V136z"/>
                                <path fill="#FFB393" fill-rule="nonzero" d="M36.315 138.22s8 .27 10.285-2.2h-4.53s0-1.445 2.06-1.445c0 0-.21-1.645-3.71-.205-2.405 1-3.705 1.44-5.765 1.03l1.66 2.82z"/>
                                <path fill="#F5E09C" fill-rule="nonzero" d="M23.555 111.19s6.16 1.15 4.5 10.415c0 0-1.44 8.03-.615 8.855.825.825 9.885 4.115 9.885 4.115L36.5 139.5s-12.15 2.265-15.24-4.325c-2.955-6.31-2.095-18.145-1.235-20.385.659-1.617 1.926-2.91 3.53-3.6z"/>
                                <path fill="#F39E31" fill-rule="nonzero" d="M36.875 137.31s-11.22 1.415-13.55-3.2-2.06-19.29 0-20.69c0 0-3.19-.035-3.845 4.365-.655 4.4-.255 15.895 2.84 19 3.095 3.105 9.535 3.675 14.18 2.715l.375-2.19z" opacity=".2"/>
                                <path fill="#FFB393" fill-rule="nonzero" d="M27.305 104.85s-.105.95-.86.94c-1.21 0-1.795-3.745-1-4.12.795-.375 1.71.5 1.71.5l.15 2.68z"/>
                                <path fill="#27306A" fill-rule="nonzero" d="M34.265 97.375s-.625.785-3.72 1.5c-2.295.53-3.23 3.26-3.23 3.26V97.4s4.495-1.17 6.95-.025z"/>
                                <path fill="#27306A" fill-rule="nonzero" d="M34.265 97.375c.1.729.427 1.408.935 1.94 1.395 1.39 2.135 1.425 2.135 1.425s-.29-2.23-1.125-3.065c-.633-.555-1.392-.948-2.21-1.145l.265.845z"/>
                                <path fill="#27306A" fill-rule="nonzero" d="M24.365 110.865c-1.141-1.808-1.502-4.001-1-6.08.283-1.186.843-2.288 1.635-3.215 1.166-1.406 2.677-2.486 4.385-3.135 1.655-.64 4.28-1.79 4.405-2.65l1.11 2.2s-.815 1.17-3.695 2.04c-1.5.445-3.765.885-3.96 3.18l-.05-1s-1.56-1.255-2-.075c-.44 1.18.5 3.79 1.275 3.68.457-.1.801-.476.86-.94.172 1.39.567 2.742 1.17 4.005-.324.55-.756 1.028-1.27 1.405 0 0-2.295.28-2.865.585z"/>
                                <path fill="#F09F80" fill-rule="nonzero" d="M33.885 110.465l-2.46 3.62-4.18-3.805 1.255-1.405s-1.125-2.38-1.21-4.025c0 0-.11.94-.86.94s-1.85-2.305-1.275-3.68c0 0 .315-.75 1.675.61l.375.5s-.395-2.115 3.655-3.13c0 0 2.73-.805 3.665-1.74-1.063 1.16-2.335 2.108-3.75 2.795-4.425 2.355-1.735 9.79 3.11 9.32zM37.185 135.46c1.13.366 2.355.307 3.445-.165 1.69-.8 2.755-1.105 3.5-.72 0 0-1.875 0-2.06 1.445h4.53s-2.29 2.555-9.82 2.15l.405-2.71z"/>
                                <path fill="#FFF" fill-rule="nonzero" d="M35.32 106.845c-1.373.288-2.797.226-4.14-.18 0 0 1.425 1.35 3.085 1.35 1.01-.015 1.055-1.17 1.055-1.17z"/>
                                <path fill="#F09F80" fill-rule="nonzero" d="M33.07 105.79h1.805s.085-.875-1.805 0z"/>
                                <path fill="#223368" fill-rule="nonzero" d="M32.645 102.605c-.468.34-1.08.408-1.61.18l1.61-.18z"/>
                                <path fill="#223368" fill-rule="nonzero" d="M31.59 103c-.045.17.017.35.157.457.14.107.331.118.483.03.152-.09.236-.261.211-.436-.024-.174-.15-.317-.321-.361-.111-.03-.23-.015-.33.044-.1.058-.172.154-.2.266zM35 102.57c.465.34 1.076.409 1.605.18L35 102.57z"/>
                                <path fill="#223368" fill-rule="nonzero" d="M36.055 102.965c.048.173-.014.357-.158.465-.143.108-.338.117-.49.022-.153-.094-.231-.273-.199-.45.033-.175.17-.314.347-.347.222-.045.441.091.5.31z"/>
                                <path fill="#27306A" fill-rule="nonzero" d="M37.195 102c-.53-.038-1.05-.17-1.535-.39h.115c-.315.063-.64.063-.955 0 .259-.192.553-.332.865-.41h.055l.065.025c.505.175.975.438 1.39.775zM30.37 102.1c.414-.335.885-.594 1.39-.765h.12c.312.08.606.219.865.41-.317.065-.643.065-.96 0h.12c-.487.208-1.006.328-1.535.355z"/>
                                <path fill="#27306A" fill-rule="nonzero" d="M34.54 98.335s-.275 1.245-4.125 2.64c-.978.344-1.804 1.02-2.335 1.91-.42.657-.566 1.451-.41 2.215 0 0-1.05-2.32-.12-4.245 1.305-2.7 6.99-2.52 6.99-2.52z"/>
                                <path fill="#F09F80" fill-rule="nonzero" d="M133.5 99.615c-.347-.023-.67.178-.8.5 0 0-.25.97-.565 1.085-.213.066-.442.066-.655 0 0 0-1.19 6.78-8.14 4.93l.44.25.135 1.445 5.085 3c1.226-.42 2.312-1.174 3.135-2.175l-1.755-1.105-.305-1.06s1.045-.395 1.31-.935c.265-.54.925-2.59.925-2.59s1.665.595 1.81-2.535c.042-.392-.23-.748-.62-.81z"/>
                                <path fill="#2E2551" fill-rule="nonzero" d="M130.92 94.105c.965.095 2.5-.085 3.5 0 0-.1-.06.71-.065.715-.2.405-.56 4.185-.56 4.185-.975-.05-1.025.73-1.025.73l-.305 1.73-.955-.2.315-3.69c-.125-.08-.24-.176-.34-.285-.284-.31-.443-.715-.445-1.135-.04-.57-.04-1.58-.12-2.05z"/>
                                <path fill="#0058B4" fill-rule="nonzero" stroke="#FFF" stroke-width=".5" d="M65.945 64l-13.05 2.91v9.59c-.002 8.338 5.214 15.786 13.05 18.635C73.783 92.287 79.001 84.839 79 76.5v-9.585L65.945 64z"/>
                                <path fill="#0F9CF3" fill-rule="nonzero" d="M56.635 69.915l9.31-2.075 9.31 2.075V76.5c.002 6.261-3.63 11.954-9.31 14.59-5.68-2.636-9.312-8.329-9.31-14.59v-6.585z"/>
                                <path fill="#FFF" fill-rule="nonzero" d="M69 75.065h-2.405c.47.425.762 1.013.815 1.645H69v.79h-1.575c-.145 1.645-1.325 2.69-3.195 2.755 1.14 1.305 2.38 2.95 3.605 4.61h-1.4c-1.14-1.5-2.205-2.915-3.575-4.53v-1h.8c1.575 0 2.425-.725 2.525-1.84H62.86v-.805h3.28c-.205-.935-.975-1.405-2.245-1.405H62.86V74.24H69v.825z"/>
                                <path fill="#7DD1C5" fill-rule="nonzero" d="M77.565 90.55v-.785c-.42.001-.83-.117-1.185-.34l.185-.5c.331.217.719.334 1.115.335.555 0 .925-.32.925-.76s-.305-.69-.875-.92c-.79-.315-1.28-.67-1.28-1.345.01-.655.517-1.194 1.17-1.245v-.785h.5v.75c.351.004.696.099 1 .275l-.195.5c-.301-.181-.648-.273-1-.265-.6 0-.825.36-.825.67 0 .4.29.605.965.88.795.33 1.2.73 1.2 1.42-.012.688-.54 1.256-1.225 1.32v.805l-.475-.01z"/>
                                <rect width="21.605" height="12.11" x="69.475" y="83.345" fill="#33B871" fill-rule="nonzero" rx=".724"/>
                                <path fill="#249D5A" fill-rule="nonzero" d="M90.075 86.7L87.88 84.51 87.88 84.51 72.67 84.51 70.48 86.7 70.48 92.095 72.67 94.29 87.88 94.29 90.075 92.095z"/>
                                <path fill="#33B871" fill-rule="nonzero" d="M83.745 89.34c0 2.43-1.56 4.405-3.5 4.405s-3.5-2-3.5-4.405c0-2.405 1.56-4.405 3.5-4.405s3.5 1.97 3.5 4.405z"/>
                                <g fill="#FFF" fill-rule="nonzero" opacity=".5">
                                    <path d="M3.03.315c.047.018.076.065.07.115v.295c-.002.037-.029.068-.065.075h-.71v.03c.077.108.132.23.16.36 0 .035 0 .04.05.04H3c.085 0 .115.03.115.115v.26c0 .08-.03.115-.115.115h-.44c-.03 0-.04 0-.045.035-.036.22-.139.425-.295.585-.126.124-.275.221-.44.285-.13.05-.263.085-.4.105h-.05v.025c.13.145.26.285.385.43l.395.465c.18.21.355.425.53.635.03.023.045.06.04.097-.006.037-.03.069-.065.083H2.06c-.057.001-.112-.022-.15-.065-.105-.12-.205-.245-.31-.37l-.27-.315-.465-.53L.47 2.75c-.023-.024-.035-.057-.035-.09v-.345c-.005-.032.005-.064.028-.087.023-.023.055-.033.087-.028h.305c.18.006.36-.021.53-.08.13-.043.243-.125.325-.235.038-.055.065-.116.08-.18H.51C.469 1.696.439 1.662.435 1.62V1.3c.003-.045.04-.08.085-.08h1.225v-.025c-.064-.107-.163-.19-.28-.235-.144-.052-.297-.077-.45-.075H.56C.475.885.44.84.445.75c.005-.09 0-.22 0-.325C.435.372.464.319.515.3L3.03.315z" transform="translate(78.5 87)"/>
                                </g>
                                <path fill="#F7A231" fill-rule="nonzero" d="M95.97 94.24c0-.405-.24-.735-.535-.735h-6.21c-.295 0-.53.33-.53.735v.885c0 .895 1.625 1.62 3.635 1.62s3.64-.725 3.64-1.62v-.045V94.24z"/>
                                <ellipse cx="92.33" cy="94.125" fill="#F9D523" fill-rule="nonzero" rx="3.64" ry="1.62"/>
                                <path fill="#F7A231" fill-rule="nonzero" d="M95.16 92.695c0-.405-.24-.735-.53-.735h-6.215c-.29 0-.53.33-.53.735v.885c0 .895 1.63 1.62 3.635 1.62s3.64-.725 3.64-1.62c.002-.015.002-.03 0-.045.002-.022.002-.043 0-.065v-.775z"/>
                                <path fill="#F9D523" fill-rule="nonzero" d="M95.16 92.585c0 .895-1.63 1.62-3.64 1.62-2.01 0-3.635-.725-3.635-1.62 0-.895 1.63-1.62 3.635-1.62s3.64.725 3.64 1.62z"/>
                                <path fill="#F7A231" fill-rule="nonzero" d="M96.255 91.175c0-.405-.235-.735-.53-.735H89.5c-.295 0-.535.33-.535.735V92.06c0 .895 1.63 1.62 3.64 1.62 2.01 0 3.635-.725 3.635-1.62v-.885h.015z"/>
                                <path fill="#F9D523" fill-rule="nonzero" d="M96.255 91.065c0 .895-1.625 1.62-3.635 1.62s-3.64-.725-3.64-1.62c0-.895 1.63-1.62 3.64-1.62 2.01 0 3.635.725 3.635 1.62z"/>
                                <path fill="#F7A231" fill-rule="nonzero" d="M87.61 95.115c0-.39-.215-.715-.5-.72l-6-.135c-.285 0-.5.305-.53.7v.745c-.002.022-.002.043 0 .065-.002.015-.002.03 0 .045 0 .86 1.535 1.595 3.5 1.64 1.965.045 3.5-.625 3.545-1.5v-.045-.065l-.015-.73z"/>
                                <path fill="#F9D523" fill-rule="nonzero" d="M87.61 95c0 .865-1.605 1.53-3.545 1.5-1.94-.03-3.5-.78-3.475-1.645.025-.865 1.61-1.5 3.545-1.5 1.935 0 3.495.79 3.475 1.645z"/>
                                <path fill="#F7A231" fill-rule="nonzero" d="M95.16 89.92c0-.39-.215-.715-.5-.72l-6-.135c-.285 0-.5.31-.53.7v.855c0 .865 1.535 1.6 3.475 1.64 1.94.04 3.525-.62 3.545-1.5.002-.015.002-.03 0-.045.003-.022.003-.043 0-.065l.01-.73z"/>
                                <path fill="#F9D523" fill-rule="nonzero" d="M95.16 89.815c0 .86-1.605 1.525-3.545 1.5-1.94-.025-3.5-.78-3.475-1.645.025-.865 1.605-1.525 3.545-1.5 1.94.025 3.495.78 3.475 1.645z"/>
                                <path fill="#F7A231" fill-rule="nonzero" d="M89.12 89.44c-.21-.268-.593-.323-.87-.125l-4.165 4.335c-.188.283-.12.665.155.865l.54.5.05.045.025.03c.625.6 2.225-.05 3.575-1.45s1.935-3 1.31-3.63l-.035-.025-.045-.05-.54-.495z"/>
                                <path fill="#F9D523" fill-rule="nonzero" d="M89.045 89.365c.62.6.035 2.22-1.31 3.625-1.345 1.405-2.95 2.05-3.575 1.45-.625-.6-.035-2.225 1.31-3.625s2.95-2.05 3.575-1.45z"/>
                                <path fill="#D3D3D3" fill-rule="nonzero" opacity=".5" style="mix-blend-mode:multiply" d="M69.475 84.07L61.065 92.48 65.945 95.135 69.595 93.365z"/>
                                <circle cx="188.63" cy="19.74" r="1.455" fill="#49B2FF" fill-rule="nonzero" opacity=".4"/>
                                <circle cx="159.55" cy="84.07" r="2.515" fill="#49B2FF" fill-rule="nonzero" opacity=".4"/>
                                <ellipse cx="32.06" cy="55.815" fill="#49B2FF" fill-rule="nonzero" opacity=".4" rx="2.38" ry="2.345"/>
                            </g>
                        </g>
                    </g>
                </g>
            </g>
        </g>
    </g>
</svg>
